SplineFontDB: 3.2
FontName: RingbearerMedium
FullName: Ringbearer Medium
FamilyName: Ringbearer
Weight: Medium
Copyright: V.1.00 (C) Pete Klassen, 2002.
Version: 1.00
ItalicAngle: 0
UnderlinePosition: -367
UnderlineWidth: 100
Ascent: 1638
Descent: 410
InvalidEm: 0
sfntRevision: 0x00010000
LayerCount: 2
Layer: 0 1 "Back" 1
Layer: 1 1 "Fore" 0
XUID: [1021 517 1064410052 3492]
StyleMap: 0x0040
FSType: 14
OS2Version: 0
OS2_WeightWidthSlopeOnly: 0
OS2_UseTypoMetrics: 0
CreationTime: 1028568509
ModificationTime: 1759395858
PfmFamily: 17
TTFWeight: 500
TTFWidth: 5
LineGap: 0
VLineGap: 0
Panose: 2 2 6 2 5 3 11 2 3 3
OS2TypoAscent: 1556
OS2TypoAOffset: 0
OS2TypoDescent: 492
OS2TypoDOffset: 0
OS2TypoLinegap: 410
OS2WinAscent: 1810
OS2WinAOffset: 0
OS2WinDescent: 954
OS2WinDOffset: 0
HheadAscent: 1810
HheadAOffset: 0
HheadDescent: -637
HheadDOffset: 0
OS2SubXSize: 1351
OS2SubYSize: 1228
OS2SubXOff: 0
OS2SubYOff: -305
OS2SupXSize: 1351
OS2SupYSize: 1228
OS2SupXOff: 0
OS2SupYOff: 407
OS2StrikeYSize: 100
OS2StrikeYPos: 614
OS2FamilyClass: 258
OS2Vendor: 'Bits'
OS2UnicodeRanges: 00000000.00000000.00000000.00000000
Lookup: 258 0 0 "'kern' Horizontal Kerning in Latin lookup 0" { "'kern' Horizontal Kerning in Latin lookup 0 subtable"  } ['kern' ('DFLT' <'dflt' > 'latn' <'dflt' > ) ]
DEI: 91125
ShortTable: maxp 16
  1
  0
  152
  312
  4
  273
  3
  2
  8
  64
  10
  0
  149
  0
  2
  1
EndShort
LangName: 1033 "" "" "" "Ringbearer" "" "1.00" "" "(C) Pete Klassen, 2002."
Encoding: UnicodeBmp
UnicodeInterp: none
NameList: AGL For New Fonts
DisplaySize: -48
AntiAlias: 1
FitToEm: 0
WinInfo: 0 16 7
BeginChars: 65540 157

StartChar: .notdef
Encoding: 65536 -1 0
Width: 1024
GlyphClass: 1
Flags: W
LayerCount: 2
Fore
SplineSet
128 0 m 1,0,-1
 128 1810 l 1,1,-1
 896 1810 l 1,2,-1
 896 0 l 1,3,-1
 128 0 l 1,0,-1
256 128 m 1,4,-1
 768 128 l 1,5,-1
 768 1682 l 1,6,-1
 256 1682 l 1,7,-1
 256 128 l 1,4,-1
EndSplineSet
EndChar

StartChar: zero
Encoding: 48 48 4
Width: 1034
GlyphClass: 1
Flags: W
LayerCount: 2
Fore
SplineSet
957 482 m 0,0,1
 959 445 959 445 954 423 c 0,2,3
 948 406 948 406 943 388 c 0,4,5
 925 276 925 276 880 187 c 0,6,7
 850 127 850 127 745 56 c 0,8,9
 740 57 740 57 789 57 c 1,10,11
 796 48 796 48 796 41 c 1,12,13
 654 -19 654 -19 587 -19 c 2,14,-1
 465 -19 l 2,15,16
 413 -19 413 -19 389 -1 c 0,17,18
 360 22 360 22 335 31 c 0,19,20
 295 44 295 44 291 46 c 2,21,22
 291 46 291 46 240 91 c 1,23,24
 232 91 232 91 219 98 c 1,25,26
 182 137 182 137 165 170 c 1,27,28
 165 170 165 170 136 251 c 1,29,30
 120 279 120 279 94 341 c 1,31,32
 63 437 63 437 63 559 c 0,33,34
 63 565 63 565 68.5 585 c 128,-1,35
 74 605 74 605 74 615 c 0,36,37
 80 819 80 819 209 914 c 0,38,39
 218 916 218 916 233 921 c 0,40,41
 284 945 284 945 314 968 c 1,42,43
 230 968 230 968 229 968 c 1,44,45
 236 974 236 974 329 1006 c 0,46,47
 431 1042 431 1042 441 1042 c 0,48,49
 458 1042 458 1042 632 1025 c 0,50,51
 661 1022 661 1022 676 1016 c 0,52,53
 721 1000 721 1000 741 986 c 0,54,55
 781 960 781 960 816 922 c 0,56,57
 883 851 883 851 941 679 c 1,58,59
 944 650 944 650 954 590 c 1,60,61
 954 550 954 550 957 482 c 0,0,1
802 405 m 0,62,63
 805 569 805 569 778 666 c 0,64,65
 752 760 752 760 698 842 c 0,66,67
 661 899 661 899 642 909 c 0,68,69
 603 924 603 924 533 954 c 1,70,-1
 417 954 l 1,71,72
 304 892 304 892 243 769 c 1,73,74
 243 745 243 745 241 700 c 0,75,76
 237 687 237 687 233 666 c 0,77,78
 218 483 218 483 223 448 c 1,79,80
 237 414 237 414 258 358 c 1,81,82
 268 309 268 309 284 251 c 1,83,84
 380 89 380 89 506 80 c 0,85,86
 590 74 590 74 635 91 c 0,87,88
 694 114 694 114 728 182 c 1,89,90
 747 205 747 205 771 247 c 1,91,92
 801 340 801 340 802 405 c 0,62,63
EndSplineSet
EndChar

StartChar: one
Encoding: 49 49 5
Width: 1034
GlyphClass: 1
Flags: W
LayerCount: 2
Fore
SplineSet
759 34 m 1,0,1
 756 22 756 22 750 1 c 1,2,-1
 359 1 l 1,3,-1
 261 -4 l 2,4,5
 250 -6 250 -6 246 9 c 0,6,7
 242 26 242 26 254 36 c 1,8,9
 266 37 266 37 290 43 c 0,10,11
 334 56 334 56 338 57 c 0,12,13
 367 70 367 70 368 92 c 0,14,15
 368 93 368 93 370 99 c 128,-1,16
 372 105 372 105 372 108 c 1,17,18
 394 108 394 108 414 103 c 1,19,20
 429 156 429 156 415 182 c 1,21,22
 418 190 418 190 418 199 c 0,23,24
 418 214 418 214 403.5 235.5 c 128,-1,25
 389 257 389 257 388 266 c 0,26,27
 388 276 388 276 395.5 296 c 128,-1,28
 403 316 403 316 403 326 c 256,29,30
 403 336 403 336 399 344 c 1,31,32
 415 381 415 381 410 398 c 1,33,34
 411 414 411 414 409 443 c 0,35,36
 409 444 409 444 396 470 c 0,37,38
 393 479 393 479 403 487 c 1,39,40
 404 506 404 506 407 539 c 1,41,42
 404 527 404 527 404 581 c 0,43,44
 404 583 404 583 406 590.5 c 128,-1,45
 408 598 408 598 407 603 c 0,46,47
 406 606 406 606 402 611 c 1,48,49
 405 646 405 646 405 673 c 0,50,51
 405 676 405 676 403 682.5 c 128,-1,52
 401 689 401 689 400 691 c 0,53,54
 402 701 402 701 401 717 c 0,55,56
 397 730 397 730 400 766 c 0,57,58
 402 794 402 794 388 808 c 1,59,60
 392 816 392 816 391 822 c 0,61,62
 386 869 386 869 375 920 c 0,63,64
 367 956 367 956 328 967 c 1,65,66
 300 969 300 969 244 976 c 1,67,68
 248 998 248 998 254 1011 c 1,69,70
 306 1015 306 1015 349 1021 c 0,71,72
 373 1025 373 1025 423 1031 c 0,73,74
 464 1034 464 1034 483 1037 c 0,75,76
 629 1056 629 1056 726 1072 c 0,77,78
 734 1074 734 1074 738 1073 c 0,79,80
 742 1069 742 1069 747 1036 c 1,81,82
 718 1026 718 1026 690 1016 c 0,83,84
 656 1004 656 1004 650 980 c 1,85,86
 643 970 643 970 633 950 c 0,87,88
 621 911 621 911 606 834 c 0,89,90
 605 815 605 815 605 724 c 0,91,92
 605 484 605 484 602 448 c 0,93,94
 601 445 601 445 599 441 c 0,95,96
 601 435 601 435 604 423 c 1,97,98
 602 430 602 430 602 369 c 2,99,-1
 602 270 l 2,100,101
 602 184 602 184 616 132 c 0,102,103
 618 118 618 118 627 94 c 1,104,105
 669 37 669 37 759 34 c 1,0,1
EndSplineSet
EndChar

StartChar: two
Encoding: 50 50 6
Width: 1034
GlyphClass: 1
Flags: W
LayerCount: 2
Fore
SplineSet
944 300 m 0,0,1
 944 295 944 295 936 263 c 0,2,3
 931 243 931 243 919 233 c 0,4,5
 901 216 901 216 865 134 c 1,6,7
 857 128 857 128 843 114 c 1,8,9
 848 99 848 99 837 79 c 0,10,11
 821 54 821 54 792 2 c 0,12,13
 787 -13 787 -13 783 -28 c 0,14,15
 774 -51 774 -51 756 -56 c 0,16,17
 752 -58 752 -58 717 -42 c 1,18,19
 708 -48 708 -48 702 -40 c 0,20,21
 697 -35 697 -35 693 -29 c 0,22,23
 688 -27 688 -27 635 -14 c 1,24,25
 615 -20 615 -20 582 -14 c 0,26,27
 535 -5 535 -5 528 -4 c 0,28,29
 526 -4 526 -4 522 -2 c 128,-1,30
 518 0 518 0 515 0 c 2,31,-1
 457 0 l 2,32,33
 455 0 455 0 448 -2 c 128,-1,34
 441 -4 441 -4 438 -4 c 2,35,-1
 374 -4 l 2,36,37
 372 -4 372 -4 347 -8 c 128,-1,38
 322 -12 322 -12 319 -12 c 2,39,-1
 269 -12 l 2,40,41
 267 -12 267 -12 254 -16.5 c 128,-1,42
 241 -21 241 -21 238 -21 c 2,43,-1
 164 -21 l 2,44,45
 162 -21 162 -21 159 -23 c 128,-1,46
 156 -25 156 -25 154 -25 c 2,47,-1
 93 -25 l 2,48,49
 81 -22 81 -22 68 -18.5 c 128,-1,50
 55 -15 55 -15 50 0 c 0,51,52
 46 13 46 13 70 38 c 0,53,54
 82 56 82 56 111 92 c 0,55,56
 113 94 113 94 133 99 c 1,57,58
 140 105 140 105 151 114 c 0,59,60
 168 125 168 125 198 147 c 0,61,62
 207 157 207 157 230 178 c 0,63,64
 244 191 244 191 270 215 c 0,65,66
 275 216 275 216 282 220 c 0,67,68
 329 268 329 268 389 343 c 0,69,70
 397 355 397 355 414 379 c 0,71,72
 423 385 423 385 438 399 c 0,73,74
 445 411 445 411 459 432 c 0,75,76
 468 440 468 440 484 460 c 1,77,78
 486 470 486 470 493 486 c 1,79,80
 511 508 511 508 537 551 c 0,81,82
 539 551 539 551 542 553 c 0,83,84
 556 579 556 579 574 635 c 1,85,86
 576 664 576 664 595 720 c 0,87,88
 603 734 603 734 598 755 c 0,89,90
 591 787 591 787 591 787 c 1,91,-1
 591 841 l 1,92,93
 586 846 586 846 578 855 c 0,94,95
 577 860 577 860 574 871 c 0,96,97
 572 876 572 876 547 915 c 0,98,99
 544 924 544 924 531 939 c 1,100,101
 477 980 477 980 413 980 c 0,102,103
 379 980 379 980 350 967 c 0,104,105
 345 961 345 961 334 952 c 0,106,107
 323 947 323 947 304 934 c 0,108,109
 278 909 278 909 239 900 c 1,110,111
 213 869 213 869 183 839 c 0,112,113
 177 832 177 832 170 832 c 0,114,115
 144 832 144 832 125 865 c 0,116,117
 121 873 121 873 131 888 c 0,118,119
 161 929 161 929 204 966 c 0,120,121
 215 971 215 971 236 984 c 0,122,123
 244 992 244 992 258 1005 c 1,124,125
 263 1004 263 1004 272 1004 c 0,126,127
 280 1007 280 1007 295 1014 c 0,128,129
 334 1037 334 1037 402 1063 c 0,130,131
 409 1063 409 1063 424 1065 c 0,132,133
 429 1068 429 1068 441 1071 c 0,134,135
 449 1073 449 1073 467 1068 c 1,136,-1
 530 1068 l 2,137,138
 546 1067 546 1067 576 1059 c 1,139,140
 594 1050 594 1050 631 1032 c 1,141,142
 647 1030 647 1030 673 1015 c 1,143,144
 680 1001 680 1001 700 976 c 1,145,146
 708 973 708 973 722 966 c 0,147,148
 732 959 732 959 737 940 c 0,149,150
 742 931 742 931 748 914 c 0,151,152
 749 905 749 905 751 886 c 1,153,154
 756 877 756 877 764 860 c 1,155,156
 762 851 762 851 761 835 c 1,157,158
 765 831 765 831 770 823 c 0,159,160
 772 813 772 813 769 801 c 0,161,162
 765 786 765 786 765 782 c 1,163,164
 766 789 766 789 770 766 c 1,165,166
 758 744 758 744 754 708 c 0,167,168
 751 703 751 703 746 692 c 128,-1,169
 741 681 741 681 733.5 658.5 c 128,-1,170
 726 636 726 636 720 622 c 0,171,172
 698 587 698 587 657 517 c 0,173,174
 651 513 651 513 642 503 c 0,175,176
 630 481 630 481 601 455 c 0,177,178
 558 419 558 419 558 418 c 0,179,180
 523 386 523 386 456 315 c 1,181,182
 455 308 455 308 449 295 c 0,183,184
 404 240 404 240 346 205 c 0,185,186
 332 196 332 196 303 156 c 0,187,188
 301 152 301 152 298 145 c 1,189,190
 339 140 339 140 401 138 c 0,191,192
 406 135 406 135 407 135 c 2,193,-1
 459 135 l 1,194,195
 458 135 458 135 478 129 c 0,196,197
 479 125 479 125 460 104 c 1,198,199
 478 102 478 102 522 95 c 0,200,201
 525 96 525 96 531 98 c 0,202,203
 545 100 545 100 556 95 c 1,204,-1
 561 100 l 1,205,206
 549 103 549 103 537 119 c 0,207,208
 535 119 535 119 531 114.5 c 128,-1,209
 527 110 527 110 524 109 c 0,210,211
 520 108 520 108 493 116 c 1,212,213
 490 124 490 124 491 126 c 256,214,215
 492 128 492 128 495 130 c 0,216,217
 527 136 527 136 530 135 c 2,218,-1
 624 135 l 2,219,220
 627 135 627 135 628.5 133 c 128,-1,221
 630 131 630 131 633 131 c 2,222,-1
 689 131 l 2,223,224
 730 131 730 131 780 150 c 0,225,226
 795 155 795 155 801 167 c 0,227,228
 802 175 802 175 806 191 c 0,229,230
 809 200 809 200 819 198 c 0,231,232
 830 197 830 197 831 190 c 1,233,234
 835 204 835 204 846 227 c 1,235,236
 863 248 863 248 896 290 c 0,237,238
 897 297 897 297 903 310 c 0,239,240
 904 310 904 310 907 312 c 1,241,242
 906 312 906 312 922 309 c 0,243,244
 926 310 926 310 934 310 c 0,245,246
 944 308 944 308 944 300 c 0,0,1
EndSplineSet
EndChar

StartChar: three
Encoding: 51 51 7
Width: 1034
GlyphClass: 1
Flags: W
LayerCount: 2
Fore
SplineSet
779 217 m 2,0,1
 779 215 779 215 777 202.5 c 128,-1,2
 775 190 775 190 775 183 c 0,3,4
 773 180 773 180 770 175 c 1,5,6
 776 164 776 164 767 143 c 1,7,8
 757 132 757 132 740 107 c 0,9,10
 736 96 736 96 724 73 c 0,11,12
 719 65 719 65 700 45 c 0,13,14
 687 28 687 28 655 -2 c 0,15,16
 651 -10 651 -10 641 -21 c 0,17,18
 634 -25 634 -25 623 -22 c 0,19,20
 621 -23 621 -23 620 -24 c 0,21,22
 622 -30 622 -30 616 -43 c 1,23,24
 604 -50 604 -50 575 -66 c 0,25,26
 573 -70 573 -70 567 -75 c 0,27,28
 554 -78 554 -78 531 -84 c 0,29,30
 502 -95 502 -95 479 -108 c 1,31,32
 472 -117 472 -117 455 -131 c 0,33,34
 454 -132 454 -132 415 -142 c 0,35,36
 406 -147 406 -147 387 -155 c 1,37,38
 376 -155 376 -155 357 -156 c 0,39,40
 335 -159 335 -159 295 -172 c 0,41,42
 284 -179 284 -179 261 -189 c 0,43,44
 240 -195 240 -195 224 -185 c 0,45,46
 217 -180 217 -180 206 -155 c 0,47,48
 203 -147 203 -147 209 -141.5 c 128,-1,49
 215 -136 215 -136 231 -130 c 1,50,51
 248 -128 248 -128 280 -119 c 0,52,53
 369 -86 369 -86 380 -87 c 1,54,55
 395 -79 395 -79 422 -63 c 0,56,57
 431 -57 431 -57 442 -47 c 2,58,59
 442 -47 442 -47 488 -15 c 0,60,61
 498 -8 498 -8 550 50 c 1,62,63
 567 62 567 62 585 89 c 1,64,65
 584 97 584 97 586 114 c 1,66,67
 593 122 593 122 601 138 c 0,68,69
 606 158 606 158 606 166 c 2,70,-1
 606 215 l 1,71,72
 606 214 606 214 608.5 225.5 c 128,-1,73
 611 237 611 237 613 261 c 1,74,75
 606 277 606 277 593 307 c 1,76,77
 571 332 571 332 526 387 c 0,78,79
 522 392 522 392 521 409 c 1,80,81
 511 417 511 417 500 422 c 0,82,83
 493 423 493 423 480 425 c 1,84,85
 475 430 475 430 462 440 c 0,86,87
 457 440 457 440 448 443 c 1,88,89
 443 449 443 449 430 458 c 0,90,91
 424 460 424 460 391 478 c 1,92,93
 382 476 382 476 363 472 c 0,94,95
 356 467 356 467 343 461 c 1,96,97
 332 461 332 461 311 458 c 1,98,99
 303 450 303 450 283 441 c 0,100,101
 272 438 272 438 255 458 c 128,-1,102
 238 478 238 478 238 492 c 0,103,104
 238 502 238 502 249 502 c 0,105,106
 254 502 254 502 259 501 c 0,107,108
 276 515 276 515 312 539 c 1,109,110
 324 542 324 542 346 549 c 1,111,112
 358 562 358 562 380 584 c 1,113,114
 388 582 388 582 400 583 c 1,115,116
 419 594 419 594 454 615 c 1,117,118
 464 630 464 630 502 647 c 0,119,120
 506 650 506 650 508 653 c 0,121,122
 515 659 515 659 522 658 c 1,123,-1
 526 661 l 1,124,125
 518 669 518 669 518 678 c 1,126,127
 548 704 548 704 561 724 c 0,128,129
 563 732 563 732 566 748 c 1,130,131
 573 758 573 758 581 781 c 1,132,133
 583 829 583 829 575 869 c 0,134,135
 574 874 574 874 566 888 c 128,-1,136
 558 902 558 902 558 909 c 256,137,138
 558 916 558 916 564 921 c 1,139,140
 558 924 558 924 546 929 c 0,141,142
 543 934 543 934 535 945 c 0,143,144
 528 952 528 952 516 960 c 0,145,146
 481 983 481 983 457 983 c 1,147,148
 441 979 441 979 409 973 c 0,149,150
 404 974 404 974 393 974 c 1,151,152
 388 970 388 970 379 965 c 0,153,154
 358 960 358 960 315 948 c 1,155,156
 305 941 305 941 285 929 c 0,157,158
 276 925 276 925 259 931.5 c 128,-1,159
 242 938 242 938 238 953 c 0,160,161
 231 983 231 983 298 1012 c 0,162,163
 311 1014 311 1014 334 1021 c 0,164,165
 345 1028 345 1028 366 1041 c 0,166,167
 376 1046 376 1046 412 1063 c 1,168,169
 420 1060 420 1060 434 1066 c 1,170,-1
 498 1066 l 2,171,172
 511 1069 511 1069 535 1074 c 1,173,174
 543 1067 543 1067 543 1054 c 1,175,176
 547 1058 547 1058 554 1062 c 0,177,178
 556 1062 556 1062 591 1057 c 0,179,180
 639 1050 639 1050 663 1031 c 1,181,182
 673 1017 673 1017 699 987 c 0,183,184
 705 986 705 986 713 983 c 1,185,186
 727 967 727 967 741 936 c 0,187,188
 751 911 751 911 747 901 c 0,189,190
 742 892 742 892 741 879 c 128,-1,191
 740 866 740 866 738 840 c 0,192,193
 740 837 740 837 743 832 c 0,194,195
 743 791 743 791 710 759 c 1,196,197
 702 745 702 745 687 719 c 0,198,199
 685 717 685 717 663 697 c 1,200,201
 664 692 664 692 627 666 c 0,202,203
 616 655 616 655 595 637 c 1,204,205
 569 621 569 621 518 589 c 1,206,207
 537 581 537 581 563 572 c 0,208,209
 569 569 569 569 596 549 c 0,210,211
 635 521 635 521 656 500 c 0,212,213
 658 499 658 499 669 482 c 0,214,215
 672 476 672 476 667.5 471.5 c 128,-1,216
 663 467 663 467 651 466 c 0,217,218
 649 463 649 463 644 457 c 0,219,220
 640 456 640 456 633 454 c 1,221,222
 631 444 631 444 612 429 c 1,223,224
 621 426 621 426 632.5 433 c 128,-1,225
 644 440 644 440 644 450 c 1,226,227
 666 450 666 450 670 456 c 1,228,229
 675 453 675 453 685 449 c 0,230,231
 693 447 693 447 707 450 c 0,232,233
 709 447 709 447 724 434 c 0,234,235
 732 427 732 427 728 421 c 1,236,237
 733 419 733 419 741 412 c 1,238,239
 745 398 745 398 756 370 c 1,240,241
 765 360 765 360 777 329 c 0,242,243
 779 315 779 315 779 304 c 2,244,-1
 779 217 l 2,0,1
EndSplineSet
EndChar

StartChar: four
Encoding: 52 52 8
Width: 1034
GlyphClass: 1
Flags: W
LayerCount: 2
Fore
SplineSet
974 405 m 0,0,1
 972 402 972 402 963 370 c 0,2,3
 961 361 961 361 955 342 c 0,4,5
 953 336 953 336 932 310 c 0,6,7
 933 307 933 307 940 305 c 1,8,9
 935 280 935 280 917 233 c 0,10,11
 907 216 907 216 873 225 c 0,12,13
 861 229 861 229 837 234 c 1,14,15
 851 233 851 233 810 233 c 2,16,-1
 752 233 l 2,17,18
 710 233 710 233 720 236 c 1,19,20
 716 235 716 235 709 227 c 1,21,22
 711 209 711 209 711 178 c 2,23,-1
 711 73 l 2,24,25
 712 70 712 70 714 65 c 0,26,27
 717 43 717 43 714 25 c 0,28,29
 703 -54 703 -54 711 -77 c 0,30,31
 713 -80 713 -80 722 -90 c 128,-1,32
 731 -100 731 -100 728 -106 c 0,33,34
 724 -117 724 -117 718 -120 c 0,35,36
 703 -128 703 -128 674 -143 c 0,37,38
 669 -143 669 -143 660 -144 c 0,39,40
 610 -156 610 -156 572 -189 c 0,41,42
 570 -194 570 -194 565 -203 c 0,43,44
 532 -244 532 -244 513 -237 c 0,45,46
 502 -233 502 -233 491 -221 c 0,47,48
 489 -213 489 -213 493 -208 c 0,49,50
 495 -206 495 -206 501 -202 c 0,51,52
 508 -193 508 -193 517 -176 c 0,53,54
 519 -170 519 -170 523 -158 c 0,55,56
 528 -151 528 -151 537 -138 c 0,57,58
 537 -131 537 -131 539 -116 c 0,59,60
 541 -112 541 -112 543 -106 c 0,61,62
 546 -93 546 -93 551 -67 c 0,63,64
 554 -64 554 -64 557 -56 c 0,65,66
 558 -34 558 -34 563 9 c 0,67,68
 566 32 566 32 568 25 c 1,69,70
 564 49 564 49 563 45 c 1,71,72
 566 48 566 48 570 55 c 0,73,74
 573 68 573 68 568 85 c 0,75,76
 547 146 547 146 570 182 c 0,77,78
 573 188 573 188 568 203 c 0,79,80
 566 205 566 205 564 208.5 c 128,-1,81
 562 212 562 212 562 231 c 1,82,83
 554 235 554 235 543 236 c 0,84,85
 519 238 519 238 487 238 c 0,86,87
 482 238 482 238 477 229 c 1,88,89
 467 230 467 230 447 230 c 0,90,91
 444 228 444 228 439 225 c 0,92,93
 428 226 428 226 408 225 c 1,94,95
 407 230 407 230 404 232 c 0,96,97
 397 235 397 235 380 239 c 0,98,99
 378 239 378 239 374 236.5 c 128,-1,100
 370 234 370 234 368 233 c 0,101,102
 332 229 332 229 334 229 c 1,103,-1
 252 229 l 2,104,105
 237 227 237 227 153 220 c 0,106,107
 144 217 144 217 127 213 c 0,108,109
 98 210 98 210 59 216 c 0,110,111
 40 216 40 216 14 229 c 1,112,113
 3 249 3 249 21 269 c 0,114,115
 22 276 22 276 28 291 c 1,116,117
 38 298 38 298 56 311 c 0,118,119
 62 317 62 317 97 354 c 0,120,121
 102 362 102 362 112 373 c 0,122,123
 126 382 126 382 150 403 c 1,124,125
 159 417 159 417 179 441 c 0,126,127
 182 444 182 444 195 444 c 1,128,129
 199 451 199 451 207 465 c 0,130,131
 229 500 229 500 261 527 c 0,132,133
 265 531 265 531 286 537 c 0,134,135
 288 540 288 540 294 546 c 1,136,137
 293 551 293 551 293 562 c 1,138,139
 312 584 312 584 347 628 c 0,140,141
 351 636 351 636 360 649 c 0,142,143
 379 667 379 667 414 703 c 0,144,145
 442 735 442 735 491 793 c 1,146,147
 498 808 498 808 515 835 c 1,148,149
 532 854 532 854 564 892 c 1,150,151
 577 914 577 914 601 954 c 0,152,153
 615 970 615 970 640 1002 c 0,154,155
 644 1013 644 1013 662 1040 c 0,156,157
 673 1056 673 1056 695 1082 c 1,158,159
 692 1079 692 1079 710 1079 c 0,160,161
 713 1079 713 1079 719 1081 c 128,-1,162
 725 1083 725 1083 728 1082 c 0,163,164
 735 1078 735 1078 736 1072 c 0,165,166
 732 1047 732 1047 736 1039 c 0,167,168
 740 944 740 944 740 955 c 1,169,170
 738 919 738 919 733 899 c 1,171,-1
 733 804 l 2,172,173
 733 788 733 788 715 790 c 1,174,175
 715 786 715 786 714 773 c 128,-1,176
 713 760 713 760 713 753 c 0,177,178
 715 751 715 751 718.5 746.5 c 128,-1,179
 722 742 722 742 720 730 c 0,180,181
 713 660 713 660 714 646 c 0,182,183
 717 641 717 641 720 632 c 0,184,185
 721 627 721 627 714 555 c 0,186,187
 715 531 715 531 714 483 c 0,188,189
 711 458 711 458 703 409 c 1,190,191
 703 409 703 409 710 379 c 0,192,193
 709 368 709 368 707 345 c 1,194,195
 716 336 716 336 746 343 c 0,196,197
 766 347 766 347 804 348 c 0,198,199
 807 349 807 349 812 351 c 0,200,201
 847 349 847 349 872 364 c 0,202,203
 889 378 889 378 920 407 c 0,204,205
 925 408 925 408 931 406 c 1,206,207
 933 423 933 423 954 426 c 1,208,209
 959 420 959 420 974 405 c 0,0,1
627 336 m 1,210,211
 619 339 619 339 606 343 c 0,212,213
 599 342 599 342 590 342 c 1,214,215
 580 347 580 347 564 357 c 0,216,217
 561 360 561 360 561 368 c 0,218,219
 561 382 561 382 566 419 c 0,220,221
 571 464 571 464 570 481 c 0,222,223
 568 499 568 499 567 495 c 1,224,225
 568 499 568 499 574 505 c 1,226,227
 573 506 573 506 572 507 c 0,228,229
 562 516 562 516 565 520 c 0,230,231
 570 528 570 528 570 529 c 2,232,-1
 570 602 l 2,233,234
 570 634 570 634 572 648 c 1,235,236
 558 673 558 673 558 668 c 1,237,-1
 558 720 l 1,238,239
 558 708 558 708 565 742 c 0,240,241
 568 751 568 751 561 783 c 1,242,243
 544 766 544 766 513 729 c 0,244,245
 495 711 495 711 464 677 c 0,246,247
 442 648 442 648 398 594 c 1,248,249
 377 575 377 575 348 546 c 0,250,251
 335 530 335 530 300 473 c 0,252,253
 294 462 294 462 283 468 c 1,254,255
 289 459 289 459 268 435 c 0,256,257
 255 418 255 418 225 384 c 1,258,259
 217 381 217 381 205 372 c 0,260,261
 200 365 200 365 188 350 c 1,262,263
 226 345 226 345 234 346 c 0,264,265
 270 349 270 349 265 351 c 1,266,267
 284 343 284 343 290 343 c 2,268,-1
 465 343 l 2,269,270
 535 343 535 343 561 341 c 0,271,272
 563 340 563 340 567 338 c 0,273,274
 579 339 579 339 598 338 c 0,275,276
 622 336 622 336 627 336 c 1,210,211
EndSplineSet
EndChar

StartChar: five
Encoding: 53 53 9
Width: 1034
GlyphClass: 1
Flags: W
LayerCount: 2
Fore
SplineSet
837 1085 m 0,0,1
 830 1060 830 1060 812 1013 c 0,2,3
 809 1006 809 1006 788 942 c 0,4,5
 782 936 782 936 769 923 c 1,6,7
 763 906 763 906 739 884 c 1,8,9
 725 880 725 880 698 884 c 0,10,11
 654 891 654 891 626 889 c 0,12,13
 608 888 608 888 591 888 c 0,14,15
 588 891 588 891 583 895 c 0,16,17
 575 903 575 903 563 899 c 0,18,19
 545 893 545 893 514 900 c 0,20,21
 506 902 506 902 477 896 c 0,22,23
 469 895 469 895 452 899 c 1,24,25
 455 898 455 898 434 896 c 0,26,27
 425 898 425 898 406 899 c 0,28,29
 394 897 394 897 383 870 c 0,30,31
 374 852 374 852 358 815 c 0,32,33
 358 806 358 806 357 788 c 0,34,35
 351 764 351 764 325 708 c 0,36,37
 324 701 324 701 320 688 c 1,38,39
 320 688 320 688 294 678 c 1,40,41
 298 673 298 673 302.5 667 c 128,-1,42
 307 661 307 661 313 665 c 0,43,44
 321 677 321 677 328 682 c 1,45,46
 345 682 345 682 379 680 c 0,47,48
 399 680 399 680 445 670 c 0,49,50
 449 667 449 667 457 663 c 1,51,52
 467 664 467 664 486 662 c 1,53,54
 502 649 502 649 534 635 c 0,55,56
 536 635 536 635 604 602 c 0,57,58
 609 602 609 602 618 601 c 0,59,60
 631 599 631 599 641 588 c 0,61,62
 660 566 660 566 701 524 c 0,63,64
 706 523 706 523 715 519 c 0,65,66
 725 512 725 512 729 505 c 0,67,68
 736 493 736 493 736.5 487.5 c 128,-1,69
 737 482 737 482 738 474 c 1,70,71
 747 464 747 464 759 443 c 1,72,73
 760 433 760 433 763 413 c 0,74,75
 767 399 767 399 774 372 c 0,76,77
 775 368 775 368 765 308 c 1,78,79
 765 282 765 282 753 228 c 0,80,81
 752 216 752 216 747 191 c 1,82,83
 740 181 740 181 730 159 c 1,84,85
 730 149 730 149 727 128 c 1,86,87
 722 122 722 122 716 110 c 0,88,89
 715 102 715 102 714 87 c 1,90,91
 695 67 695 67 684 46 c 0,92,93
 679 45 679 45 672 41 c 0,94,95
 662 32 662 32 643 16 c 0,96,97
 640 12 640 12 635 3 c 0,98,99
 605 -35 605 -35 592 -40 c 0,100,101
 587 -39 587 -39 580 -40 c 1,102,103
 574 -47 574 -47 559 -58 c 0,104,105
 526 -79 526 -79 496 -93 c 0,106,107
 492 -93 492 -93 484 -94 c 0,108,109
 460 -109 460 -109 418 -132 c 1,110,111
 389 -141 389 -141 332 -164 c 0,112,113
 324 -169 324 -169 308 -177 c 1,114,115
 298 -177 298 -177 279 -178 c 0,116,117
 256 -181 256 -181 224 -193 c 0,118,119
 204 -200 204 -200 166 -195 c 1,120,121
 154 -186 154 -186 156 -154 c 1,122,123
 169 -144 169 -144 236 -127 c 0,124,125
 249 -126 249 -126 276 -120 c 1,126,127
 290 -111 290 -111 315 -98 c 1,128,129
 328 -96 328 -96 352 -87 c 1,130,131
 363 -77 363 -77 385 -62 c 1,132,133
 396 -61 396 -61 420 -56 c 1,134,135
 429 -44 429 -44 446 -22 c 1,136,137
 462 -11 462 -11 491 9 c 0,138,139
 517 28 517 28 535 55 c 0,140,141
 535 62 535 62 538 74 c 1,142,143
 549 84 549 84 570 108 c 0,144,145
 574 116 574 116 598 179 c 0,146,147
 600 180 600 180 607 188 c 0,148,149
 609 189 609 189 624 194 c 1,150,151
 619 192 619 192 646 192 c 0,152,153
 647 193 647 193 650 196 c 1,154,155
 643 198 643 198 632 200 c 0,156,157
 627 199 627 199 618 197 c 0,158,159
 614 199 614 199 608 205 c 0,160,161
 607 206 607 206 607 216 c 0,162,163
 607 222 607 222 606 236.5 c 128,-1,164
 605 251 605 251 605 259 c 0,165,166
 607 281 607 281 601 322 c 0,167,168
 600 326 600 326 595 353 c 0,169,170
 595 362 595 362 592 382 c 0,171,172
 591 385 591 385 571 408 c 0,173,174
 568 411 568 411 555 430 c 0,175,176
 550 436 550 436 553 449 c 1,177,178
 539 464 539 464 500 478 c 0,179,180
 458 492 458 492 438 510 c 1,181,182
 434 508 434 508 421 514.5 c 128,-1,183
 408 521 408 521 405 521 c 0,184,185
 390 520 390 520 360 522 c 1,186,187
 315 532 315 532 283 529 c 0,188,189
 254 526 254 526 226 519 c 0,190,191
 213 519 213 519 205 528 c 0,192,193
 193 542 193 542 201 566 c 0,194,195
 207 578 207 578 216 601 c 1,196,197
 215 610 215 610 217 629 c 1,198,199
 223 637 223 637 230 654 c 0,200,201
 238 686 238 686 250 715 c 0,202,203
 256 723 256 723 265 740 c 0,204,205
 284 798 284 798 324 914 c 0,206,207
 325 925 325 925 327.5 945.5 c 128,-1,208
 330 966 330 966 344 997 c 0,209,210
 350 1012 350 1012 372 1026 c 1,211,212
 372 1025 372 1025 395 1025 c 2,213,-1
 475 1025 l 1,214,215
 475 1025 475 1025 499.5 1030 c 128,-1,216
 524 1035 524 1035 532 1034 c 0,217,218
 569 1031 569 1031 588 1031 c 1,219,220
 598 1027 598 1027 598 1027 c 1,221,-1
 696 1027 l 2,222,223
 697 1027 697 1027 706 1024.5 c 128,-1,224
 715 1022 715 1022 720 1023 c 0,225,226
 732 1025 732 1025 756 1053 c 0,227,228
 757 1057 757 1057 762 1066.5 c 128,-1,229
 767 1076 767 1076 783 1076 c 1,230,231
 792 1094 792 1094 808 1094 c 0,232,233
 821 1094 821 1094 833 1094 c 1,234,235
 834 1089 834 1089 837 1085 c 0,0,1
EndSplineSet
EndChar

StartChar: six
Encoding: 54 54 10
Width: 1034
GlyphClass: 1
Flags: W
LayerCount: 2
Fore
SplineSet
929 424 m 1,0,1
 929 425 929 425 922 348 c 0,2,3
 923 336 923 336 921 312 c 0,4,5
 915 285 915 285 899 232 c 0,6,7
 878 177 878 177 854 142 c 1,8,-1
 854 140 l 1,9,10
 860 145 860 145 863 145 c 1,11,12
 861 141 861 141 857 132 c 1,13,14
 857 120 857 120 842 98 c 0,15,16
 839 97 839 97 832 94 c 0,17,18
 825 88 825 88 814 77 c 1,19,20
 808 77 808 77 797 72 c 1,21,22
 776 50 776 50 734 10 c 1,23,24
 717 9 717 9 689 4 c 0,25,26
 682 3 682 3 646 -12 c 0,27,28
 616 -23 616 -23 601 -23 c 2,29,-1
 481 -23 l 1,30,31
 485 -23 485 -23 464 -18 c 0,32,33
 456 -15 456 -15 440 -12 c 0,34,35
 439 -12 439 -12 416 -15 c 0,36,37
 407 -16 407 -16 401 -13 c 0,38,39
 391 -9 391 -9 374 0 c 1,40,41
 358 14 358 14 323 39 c 1,42,43
 283 62 283 62 254 89 c 0,44,45
 246 101 246 101 228 124 c 0,46,47
 220 129 220 129 207 142 c 1,48,49
 202 159 202 159 190 191 c 1,50,51
 179 205 179 205 158 234 c 1,52,53
 156 247 156 247 149 269 c 0,54,55
 146 275 146 275 135.5 289.5 c 128,-1,56
 125 304 125 304 125 306 c 2,57,-1
 125 377 l 1,58,59
 125 375 125 375 127 402 c 0,60,61
 129 426 129 426 128 434 c 0,62,63
 125 443 125 443 122 461 c 0,64,65
 121 486 121 486 126 536 c 0,66,67
 126 543 126 543 133.5 563 c 128,-1,68
 141 583 141 583 141 585 c 2,69,-1
 141 636 l 2,70,71
 141 638 141 638 153 662 c 128,-1,72
 165 686 165 686 168 698 c 0,73,74
 171 700 171 700 175 704 c 0,75,76
 176 711 176 711 179 724 c 0,77,78
 183 730 183 730 192 742 c 1,79,80
 175 747 175 747 187 769 c 0,81,82
 225 837 225 837 250 871 c 1,83,84
 288 911 288 911 352 989 c 1,85,86
 360 992 360 992 373 1005 c 1,87,88
 374 1012 374 1012 378 1024 c 1,89,90
 392 1031 392 1031 411 1043 c 0,91,92
 417 1051 417 1051 431 1066 c 0,93,94
 450 1082 450 1082 490 1113 c 0,95,96
 497 1118 497 1118 523 1127 c 0,97,98
 529 1132 529 1132 540.5 1140.5 c 128,-1,99
 552 1149 552 1149 578 1168 c 0,100,101
 581 1168 581 1168 588 1171 c 0,102,103
 598 1181 598 1181 619 1197 c 1,104,105
 653 1213 653 1213 674 1217 c 0,106,107
 697 1225 697 1225 745 1241 c 0,108,109
 767 1249 767 1249 772 1229 c 0,110,111
 774 1222 774 1222 770 1216 c 0,112,113
 763 1206 763 1206 756 1202 c 0,114,115
 744 1193 744 1193 715 1178 c 0,116,117
 705 1176 705 1176 685 1170 c 0,118,119
 665 1161 665 1161 649 1143 c 0,120,121
 648 1136 648 1136 642 1126 c 1,122,123
 589 1089 589 1089 563 1076 c 0,124,125
 558 1074 558 1074 548 1070 c 1,126,127
 540 1058 540 1058 526 1039 c 0,128,129
 506 1019 506 1019 470 978 c 0,130,131
 469 973 469 973 464 965 c 0,132,133
 454 957 454 957 437 939 c 0,134,135
 416 911 416 911 386 862 c 1,136,137
 381 836 381 836 369 792 c 1,138,139
 355 775 355 775 335 736 c 1,140,141
 331 689 331 689 318 597 c 0,142,143
 302 507 302 507 302 528 c 1,144,-1
 302 473 l 2,145,146
 302 470 302 470 306.5 441.5 c 128,-1,147
 311 413 311 413 311 410 c 2,148,-1
 311 356 l 2,149,150
 311 338 311 338 323 310 c 0,151,152
 338 279 338 279 336 277 c 0,153,154
 339 259 339 259 334 254 c 0,155,156
 331 253 331 253 326 252 c 0,157,158
 324 253 324 253 309 261 c 1,159,160
 296 263 296 263 277 278 c 1,161,162
 267 272 267 272 256 272 c 0,163,164
 248 272 248 272 206 291 c 1,165,-1
 203 287 l 1,166,167
 236 262 236 262 269 249 c 1,168,169
 284 251 284 251 283 251 c 1,170,171
 295 244 295 244 320 234 c 0,172,173
 332 232 332 232 356 226 c 1,174,175
 367 206 367 206 376 194 c 1,176,177
 387 186 387 186 405 168 c 1,178,179
 408 155 408 155 419 135 c 1,180,181
 436 125 436 125 467 100 c 0,182,183
 484 89 484 89 518 65 c 0,184,185
 524 60 524 60 536 53 c 0,186,187
 544 50 544 50 558 49 c 0,188,189
 559 49 559 49 570 44.5 c 128,-1,190
 581 40 581 40 586 43 c 1,191,192
 612 32 612 32 653 53 c 1,193,194
 665 53 665 53 688 61 c 0,195,196
 692 66 692 66 702 77 c 0,197,198
 723 94 723 94 743 111 c 0,199,200
 770 135 770 135 772 155 c 0,201,202
 773 161 773 161 782 192 c 0,203,204
 789 214 789 214 785 228 c 1,205,-1
 785 320 l 2,206,207
 785 329 785 329 783 344 c 1,208,209
 775 356 775 356 766 381 c 1,210,211
 766 398 766 398 760 430 c 1,212,213
 739 466 739 466 703 525 c 0,214,215
 698 534 698 534 690 538 c 128,-1,216
 682 542 682 542 671.5 549 c 128,-1,217
 661 556 661 556 643 569 c 1,218,219
 633 570 633 570 617 577 c 1,220,221
 613 585 613 585 602 598 c 1,222,223
 583 611 583 611 544 604 c 0,224,225
 529 598 529 598 497 589 c 0,226,227
 470 585 470 585 416 575 c 0,228,229
 405 569 405 569 377 553 c 1,230,231
 350 580 350 580 360 592 c 0,232,233
 362 593 362 593 421 635 c 0,234,235
 426 642 426 642 437 652 c 1,236,237
 453 657 453 657 484 668 c 1,238,239
 498 678 498 678 525 693 c 0,240,241
 533 696 533 696 574 698 c 0,242,243
 666 702 666 702 654 703 c 1,244,245
 660 702 660 702 701 699 c 1,246,247
 716 691 716 691 736 680 c 0,248,249
 741 680 741 680 752 679 c 1,250,251
 761 674 761 674 781 667 c 1,252,253
 789 657 789 657 852 598 c 0,254,255
 851 594 851 594 853 588 c 0,256,257
 865 577 865 577 884 559 c 1,258,259
 885 543 885 543 890 514 c 1,260,261
 898 502 898 502 911 477 c 0,262,263
 919 460 919 460 929 424 c 1,0,1
853 139 m 1,264,-1
 850 140 l 1,265,-1
 844 129 l 1,266,-1
 847 127 l 1,267,-1
 853 139 l 1,264,-1
EndSplineSet
EndChar

StartChar: seven
Encoding: 55 55 11
Width: 1034
GlyphClass: 1
Flags: W
LayerCount: 2
Fore
SplineSet
963 990 m 0,0,1
 952 981 952 981 931 961 c 1,2,3
 926 950 926 950 914 927 c 1,4,5
 906 921 906 921 895 908 c 0,6,7
 894 907 894 907 895 894 c 0,8,9
 892 884 892 884 885 863 c 1,10,11
 871 848 871 848 843 816 c 0,12,13
 828 796 828 796 791 721 c 0,14,15
 779 704 779 704 762 668 c 1,16,17
 747 617 747 617 730 582 c 1,18,19
 708 548 708 548 664 478 c 0,20,21
 654 461 654 461 642 423 c 0,22,23
 641 415 641 415 638 402 c 0,24,25
 585 271 585 271 536 190 c 1,26,27
 530 172 530 172 520 137 c 1,28,29
 511 126 511 126 495 100 c 1,30,31
 480 62 480 62 453 -8 c 0,32,33
 441 -28 441 -28 421 -69 c 1,34,35
 418 -88 418 -88 409 -128 c 0,36,37
 402 -143 402 -143 391 -175 c 128,-1,38
 380 -207 380 -207 361 -218 c 0,39,40
 356 -220 356 -220 339 -217 c 1,41,42
 331 -226 331 -226 309 -228 c 0,43,44
 306 -227 306 -227 301 -225 c 0,45,46
 286 -223 286 -223 267 -231 c 0,47,48
 261 -237 261 -237 249 -244 c 0,49,50
 239 -246 239 -246 226 -222 c 0,51,52
 208 -187 208 -187 211 -178 c 0,53,54
 212 -177 212 -177 235 -145 c 0,55,56
 236 -138 236 -138 241.5 -123 c 128,-1,57
 247 -108 247 -108 262 -80 c 1,58,59
 280 -56 280 -56 312 -9 c 0,60,61
 322 11 322 11 347 52 c 0,62,63
 347 56 347 56 349.5 62 c 128,-1,64
 352 68 352 68 359 79 c 0,65,66
 362 86 362 86 367 101 c 1,67,68
 372 103 372 103 380 110 c 1,69,70
 385 120 385 120 401 144 c 0,71,72
 414 157 414 157 424 177 c 0,73,74
 426 184 426 184 430 197 c 0,75,76
 453 253 453 253 505 362 c 0,77,78
 516 378 516 378 537 409 c 0,79,80
 540 419 540 419 546 436 c 1,81,82
 553 442 553 442 561 456 c 1,83,84
 565 476 565 476 584 506 c 0,85,86
 606 541 606 541 610 550 c 0,87,88
 611 559 611 559 615 579 c 0,89,90
 617 583 617 583 671 667 c 0,91,92
 680 681 680 681 732 795 c 0,93,94
 739 806 739 806 753 828 c 1,95,96
 760 847 760 847 776 884 c 1,97,98
 737 889 737 889 730 889 c 2,99,-1
 667 889 l 2,100,101
 664 889 664 889 658 893 c 0,102,103
 625 894 625 894 598 891 c 0,104,105
 596 890 596 890 589 887.5 c 128,-1,106
 582 885 582 885 579 885 c 2,107,-1
 502 885 l 2,108,109
 407 885 407 885 424 889 c 1,110,111
 381 880 381 880 371 882 c 0,112,113
 368 884 368 884 362 887 c 0,114,115
 343 889 343 889 310 878 c 0,116,117
 274 867 274 867 259 867 c 0,118,119
 221 867 221 867 229 870 c 1,120,121
 218 864 218 864 196 851 c 0,122,123
 184 848 184 848 161 840 c 1,124,125
 159 835 159 835 153 828 c 128,-1,126
 147 821 147 821 138 810 c 0,127,128
 136 804 136 804 130 792 c 0,129,130
 101 755 101 755 69 788 c 0,131,132
 66 793 66 793 69 799 c 0,133,134
 80 827 80 827 132 944 c 0,135,136
 140 953 140 953 151 974 c 0,137,138
 155 989 155 989 164 1021 c 0,139,140
 168 1025 168 1025 173 1034 c 0,141,142
 173 1041 173 1041 175 1054 c 1,143,144
 181 1061 181 1061 189 1074 c 1,145,146
 207 1086 207 1086 220 1074 c 0,147,148
 234 1064 234 1064 247.5 1054 c 128,-1,149
 261 1044 261 1044 257 1030 c 1,150,151
 262 1030 262 1030 271.5 1028 c 128,-1,152
 281 1026 281 1026 283 1026 c 2,153,-1
 354 1026 l 2,154,155
 357 1026 357 1026 362 1029 c 0,156,157
 376 1031 376 1031 406 1029 c 0,158,159
 411 1026 411 1026 414 1026 c 2,160,-1
 483 1026 l 2,161,162
 485 1026 485 1026 489 1028 c 128,-1,163
 493 1030 493 1030 496 1030 c 2,164,-1
 571 1030 l 2,165,166
 573 1030 573 1030 575 1032 c 128,-1,167
 577 1034 577 1034 579 1034 c 2,168,-1
 630 1034 l 1,169,170
 620 1034 620 1034 640 1029 c 0,171,172
 665 1022 665 1022 673 1022 c 2,173,-1
 773 1022 l 1,174,175
 808 1026 808 1026 881 1035 c 0,176,177
 890 1034 890 1034 907 1035 c 0,178,179
 920 1039 920 1039 943 1044 c 1,180,181
 968 1019 968 1019 968 1005 c 0,182,183
 968 997 968 997 963 990 c 0,0,1
EndSplineSet
EndChar

StartChar: eight
Encoding: 56 56 12
Width: 1034
GlyphClass: 1
Flags: W
LayerCount: 2
Fore
SplineSet
904 217 m 2,0,1
 904 211 904 211 893 190 c 0,2,3
 890 185 890 185 867 148 c 1,4,5
 857 140 857 140 840 122 c 1,6,7
 832 100 832 100 797 59 c 1,8,9
 785 55 785 55 760 42 c 1,10,11
 750 32 750 32 726 13 c 0,12,13
 713 5 713 5 682 -5 c 0,14,15
 676 -4 676 -4 665 -4 c 1,16,17
 638 -16 638 -16 532 -29 c 0,18,19
 464 -37 464 -37 455 -36 c 0,20,21
 442 -32 442 -32 417 -25 c 1,22,23
 384 -23 384 -23 333 -7 c 1,24,25
 331 0 331 0 323 10 c 1,26,27
 316 11 316 11 303 15 c 1,28,29
 288 27 288 27 257 46 c 1,30,31
 246 46 246 46 226 53 c 1,32,33
 219 65 219 65 203 85 c 0,34,35
 151 148 151 148 127 201 c 1,36,-1
 127 292 l 2,37,38
 127 295 127 295 131 300 c 1,39,40
 129 314 129 314 132 341 c 0,41,42
 136 358 136 358 141 374 c 0,43,44
 148 396 148 396 159 397 c 1,45,46
 160 419 160 419 185 460 c 0,47,48
 195 477 195 477 219 498 c 1,49,50
 227 496 227 496 241 499 c 0,51,52
 250 505 250 505 303 560 c 0,53,54
 308 565 308 565 356 591 c 0,55,56
 371 600 371 600 402 617 c 0,57,58
 414 620 414 620 438 629 c 1,59,60
 420 644 420 644 388 666 c 1,61,62
 374 667 374 667 348 677 c 1,63,64
 337 688 337 688 313 708 c 0,65,66
 279 732 279 732 277 746 c 0,67,68
 276 755 276 755 279 760 c 1,69,70
 269 758 269 758 255 770 c 1,71,72
 250 786 250 786 238 818 c 0,73,74
 204 890 204 890 204 889 c 1,75,-1
 204 947 l 2,76,77
 204 948 204 948 196 974 c 0,78,79
 194 982 194 982 194 991 c 0,80,81
 194 1009 194 1009 206 1036 c 0,82,83
 222 1075 222 1075 225.5 1082.5 c 128,-1,84
 229 1090 229 1090 237 1103 c 128,-1,85
 245 1116 245 1116 251 1136 c 0,86,87
 255 1139 255 1139 262 1148 c 0,88,89
 271 1173 271 1173 320 1214 c 1,90,91
 331 1214 331 1214 354 1220 c 0,92,93
 412 1243 412 1243 441 1248 c 0,94,95
 444 1248 444 1248 455.5 1252.5 c 128,-1,96
 467 1257 467 1257 470 1257 c 2,97,-1
 622 1257 l 2,98,99
 630 1257 630 1257 635.5 1249.5 c 128,-1,100
 641 1242 641 1242 641 1242 c 1,101,102
 659 1233 659 1233 690 1214 c 0,103,104
 708 1202 708 1202 744 1184 c 0,105,106
 757 1180 757 1180 790 1124 c 0,107,108
 799 1115 799 1115 814 1098 c 0,109,110
 817 1094 817 1094 824 1065 c 0,111,112
 829 1059 829 1059 837 1045 c 0,113,114
 848 1010 848 1010 841 980 c 0,115,116
 840 976 840 976 824 943 c 0,117,118
 823 937 823 937 821 925 c 0,119,120
 816 911 816 911 805 853 c 0,121,122
 804 849 804 849 787 830 c 0,123,124
 780 818 780 818 762 796 c 0,125,126
 750 787 750 787 727 767 c 0,127,128
 725 765 725 765 721.5 758.5 c 128,-1,129
 718 752 718 752 715 749 c 0,130,131
 706 738 706 738 686 719 c 0,132,133
 681 716 681 716 657 710 c 0,134,135
 654 709 654 709 636 695 c 1,136,137
 642 689 642 689 653.5 678 c 128,-1,138
 665 667 665 667 672 660 c 0,139,140
 702 638 702 638 763 588 c 0,141,142
 774 577 774 577 798 553 c 0,143,144
 801 546 801 546 808 534 c 0,145,146
 813 532 813 532 821 526 c 1,147,148
 826 517 826 517 836 498 c 0,149,150
 842 493 842 493 853 482 c 1,151,152
 856 473 856 473 862.5 459.5 c 128,-1,153
 869 446 869 446 892 401 c 0,154,155
 897 397 897 397 903 389 c 0,156,157
 919 362 919 362 899 330 c 1,158,159
 904 315 904 315 904 316 c 1,160,-1
 904 217 l 2,0,1
694 924 m 0,161,162
 690 934 690 934 684 952 c 1,163,-1
 684 994 l 1,164,165
 690 1011 690 1011 689 1015 c 0,166,167
 682 1019 682 1019 673 1031 c 1,168,169
 673 1040 673 1040 671 1057 c 0,170,171
 669 1069 669 1069 634 1104 c 0,172,173
 627 1116 627 1116 613 1135 c 1,174,175
 598 1147 598 1147 494 1200 c 0,176,177
 462 1216 462 1216 439 1204 c 0,178,179
 409 1189 409 1189 380 1169 c 0,180,181
 372 1166 372 1166 362 1156 c 1,182,183
 359 1137 359 1137 353 1103 c 1,184,185
 347 1096 347 1096 342 1083 c 0,186,187
 335 1030 335 1030 336 1026 c 0,188,189
 338 1022 338 1022 340 1016 c 0,190,191
 340 1004 340 1004 351 961 c 1,192,193
 348 967 348 967 348 938 c 0,194,195
 348 933 348 933 354 923 c 0,196,197
 371 891 371 891 394 877 c 0,198,199
 400 874 400 874 403 869 c 0,200,201
 409 856 409 856 414 852 c 0,202,203
 424 849 424 849 440 841 c 0,204,205
 449 833 449 833 465 818 c 0,206,207
 477 808 477 808 499 796 c 1,208,209
 526 789 526 789 547 767 c 0,210,211
 548 763 548 763 552 755 c 0,212,213
 573 734 573 734 588 727 c 0,214,215
 597 723 597 723 611 733 c 0,216,217
 643 756 643 756 657 788 c 1,218,219
 656 797 656 797 658 810 c 1,220,221
 672 825 672 825 687 849 c 1,222,223
 695 888 695 888 694 924 c 0,161,162
752 177 m 0,224,225
 747 186 747 186 741 203 c 1,226,-1
 741 290 l 1,227,228
 734 300 734 300 725 318 c 1,229,230
 725 331 725 331 722 355 c 0,231,232
 720 365 720 365 697 397 c 0,233,234
 693 409 693 409 682 425 c 1,235,236
 671 430 671 430 654 442 c 1,237,238
 650 452 650 452 643 468 c 1,239,240
 629 477 629 477 609 491 c 1,241,242
 592 510 592 510 565 538 c 0,243,244
 549 551 549 551 494 582 c 0,245,246
 488 588 488 588 477 595 c 1,247,248
 462 596 462 596 447 589 c 1,249,250
 444 583 444 583 436 576 c 0,251,252
 425 568 425 568 366 521 c 0,253,254
 360 520 360 520 352 516 c 0,255,256
 333 500 333 500 324 478 c 0,257,258
 324 470 324 470 322 458 c 0,259,260
 318 450 318 450 313 437 c 1,261,262
 313 424 313 424 312 403 c 0,263,264
 309 397 309 397 305 387 c 0,265,266
 299 373 299 373 291 348 c 1,267,268
 293 361 293 361 298.5 333.5 c 128,-1,269
 304 306 304 306 310 259 c 0,270,271
 308 250 308 250 307 237 c 0,272,273
 310 216 310 216 330 184 c 0,274,275
 337 177 337 177 347 164 c 0,276,277
 348 160 348 160 352 152 c 0,278,279
 365 140 365 140 385 118 c 1,280,281
 408 83 408 83 425 75 c 0,282,283
 430 74 430 74 438 70 c 0,284,285
 448 61 448 61 463 51 c 1,286,287
 481 50 481 50 516 46 c 1,288,289
 527 39 527 39 546 31 c 0,290,291
 583 22 583 22 633 43 c 1,292,293
 639 50 639 50 651 58 c 0,294,295
 659 60 659 60 669 57 c 1,296,297
 705 100 705 100 724 126 c 0,298,299
 738 144 738 144 745.5 158.5 c 128,-1,300
 753 173 753 173 752 177 c 0,224,225
EndSplineSet
EndChar

StartChar: nine
Encoding: 57 57 13
Width: 1034
GlyphClass: 1
Flags: W
LayerCount: 2
Fore
SplineSet
919 482 m 2,0,1
 917 465 917 465 912 429 c 0,2,3
 907 420 907 420 899 400 c 0,4,5
 896 387 896 387 891 360 c 1,6,7
 877 332 877 332 854 280 c 0,8,9
 852 268 852 268 846 247 c 1,10,11
 838 240 838 240 825 223 c 1,12,13
 823 209 823 209 814 182 c 0,14,15
 806 169 806 169 785 147 c 0,16,17
 734 95 734 95 659 28 c 1,18,19
 638 2 638 2 596 -46 c 0,20,21
 586 -57 586 -57 569 -58 c 0,22,23
 545 -60 545 -60 492 -94 c 1,24,25
 481 -107 481 -107 455 -132 c 1,26,27
 445 -135 445 -135 425 -143 c 0,28,29
 390 -164 390 -164 320 -188 c 0,30,31
 315 -191 315 -191 306 -195 c 0,32,33
 284 -201 284 -201 267 -202 c 0,34,35
 260 -202 260 -202 246.5 -188 c 128,-1,36
 233 -174 233 -174 236 -164 c 1,37,38
 243 -159 243 -159 252 -150 c 0,39,40
 268 -134 268 -134 277 -131 c 0,41,42
 290 -132 290 -132 310 -126 c 1,43,44
 320 -116 320 -116 395 -75 c 1,45,46
 408 -62 408 -62 434 -39 c 0,47,48
 458 -23 458 -23 499 9 c 0,49,50
 511 23 511 23 534 51 c 1,51,52
 550 64 550 64 578 92 c 0,53,54
 635 161 635 161 636 183 c 0,55,56
 636 192 636 192 640 210 c 1,57,58
 648 216 648 216 659 232 c 1,59,60
 661 245 661 245 664 268 c 0,61,62
 667 280 667 280 683 326 c 0,63,64
 687 331 687 331 692 340 c 0,65,66
 697 356 697 356 706 389 c 1,67,68
 705 408 705 408 725 452 c 1,69,-1
 725 504 l 1,70,71
 725 501 725 501 728 521 c 0,72,73
 729 524 729 524 727 530.5 c 128,-1,74
 725 537 725 537 725 539 c 2,75,-1
 725 688 l 1,76,77
 718 701 718 701 705 743 c 1,78,79
 706 755 706 755 704 775 c 1,80,81
 698 785 698 785 687 806 c 0,82,83
 686 815 686 815 683 830 c 1,84,85
 666 851 666 851 640 885 c 1,86,87
 639 893 639 893 631 907 c 0,88,89
 610 930 610 930 573 963 c 0,90,91
 566 969 566 969 550 980 c 1,92,93
 542 980 542 980 526 985 c 1,94,95
 519 992 519 992 506 1002 c 1,96,97
 482 1010 482 1010 454 1010 c 0,98,99
 338 1010 338 1010 283 906 c 0,100,101
 281 895 281 895 278 875 c 0,102,103
 273 866 273 866 267 847 c 0,104,105
 264 822 264 822 253 773 c 0,106,107
 243 738 243 738 251 700 c 0,108,109
 254 689 254 689 259 668 c 0,110,111
 261 637 261 637 267 580 c 0,112,113
 267 579 267 579 270.5 572 c 128,-1,114
 274 565 274 565 274 562 c 0,115,116
 267 557 267 557 258 550 c 0,117,118
 254 545 254 545 243 535 c 0,119,120
 239 536 239 536 231 535 c 0,121,122
 212 531 212 531 214 531 c 1,123,124
 181 532 181 532 189 535 c 1,125,126
 200 520 200 520 239 521 c 0,127,128
 265 522 265 522 265 520 c 1,129,130
 273 529 273 529 287 528 c 0,131,132
 300 527 300 527 306 517 c 0,133,134
 308 508 308 508 316 489 c 1,135,136
 324 482 324 482 343 465 c 0,137,138
 345 459 345 459 350 448 c 1,139,140
 357 443 357 443 368 433 c 0,141,142
 417 383 417 383 423 383 c 2,143,-1
 508 383 l 1,144,145
 516 379 516 379 527 379 c 0,146,147
 553 379 553 379 619 423 c 0,148,149
 627 427 627 427 631 425 c 0,150,151
 651 398 651 398 640 388 c 0,152,153
 573 324 573 324 465 295 c 0,154,155
 460 291 460 291 451 286 c 0,156,157
 427 279 427 279 418 279 c 2,158,-1
 308 279 l 1,159,160
 315 279 315 279 265 290 c 0,161,162
 257 292 257 292 249 300 c 0,163,164
 247 301 247 301 246 306 c 128,-1,165
 245 311 245 311 243 312 c 0,166,167
 231 320 231 320 210 339 c 1,168,169
 206 349 206 349 198 370 c 0,170,171
 195 379 195 379 187 383 c 0,172,173
 181 383 181 383 171 388 c 1,174,175
 163 404 163 404 145 435 c 1,176,177
 136 433 136 433 128 439 c 0,178,179
 127 440 127 440 121 464 c 1,180,181
 114 474 114 474 102 496 c 0,182,183
 102 504 102 504 101 517 c 1,184,185
 96 525 96 525 90 541 c 0,186,187
 84 587 84 587 81 617 c 0,188,189
 80 636 80 636 81 651 c 0,190,191
 82 653 82 653 83.5 657 c 128,-1,192
 85 661 85 661 85 664 c 2,193,-1
 85 769 l 2,194,195
 85 772 85 772 86.5 775 c 128,-1,196
 88 778 88 778 88 780 c 0,197,198
 90 843 90 843 128 854 c 1,199,200
 136 878 136 878 173 930 c 1,201,202
 192 943 192 943 215 964 c 1,203,204
 226 985 226 985 252 999 c 0,205,206
 274 1009 274 1009 295 1020 c 0,207,208
 308 1029 308 1029 334 1047 c 0,209,210
 339 1047 339 1047 346 1050 c 0,211,212
 361 1061 361 1061 377 1057 c 1,213,214
 424 1064 424 1064 504 1064 c 2,215,-1
 593 1064 l 2,216,217
 596 1064 596 1064 606 1057 c 128,-1,218
 616 1050 616 1050 620 1048 c 0,219,220
 642 1045 642 1045 683 1039 c 0,221,222
 695 1037 695 1037 701 1022.5 c 128,-1,223
 707 1008 707 1008 709 1007 c 0,224,225
 720 1002 720 1002 742 986 c 0,226,227
 751 978 751 978 767 962 c 0,228,229
 780 945 780 945 806 915 c 0,230,231
 810 915 810 915 816 909 c 128,-1,232
 822 903 822 903 844 866 c 0,233,234
 853 853 853 853 867 829 c 1,235,236
 869 811 869 811 874 778 c 1,237,238
 882 765 882 765 893 739 c 0,239,240
 893 733 893 733 895 719 c 0,241,242
 898 716 898 716 901 709 c 0,243,244
 905 682 905 682 916 641 c 1,245,-1
 919 482 l 2,0,1
EndSplineSet
EndChar

StartChar: A
Encoding: 65 65 14
Width: 1467
GlyphClass: 1
Flags: W
LayerCount: 2
Fore
SplineSet
1899 -390 m 1,0,1
 1892 -404 1892 -404 1875 -425 c 0,2,3
 1863 -434 1863 -434 1845 -435 c 0,4,5
 1770 -441 1770 -441 1732 -435 c 1,6,7
 1719 -424 1719 -424 1691 -408 c 1,8,9
 1686 -417 1686 -417 1697 -435 c 1,10,11
 1681 -433 1681 -433 1651 -425 c 1,12,13
 1647 -412 1647 -412 1633 -391 c 1,14,15
 1568 -397 1568 -397 1535 -388 c 0,16,17
 1528 -386 1528 -386 1473 -339 c 0,18,19
 1412 -287 1412 -287 1332 -163 c 0,20,21
 1306 -122 1306 -122 1201 63 c 0,22,23
 1186 89 1186 89 1186 112 c 1,24,25
 1222 123 1222 123 1254 107 c 1,26,27
 1268 91 1268 91 1295 71 c 1,28,29
 1298 77 1298 77 1289 110 c 1,30,31
 1287 109 1287 109 1314 109 c 1,32,33
 1322 117 1322 117 1322 128 c 1,34,35
 1258 146 1258 146 1149 157 c 1,36,37
 1098 225 1098 225 1018 340 c 1,38,39
 1015 352 1015 352 1003 375 c 0,40,41
 1001 376 1001 376 976 376 c 2,42,-1
 506 367 l 2,43,44
 475 369 475 369 463 340 c 0,45,46
 435 278 435 278 392 148 c 1,47,48
 369 42 369 42 369 3 c 0,49,50
 369 -22 369 -22 373.5 -43.5 c 128,-1,51
 378 -65 378 -65 451 -111 c 0,52,53
 469 -119 469 -119 498 -133 c 0,54,55
 508 -139 508 -139 508 -163 c 1,56,57
 486 -175 486 -175 469 -177 c 1,58,59
 477 -176 477 -176 370 -170 c 0,60,61
 239 -163 239 -163 220 -166 c 0,62,63
 69 -184 69 -184 30 -172 c 1,64,65
 28 -147 28 -147 35 -141 c 0,66,67
 37 -139 37 -139 91 -97 c 0,68,69
 137 -62 137 -62 164 -5 c 0,70,71
 203 77 203 77 235 154 c 0,72,73
 237 159 237 159 361 525 c 1,74,75
 383 606 383 606 440 765 c 1,76,77
 463 804 463 804 498 887 c 1,78,79
 506 938 506 938 524 1023 c 1,80,81
 541 1056 541 1056 568 1113 c 1,82,83
 583 1156 583 1156 620 1244 c 0,84,85
 633 1271 633 1271 662 1393 c 1,86,87
 608 1422 608 1422 543 1444 c 1,88,89
 540 1478 540 1478 562 1488 c 1,90,91
 672 1481 672 1481 690 1481 c 2,92,-1
 830 1481 l 2,93,94
 876 1481 876 1481 919 1469 c 1,95,96
 926 1456 926 1456 937 1394 c 1,97,98
 943 1386 943 1386 952 1367.5 c 128,-1,99
 961 1349 961 1349 972 1286 c 0,100,101
 978 1238 978 1238 994 1145 c 1,102,103
 1018 1037 1018 1037 1083 845 c 1,104,105
 1102 814 1102 814 1136 737 c 1,106,107
 1149 687 1149 687 1181 591 c 1,108,109
 1347 204 1347 204 1552 -113 c 1,110,111
 1590 -161 1590 -161 1664 -256 c 1,112,113
 1642 -276 1642 -276 1636 -289 c 1,114,115
 1640 -307 1640 -307 1655 -307 c 0,116,117
 1680 -307 1680 -307 1680 -282 c 1,118,119
 1732 -316 1732 -316 1784 -350 c 0,120,121
 1854 -390 1854 -390 1899 -390 c 1,0,1
955 517 m 1,122,-1
 746 1105 l 1,123,124
 701 1020 701 1020 618 850 c 1,125,126
 617 826 617 826 585 742 c 1,127,128
 585 727 585 727 582 704 c 1,129,130
 569 684 569 684 552 652 c 1,131,132
 549 621 549 621 535 563 c 1,133,134
 528 556 528 556 519 544 c 0,135,136
 518 540 518 540 522 529 c 0,137,138
 526 521 526 521 520 521 c 1,139,-1
 955 517 l 1,122,-1
EndSplineSet
EndChar

StartChar: B
Encoding: 66 66 15
Width: 1327
GlyphClass: 1
Flags: W
LayerCount: 2
Fore
SplineSet
1304 305 m 0,0,1
 1308 275 1308 275 1308 237 c 0,2,3
 1308 194 1308 194 1285 -26 c 0,4,5
 1276 -109 1276 -109 1194 -245 c 0,6,7
 1116 -375 1116 -375 1062 -409 c 0,8,9
 973 -465 973 -465 890 -487 c 0,10,11
 859 -495 859 -495 703 -495 c 2,12,-1
 171 -495 l 2,13,14
 153 -495 153 -495 127 -479 c 0,15,16
 127 -475 127 -475 124 -460 c 128,-1,17
 121 -445 121 -445 121 -438 c 1,18,19
 185 -414 185 -414 199 -405 c 0,20,21
 243 -376 243 -376 271 -309 c 0,22,23
 284 -279 284 -279 288 -155 c 0,24,25
 289 -136 289 -136 297 -52 c 0,26,27
 304 25 304 25 304 65 c 0,28,29
 304 290 304 290 307 312 c 0,30,31
 310 328 310 328 330 370 c 1,32,33
 321 381 321 381 307 414 c 1,34,35
 301 444 301 444 301 500 c 2,36,-1
 301 666 l 2,37,38
 301 671 301 671 298 718 c 0,39,40
 295 761 295 761 300 828 c 0,41,42
 309 927 309 927 309 938 c 0,43,44
 308 941 308 941 303 950 c 0,45,46
 290 1016 290 1016 304 1121 c 0,47,48
 309 1152 309 1152 288 1320 c 1,49,50
 287 1374 287 1374 267 1461 c 1,51,52
 241 1505 241 1505 197 1518 c 0,53,54
 162 1528 162 1528 126 1539 c 1,55,56
 126 1634 126 1634 123 1579 c 1,57,58
 124 1605 124 1605 147 1606 c 0,59,60
 196 1610 196 1610 305 1623 c 0,61,62
 406 1635 406 1635 409 1635 c 2,63,-1
 555 1635 l 2,64,65
 595 1635 595 1635 639.5 1644.5 c 128,-1,66
 684 1654 684 1654 716 1654 c 0,67,68
 752 1654 752 1654 804 1645 c 0,69,70
 811 1644 811 1644 947 1600 c 0,71,72
 1019 1577 1019 1577 1084 1471 c 0,73,74
 1146 1370 1146 1370 1156 1276 c 0,75,76
 1162 1222 1162 1222 1162 1172 c 0,77,78
 1162 916 1162 916 996 719 c 0,79,80
 998 717 998 717 1004 711 c 1,81,82
 1041 713 1041 713 1100.5 672.5 c 128,-1,83
 1160 632 1160 632 1205 572 c 0,84,85
 1282 469 1282 469 1304 305 c 0,0,1
1092 1182 m 1,86,87
 1083 1183 1083 1183 1012 1183 c 0,88,89
 962 1182 962 1182 937.5 1203 c 128,-1,90
 913 1224 913 1224 895 1284 c 0,91,92
 880 1332 880 1332 866 1381 c 0,93,94
 853 1412 853 1412 812 1451.5 c 128,-1,95
 771 1491 771 1491 742 1496 c 0,96,97
 609 1521 609 1521 584 1488 c 1,98,-1
 564 1114 l 2,99,100
 564 1106 564 1106 570 1094.5 c 128,-1,101
 576 1083 576 1083 576 1081 c 0,102,103
 576 1077 576 1077 564 952 c 0,104,105
 557 873 557 873 568 749 c 1,106,107
 611 730 611 730 613 730 c 0,108,109
 768 740 768 740 819 763 c 0,110,111
 938 817 938 817 938 1085 c 0,112,113
 938 1116 938 1116 936 1145 c 1,114,115
 941 1155 941 1155 947 1160 c 1,116,117
 1005 1163 1005 1163 1092 1182 c 1,86,87
1042 156 m 0,118,119
 1040 196 1040 196 1017 264 c 0,120,121
 998 317 998 317 978 371 c 0,122,123
 967 407 967 407 942 462 c 1,124,125
 848 595 848 595 704 595 c 0,126,127
 682 595 682 595 642 593 c 0,128,129
 595 590 595 590 564 572 c 1,130,131
 557 485 557 485 549 363 c 1,132,133
 548 281 548 281 551 185 c 0,134,135
 555 57 555 57 555 52 c 0,136,137
 557 -93 557 -93 588 -298 c 0,138,139
 591 -316 591 -316 627 -357 c 1,140,141
 647 -354 647 -354 671 -354 c 0,142,143
 688 -354 688 -354 720.5 -356.5 c 128,-1,144
 753 -359 753 -359 768 -359 c 0,145,146
 855 -359 855 -359 910 -296 c 0,147,148
 948 -256 948 -256 994 -189 c 1,149,150
 1050 -21 1050 -21 1042 156 c 0,118,119
EndSplineSet
EndChar

StartChar: C
Encoding: 67 67 16
Width: 1551
GlyphClass: 1
Flags: W
LayerCount: 2
Fore
SplineSet
1502 1607 m 1,0,1
 1499 1556 1499 1556 1485 1417 c 0,2,3
 1474 1309 1474 1309 1474 1247 c 0,4,5
 1474 1191 1474 1191 1481 1142 c 1,6,7
 1465 1123 1465 1123 1465 1096 c 0,8,9
 1465 1084 1465 1084 1470 1056 c 128,-1,10
 1475 1028 1475 1028 1474 1013 c 1,11,12
 1457 981 1457 981 1424 981 c 0,13,14
 1406 981 1406 981 1395 995 c 1,15,16
 1406 1047 1406 1047 1406 1098 c 0,17,18
 1406 1099 1406 1099 1397 1135 c 1,19,20
 1397 1158 1397 1158 1389 1199 c 1,21,22
 1350 1282 1350 1282 1349 1285 c 0,23,24
 1322 1336 1322 1336 1293 1362 c 0,25,26
 1213 1435 1213 1435 1123 1462 c 0,27,28
 1066 1480 1066 1480 1076 1480 c 1,29,-1
 874 1480 l 1,30,31
 827 1466 827 1466 733 1433 c 1,32,33
 625 1387 625 1387 531 1256 c 0,34,35
 518 1238 518 1238 473 1116 c 0,36,37
 409 942 409 942 409 832 c 0,38,39
 409 815 409 815 412 804 c 0,40,41
 414 798 414 798 410 785 c 0,42,43
 406 769 406 769 406 764 c 0,44,45
 398 638 398 638 401 604 c 0,46,47
 401 603 401 603 404.5 591.5 c 128,-1,48
 408 580 408 580 408 572 c 0,49,50
 406 532 406 532 422 374 c 0,51,52
 422 336 422 336 429 258 c 1,53,54
 439 239 439 239 454 201 c 1,55,56
 458 178 458 178 467 137 c 1,57,58
 489 102 489 102 525 28 c 1,59,60
 563 -80 563 -80 602 -123 c 1,61,62
 641 -157 641 -157 715 -228 c 1,63,64
 722 -250 722 -250 738 -290 c 1,65,66
 748 -291 748 -291 770 -284.5 c 128,-1,67
 792 -278 792 -278 803 -278 c 256,68,69
 814 -278 814 -278 864.5 -292.5 c 128,-1,70
 915 -307 915 -307 940 -309 c 0,71,72
 1027 -316 1027 -316 1138 -287 c 0,73,74
 1165 -282 1165 -282 1223 -270 c 0,75,76
 1272 -260 1272 -260 1326 -189 c 0,77,78
 1375 -124 1375 -124 1408 -36 c 0,79,80
 1409 -33 1409 -33 1415 33 c 0,81,82
 1420 53 1420 53 1427 91 c 1,83,84
 1428 134 1428 134 1434 221 c 1,85,86
 1442 225 1442 225 1450 225 c 0,87,88
 1485 225 1485 225 1488 110 c 0,89,90
 1492 -68 1492 -68 1477 -237 c 0,91,92
 1475 -289 1475 -289 1454 -379 c 1,93,94
 1445 -398 1445 -398 1379 -422 c 0,95,96
 1282 -456 1282 -456 1233 -467 c 0,97,98
 1188 -474 1188 -474 1096 -488 c 0,99,100
 1020 -500 1020 -500 951 -500 c 0,101,102
 825 -500 825 -500 732 -460 c 1,103,104
 719 -460 719 -460 699 -456 c 1,105,106
 682 -444 682 -444 652 -428 c 1,107,108
 516 -378 516 -378 378 -214 c 0,109,110
 235 -42 235 -42 191 141 c 0,111,112
 180 170 180 170 161 231 c 0,113,114
 160 244 160 244 158 269 c 1,115,116
 147 295 147 295 132 347 c 1,117,118
 125 388 125 388 118 469 c 0,119,120
 117 516 117 516 123 694 c 0,121,122
 124 736 124 736 175 1035 c 1,123,124
 193 1077 193 1077 229 1157 c 0,125,126
 257 1223 257 1223 271 1250 c 0,127,128
 302 1310 302 1310 322 1319 c 1,129,130
 350 1316 350 1316 358 1327 c 0,131,132
 413 1403 413 1403 524 1547 c 1,133,134
 532 1544 532 1544 548 1545 c 1,135,136
 562 1563 562 1563 590 1586 c 1,137,138
 604 1580 604 1580 633 1578 c 1,139,140
 701 1605 701 1605 836 1644 c 1,141,142
 886 1653 886 1653 959 1653 c 2,143,-1
 1119 1653 l 1,144,145
 1119 1653 1119 1653 1318 1629 c 0,146,147
 1321 1629 1321 1629 1419 1625 c 0,148,149
 1476 1623 1476 1623 1502 1607 c 1,0,1
EndSplineSet
EndChar

StartChar: D
Encoding: 68 68 17
Width: 1633
GlyphClass: 1
Flags: W
LayerCount: 2
Fore
SplineSet
1642 735 m 0,0,1
 1650 648 1650 648 1630 429 c 1,2,3
 1618 362 1618 362 1594 230 c 0,4,5
 1543 -59 1543 -59 1410 -231 c 0,6,7
 1359 -297 1359 -297 1277 -363 c 0,8,9
 1180 -442 1180 -442 1122 -449 c 1,10,11
 1114 -456 1114 -456 1096 -466 c 1,12,13
 913 -502 913 -502 920 -502 c 1,14,-1
 116 -502 l 1,15,16
 106 -442 106 -442 123 -428 c 1,17,18
 174 -402 174 -402 194 -402 c 1,19,20
 201 -388 201 -388 215 -365 c 0,21,22
 273 -282 273 -282 273 -180 c 0,23,24
 273 -178 273 -178 266 -139 c 1,25,26
 270 -121 270 -121 273 -89 c 1,27,28
 267 -75 267 -75 260 -46 c 0,29,30
 259 -36 259 -36 265 -10 c 0,31,32
 272 20 272 20 273 33 c 0,33,34
 276 98 276 98 276 238 c 2,35,-1
 276 429 l 2,36,37
 275 626 275 626 278 997 c 0,38,39
 278 1003 278 1003 271.5 1021 c 128,-1,40
 265 1039 265 1039 265 1046 c 0,41,42
 265 1074 265 1074 271.5 1131 c 128,-1,43
 278 1188 278 1188 278 1216 c 0,44,45
 278 1223 278 1223 270 1242 c 128,-1,46
 262 1261 262 1261 260 1272 c 0,47,48
 262 1305 262 1305 257 1371 c 1,49,50
 236 1484 236 1484 193 1515 c 0,51,52
 160 1540 160 1540 76 1556 c 1,53,54
 74 1567 74 1567 74 1601 c 1,55,56
 127 1637 127 1637 180 1621 c 1,57,58
 180 1621 180 1621 189 1612 c 128,-1,59
 198 1603 198 1603 204 1604 c 0,60,61
 212 1610 212 1610 225 1621 c 1,62,63
 237 1619 237 1619 260 1622 c 0,64,65
 288 1626 288 1626 298 1626 c 0,66,67
 349 1626 349 1626 376 1574 c 0,68,69
 379 1574 379 1574 384 1575 c 1,70,71
 395 1601 395 1601 421 1642 c 1,72,73
 451 1635 451 1635 504 1624 c 0,74,75
 506 1624 506 1624 514 1635 c 128,-1,76
 522 1646 522 1646 529 1649 c 0,77,78
 566 1666 566 1666 643 1666 c 2,79,-1
 957 1666 l 1,80,81
 1161 1605 1161 1605 1245 1554 c 0,82,83
 1404 1458 1404 1458 1506 1261 c 0,84,85
 1527 1223 1527 1223 1565 1140 c 1,86,87
 1619 992 1619 992 1642 735 c 0,0,1
1587 737 m 1,88,89
 1436 751 1436 751 1375 747 c 1,90,91
 1361 758 1361 758 1362 775 c 0,92,93
 1365 790 1365 790 1367 806 c 1,94,95
 1344 879 1344 879 1297 1019 c 0,96,97
 1231 1203 1231 1203 1152 1311.5 c 128,-1,98
 1073 1420 1073 1420 895 1463 c 0,99,100
 815 1482 815 1482 822 1482 c 1,101,-1
 695 1482 l 2,102,103
 690 1482 690 1482 629 1466 c 0,104,105
 564 1449 564 1449 543 1446 c 1,106,107
 526 1327 526 1327 530 1188 c 0,108,109
 532 1121 532 1121 532 1406 c 1,110,-1
 532 735 l 2,111,112
 532 48 532 48 528 110 c 1,113,114
 534 12 534 12 535 26 c 1,115,116
 530 -43 530 -43 533 -88 c 0,117,118
 534 -99 534 -99 541 -134 c 0,119,120
 547 -164 547 -164 546 -179 c 0,121,122
 544 -180 544 -180 505 -202 c 0,123,124
 476 -218 476 -218 470 -245 c 1,125,126
 492 -272 492 -272 526 -276 c 0,127,128
 551 -277 551 -277 575 -279 c 0,129,130
 824 -317 824 -317 863 -317 c 0,131,132
 980 -317 980 -317 1071 -267 c 0,133,134
 1150 -224 1150 -224 1201 -153 c 0,135,136
 1309 -1 1309 -1 1345 224 c 0,137,138
 1362 333 1362 333 1369 585 c 0,139,140
 1370 607 1370 607 1347 644 c 1,141,142
 1345 667 1345 667 1354 671 c 0,143,144
 1374 680 1374 680 1431 690 c 0,145,146
 1482 697 1482 697 1576 711 c 1,147,148
 1587 723 1587 723 1587 737 c 1,88,89
EndSplineSet
EndChar

StartChar: E
Encoding: 69 69 18
Width: 1068
GlyphClass: 1
Flags: W
LayerCount: 2
Fore
SplineSet
1081 -45 m 1,0,1
 1078 -117 1078 -117 1068 -251 c 1,2,3
 1056 -288 1056 -288 1038 -353 c 0,4,5
 1034 -381 1034 -381 1023 -431 c 0,6,7
 1019 -447 1019 -447 997 -483 c 0,8,9
 971 -527 971 -527 955 -527 c 2,10,-1
 700 -527 l 2,11,12
 693 -527 693 -527 610 -523.5 c 128,-1,13
 527 -520 527 -520 520 -520 c 2,14,-1
 366 -520 l 2,15,16
 360 -520 360 -520 304.5 -512 c 128,-1,17
 249 -504 249 -504 242 -504 c 2,18,-1
 91 -504 l 1,19,-1
 78 -484 l 1,20,21
 89 -465 89 -465 165 -400 c 0,22,23
 217 -354 217 -354 217 -288 c 2,24,-1
 217 154 l 2,25,26
 217 262 217 262 241 444 c 1,27,28
 228 500 228 500 236 583 c 1,29,30
 218 605 218 605 218 643 c 0,31,32
 218 646 218 646 238 757 c 0,33,34
 239 768 239 768 228 796 c 0,35,36
 214 832 214 832 213 833 c 0,37,38
 206 864 206 864 206 926 c 0,39,40
 207 1012 207 1012 207 1021 c 0,41,42
 204 1069 204 1069 193 1098 c 0,43,44
 178 1139 178 1139 144 1161 c 0,45,46
 114 1181 114 1181 84 1200 c 1,47,48
 98 1246 98 1246 114 1249 c 1,49,50
 145 1243 145 1243 203 1246 c 1,51,52
 267 1267 267 1267 265 1267 c 1,53,-1
 442 1267 l 2,54,55
 446 1267 446 1267 502.5 1257 c 128,-1,56
 559 1247 559 1247 588 1246 c 0,57,58
 600 1245 600 1245 788 1265 c 0,59,60
 831 1269 831 1269 1013 1257 c 1,61,62
 1029 1240 1029 1240 1029 1218 c 0,63,64
 1029 1205 1029 1205 1022.5 1181 c 128,-1,65
 1016 1157 1016 1157 1016 1146 c 0,66,67
 1015 1100 1015 1100 995 841 c 0,68,69
 992 833 992 833 966 815 c 1,70,71
 960 829 960 829 929 965 c 0,72,73
 909 1052 909 1052 855 1062 c 0,74,75
 850 1063 850 1063 820 1073 c 0,76,77
 795 1081 795 1081 780 1081 c 0,78,79
 770 1081 770 1081 762 1077 c 0,80,81
 718 1060 718 1060 571 1074 c 0,82,83
 490 1082 490 1082 449 1070 c 0,84,85
 437 1066 437 1066 433 1037 c 1,86,87
 469 873 469 873 436 747 c 1,88,89
 438 756 438 756 438 678 c 0,90,91
 438 657 438 657 433 597 c 0,92,93
 428 546 428 546 431 515 c 0,94,95
 432 501 432 501 450 479 c 1,96,-1
 827 479 l 1,97,98
 845 487 845 487 862 495 c 0,99,100
 890 509 890 509 901 540 c 0,101,102
 911 576 911 576 938 640 c 1,103,104
 964 640 964 640 956 642 c 1,105,106
 971 638 971 638 979 609 c 1,107,108
 975 529 975 529 971 405 c 0,109,110
 970 322 970 322 957 162 c 0,111,112
 953 139 953 139 917 146 c 1,113,114
 904 180 904 180 871 235 c 1,115,116
 850 257 850 257 809 280 c 0,117,118
 772 300 772 300 760 300 c 2,119,-1
 622 300 l 2,120,121
 609 300 609 300 571 307 c 128,-1,122
 533 314 533 314 514 314 c 0,123,124
 461 314 461 314 447 271 c 0,125,126
 431 221 431 221 431 194 c 0,127,128
 431 170 431 170 438 98 c 0,129,130
 445 30 445 30 444 -9 c 0,131,132
 443 -28 443 -28 434 -84 c 0,133,134
 426 -136 426 -136 426 -166 c 0,135,136
 426 -190 426 -190 430 -210 c 0,137,138
 437 -243 437 -243 484.5 -290.5 c 128,-1,139
 532 -338 532 -338 566 -346 c 0,140,141
 571 -349 571 -349 576 -351 c 0,142,143
 586 -356 586 -356 594 -356 c 2,144,-1
 760 -356 l 2,145,146
 816 -356 816 -356 854 -331 c 0,147,148
 907 -296 907 -296 957 -219 c 0,149,150
 1012 -131 1012 -131 1016 -53 c 1,151,152
 1042 -29 1042 -29 1081 -45 c 1,0,1
EndSplineSet
EndChar

StartChar: F
Encoding: 70 70 19
Width: 1006
GlyphClass: 1
Flags: W
LayerCount: 2
Fore
SplineSet
1002 1245 m 1,0,1
 1011 1180 1011 1180 996 874 c 0,2,3
 995 850 995 850 970 819 c 0,4,5
 966 818 966 818 937 818 c 1,6,7
 931 917 931 917 922 957 c 0,8,9
 903 1040 903 1040 856.5 1058.5 c 128,-1,10
 810 1077 810 1077 654 1077 c 2,11,-1
 480 1077 l 2,12,13
 431 1077 431 1077 431 945 c 1,14,15
 431 961 431 961 441 798 c 0,16,17
 443 763 443 763 434 682 c 0,18,19
 424 594 424 594 424 553 c 0,20,21
 424 491 424 491 440 448 c 1,22,-1
 572 448 l 2,23,24
 576 448 576 448 604.5 440.5 c 128,-1,25
 633 433 633 433 640 433 c 2,26,-1
 768 433 l 2,27,28
 840 433 840 433 893 539 c 1,29,30
 897 559 897 559 907 597 c 1,31,32
 918 610 918 610 951 608 c 1,33,34
 956 565 956 565 960 483 c 1,35,36
 957 381 957 381 936 83 c 0,37,38
 933 44 933 44 885 50 c 1,39,40
 876 107 876 107 867 165 c 0,41,42
 851 236 851 236 809 254 c 0,43,44
 785 264 785 264 685 264 c 2,45,-1
 537 264 l 1,46,47
 528 256 528 256 489 258 c 0,48,49
 455 260 455 260 442 236 c 1,50,51
 443 203 443 203 439 137 c 0,52,53
 438 124 438 124 424 53 c 0,54,55
 413 0 413 0 415 -31 c 1,56,57
 422 -50 422 -50 429 -85 c 1,58,59
 429 -109 429 -109 425.5 -161 c 128,-1,60
 422 -213 422 -213 422 -239 c 0,61,62
 422 -349 422 -349 476 -410 c 0,63,64
 477 -411 477 -411 624 -491 c 1,65,66
 604 -525 604 -525 568 -525 c 0,67,68
 558 -525 558 -525 540.5 -522 c 128,-1,69
 523 -519 523 -519 516 -518 c 0,70,71
 424 -515 424 -515 287 -505 c 0,72,73
 214 -500 214 -500 192 -506 c 1,74,75
 179 -518 179 -518 156 -532 c 1,76,77
 143 -534 143 -534 120 -525 c 0,78,79
 83 -510 83 -510 81 -509 c 0,80,81
 87 -484 87 -484 128 -443.5 c 128,-1,82
 169 -403 169 -403 177 -382 c 0,83,84
 214 -285 214 -285 214 -199 c 2,85,-1
 214 137 l 1,86,87
 214 136 214 136 211.5 234 c 128,-1,88
 209 332 209 332 209 383 c 1,89,90
 209 376 209 376 211 431 c 0,91,92
 213 470 213 470 210 499 c 0,93,94
 207 540 207 540 195 567 c 1,95,96
 230 638 230 638 230 733 c 256,97,98
 230 828 230 828 195 949 c 1,99,100
 195 974 195 974 193 1017 c 0,101,102
 192 1041 192 1041 187 1056 c 0,103,104
 167 1115 167 1115 128 1168 c 0,105,106
 117 1182 117 1182 77 1187 c 1,107,108
 69 1204 69 1204 71 1245 c 1,109,110
 66 1245 66 1245 208 1249 c 0,111,112
 429 1254 429 1254 882 1259 c 0,113,114
 927 1259 927 1259 1002 1245 c 1,0,1
EndSplineSet
EndChar

StartChar: G
Encoding: 71 71 20
Width: 1458
GlyphClass: 1
Flags: W
LayerCount: 2
Fore
SplineSet
1450 1624 m 1,0,1
 1452 1610 1452 1610 1452 1593 c 0,2,3
 1452 1557 1452 1557 1440.5 1463 c 128,-1,4
 1429 1369 1429 1369 1429 1323 c 0,5,6
 1429 1299 1429 1299 1431 1279 c 1,7,8
 1424 1248 1424 1248 1420 1195 c 0,9,10
 1421 1191 1421 1191 1427 1170 c 0,11,12
 1432 1153 1432 1153 1431 1141 c 0,13,14
 1427 1131 1427 1131 1420 1115 c 1,15,16
 1419 1099 1419 1099 1427 1018 c 1,17,18
 1398 977 1398 977 1374 977 c 0,19,20
 1363 977 1363 977 1352 999 c 1,21,22
 1362 1099 1362 1099 1358 1122 c 0,23,24
 1355 1149 1355 1149 1345 1199 c 1,25,26
 1320 1274 1320 1274 1255 1364 c 0,27,28
 1231 1398 1231 1398 1137 1454 c 0,29,30
 1127 1460 1127 1460 1060 1477 c 0,31,32
 1016 1488 1016 1488 933 1488 c 0,33,34
 695 1488 695 1488 560 1310 c 1,35,36
 543 1297 543 1297 511 1257 c 1,37,38
 407 1053 407 1053 393 857 c 0,39,40
 387 776 387 776 387 589 c 2,41,-1
 387 476 l 1,42,43
 387 487 387 487 404 386 c 1,44,45
 405 334 405 334 415 244 c 1,46,47
 422 234 422 234 440 193 c 1,48,49
 441 171 441 171 447 134 c 1,50,51
 465 102 465 102 499 38 c 1,52,53
 504 17 504 17 516 -21 c 0,54,55
 570 -159 570 -159 683 -251 c 0,56,57
 734 -292 734 -292 783 -309 c 0,58,59
 1019 -388 1019 -388 1086 -388 c 0,60,61
 1117 -388 1117 -388 1147 -378 c 0,62,63
 1162 -374 1162 -374 1189 -357 c 1,64,65
 1195 -289 1195 -289 1195 -291 c 1,66,67
 1195 -266 1195 -266 1180 -259 c 0,68,69
 1159 -248 1159 -248 1151 -231 c 0,70,71
 1139 -204 1139 -204 1150 -126 c 0,72,73
 1150 -125 1150 -125 1150 146 c 1,74,75
 1142 244 1142 244 1130 300 c 1,76,77
 1122 308 1122 308 1110 333 c 1,78,79
 1090 422 1090 422 1023 448 c 0,80,81
 995 458 995 458 905 461 c 0,82,83
 902 465 902 465 894 474 c 1,84,-1
 894 517 l 1,85,86
 924 531 924 531 992 531 c 0,87,88
 998 531 998 531 1076.5 521 c 128,-1,89
 1155 511 1155 511 1161 511 c 0,90,91
 1166 511 1166 511 1181 519.5 c 128,-1,92
 1196 528 1196 528 1202 528 c 0,93,94
 1275 537 1275 537 1284 537 c 0,95,96
 1453 537 1453 537 1428 536 c 1,97,-1
 1428 462 l 2,98,99
 1428 458 1428 458 1416 425 c 128,-1,100
 1404 392 1404 392 1402 378 c 0,101,102
 1382 260 1382 260 1378 139 c 0,103,104
 1374 -13 1374 -13 1374 -71 c 0,105,106
 1374 -188 1374 -188 1392 -393 c 1,107,108
 1348 -425 1348 -425 1248 -462 c 128,-1,109
 1148 -499 1148 -499 1095 -504 c 0,110,111
 1077 -503 1077 -503 1043 -507 c 1,112,113
 989 -524 989 -524 967 -524 c 0,114,115
 962 -524 962 -524 949.5 -519 c 128,-1,116
 937 -514 937 -514 933 -513 c 0,117,118
 809 -505 809 -505 727 -483 c 1,119,120
 696 -467 696 -467 635 -442 c 1,121,122
 514 -408 514 -408 367 -223 c 0,123,124
 215 -33 215 -33 180 145 c 0,125,126
 170 184 170 184 152 262 c 0,127,128
 143 287 143 287 128 339 c 1,129,130
 113 422 113 422 113 479 c 1,131,132
 113 474 113 474 119 542 c 0,133,134
 125 600 125 600 120 624 c 0,135,136
 116 651 116 651 116 682 c 0,137,138
 116 740 116 740 135 847 c 0,139,140
 160 980 160 980 164 1026 c 1,141,142
 283 1327 283 1327 307 1327 c 0,143,144
 312 1327 312 1327 314 1320.5 c 128,-1,145
 316 1314 316 1314 323 1314 c 0,146,147
 343 1314 343 1314 356 1328 c 1,148,149
 361 1348 361 1348 375 1384 c 1,150,151
 486 1560 486 1560 510 1560 c 0,152,153
 516 1560 516 1560 518.5 1556.5 c 128,-1,154
 521 1553 521 1553 526 1553 c 256,155,156
 531 1553 531 1553 551.5 1575.5 c 128,-1,157
 572 1598 572 1598 579 1598 c 0,158,159
 584 1598 584 1598 592.5 1591.5 c 128,-1,160
 601 1585 601 1585 606 1585 c 0,161,162
 612 1585 612 1585 712.5 1621 c 128,-1,163
 813 1657 813 1657 819 1657 c 2,164,-1
 1129 1657 l 2,165,166
 1134 1657 1134 1657 1238.5 1640.5 c 128,-1,167
 1343 1624 1343 1624 1348 1624 c 0,168,169
 1351 1624 1351 1624 1391.5 1624 c 128,-1,170
 1432 1624 1432 1624 1450 1624 c 1,0,1
EndSplineSet
EndChar

StartChar: H
Encoding: 72 72 21
Width: 1349
GlyphClass: 1
Flags: W
LayerCount: 2
Fore
SplineSet
1471 1594 m 1,0,1
 1473 1550 1473 1550 1444 1537 c 0,2,3
 1432 1534 1432 1534 1411 1524 c 1,4,5
 1313 1431 1313 1431 1322 1274 c 0,6,7
 1326 1199 1326 1199 1304 1061 c 0,8,9
 1302 1048 1302 1048 1302 1033 c 0,10,11
 1302 1004 1302 1004 1311 956 c 0,12,13
 1322 898 1322 898 1324 884 c 0,14,15
 1328 848 1328 848 1312 691 c 0,16,17
 1305 628 1305 628 1297 499 c 0,18,19
 1295 460 1295 460 1300 392 c 0,20,21
 1306 317 1306 317 1306 286 c 2,22,-1
 1311 -43 l 1,23,24
 1319 -124 1319 -124 1327 -205 c 0,25,26
 1340 -309 1340 -309 1368 -382 c 0,27,28
 1377 -409 1377 -409 1426 -428 c 0,29,30
 1461 -442 1461 -442 1461 -470 c 0,31,32
 1461 -487 1461 -487 1446 -507 c 1,33,-1
 962 -507 l 1,34,35
 954 -494 954 -494 954 -464 c 0,36,37
 954 -437 954 -437 978 -418 c 0,38,39
 1006 -398 1006 -398 1034 -377 c 0,40,41
 1071 -344 1071 -344 1076 -307 c 0,42,43
 1097 -117 1097 -117 1106 33 c 0,44,45
 1108 64 1108 64 1105 122 c 0,46,47
 1101 193 1101 193 1101 215 c 0,48,49
 1101 233 1101 233 1093 339 c 0,50,51
 1088 417 1088 417 1094 464 c 0,52,53
 1099 499 1099 499 1079 588 c 1,54,55
 1008 513 1008 513 913 499 c 0,56,57
 840 489 840 489 806 492 c 0,58,59
 799 493 799 493 777.5 499.5 c 128,-1,60
 756 506 756 506 750 506 c 2,61,-1
 518 506 l 2,62,63
 497 506 497 506 465 462 c 0,64,65
 419 398 419 398 440 312 c 0,66,67
 448 295 448 295 457 261 c 0,68,69
 459 243 459 243 455 209 c 0,70,71
 450 169 450 169 450 154 c 0,72,73
 450 124 450 124 454.5 64 c 128,-1,74
 459 4 459 4 459 3 c 2,75,-1
 459 -161 l 2,76,77
 459 -224 459 -224 482 -301 c 0,78,79
 510 -398 510 -398 554 -425 c 1,80,81
 581 -431 581 -431 619 -458 c 1,82,83
 625 -520 625 -520 566 -520 c 0,84,85
 542 -520 542 -520 502 -507 c 1,86,-1
 290 -507 l 1,87,88
 281 -516 281 -516 279 -521 c 1,89,90
 267 -521 267 -521 219 -525 c 0,91,92
 181 -528 181 -528 158 -526 c 0,93,94
 149 -526 149 -526 121.5 -521.5 c 128,-1,95
 94 -517 94 -517 80 -517 c 1,96,97
 72 -460 72 -460 126 -433 c 0,98,99
 205 -395 205 -395 226 -305 c 1,100,101
 233 -233 233 -233 239 -160 c 0,102,103
 255 -7 255 -7 255 68 c 0,104,105
 255 81 255 81 243 120 c 0,106,107
 230 164 230 164 227 184 c 0,108,109
 225 205 225 205 233 251 c 0,110,111
 241 301 241 301 241 302 c 2,112,-1
 241 589 l 2,113,114
 241 594 241 594 248 615 c 128,-1,115
 255 636 255 636 255 646 c 0,116,117
 255 665 255 665 232 787 c 0,118,119
 232 788 232 788 239 904 c 0,120,121
 243 969 243 969 239 1021 c 0,122,123
 239 1025 239 1025 235 1035.5 c 128,-1,124
 231 1046 231 1046 231 1052 c 2,125,-1
 231 1294 l 2,126,127
 231 1324 231 1324 203 1397 c 0,128,129
 173 1475 173 1475 152 1483 c 0,130,131
 107 1499 107 1499 91 1521 c 0,132,133
 85 1530 85 1530 89 1557 c 0,134,135
 94 1587 94 1587 112.5 1594 c 128,-1,136
 131 1601 131 1601 215 1611 c 128,-1,137
 299 1621 299 1621 341 1621 c 2,138,-1
 564 1621 l 1,139,140
 622 1597 622 1597 622 1558 c 0,141,142
 622 1544 622 1544 611 1532 c 1,143,144
 599 1528 599 1528 580 1519 c 0,145,146
 484 1453 484 1453 481 1411 c 0,147,148
 476 1343 476 1343 462 1185 c 0,149,150
 449 1047 449 1047 449 1042 c 2,151,-1
 449 893 l 2,152,153
 449 773 449 773 460 722 c 0,154,155
 465 703 465 703 493 695 c 0,156,157
 496 694 496 694 573 690 c 0,158,159
 610 688 610 688 683 693 c 0,160,161
 762 699 762 699 756 699 c 1,162,-1
 917 699 l 2,163,164
 968 699 968 699 974 697 c 0,165,166
 984 694 984 694 1029 662 c 0,167,168
 1067 635 1067 635 1084 639 c 1,169,170
 1120 685 1120 685 1120 781 c 0,171,172
 1120 802 1120 802 1104 955 c 0,173,174
 1101 985 1101 985 1101 1117 c 0,175,176
 1101 1130 1101 1130 1093.5 1168.5 c 128,-1,177
 1086 1207 1086 1207 1086 1234 c 0,178,179
 1084 1377 1084 1377 1045 1456 c 0,180,181
 1029 1489 1029 1489 978 1521 c 0,182,183
 936 1548 936 1548 936 1574 c 0,184,185
 936 1579 936 1579 937 1584 c 0,186,187
 959 1613 959 1613 973 1614 c 0,188,189
 1027 1620 1027 1620 1091 1609 c 1,190,191
 1103 1599 1103 1599 1131 1587 c 1,192,193
 1159 1585 1159 1585 1200 1602 c 0,194,195
 1251 1623 1251 1623 1267 1626 c 0,196,197
 1289 1625 1289 1625 1333 1628 c 0,198,199
 1367 1634 1367 1634 1386 1634 c 0,200,201
 1437 1634 1437 1634 1471 1594 c 1,0,1
282 1026 m 1,202,203
 279 1060 279 1060 278 1117 c 1,204,205
 295 1258 295 1258 265 1406 c 0,206,207
 262 1421 262 1421 233 1464 c 1,208,209
 251 1343 251 1343 251 1268 c 2,210,-1
 251 1032 l 2,211,212
 251 921 251 921 259 816 c 1,213,214
 278 952 278 952 282 1026 c 1,202,203
EndSplineSet
EndChar

StartChar: I
Encoding: 73 73 22
Width: 630
GlyphClass: 1
Flags: W
LayerCount: 2
Fore
SplineSet
710 1626 m 1,0,1
 706 1601 706 1601 695 1555 c 0,2,3
 694 1555 694 1555 622 1532 c 0,4,5
 576 1518 576 1518 565 1475 c 1,6,7
 555 1456 555 1456 541 1417 c 0,8,9
 539 1405 539 1405 510 1220 c 1,10,-1
 505 344 l 1,11,12
 497 300 497 300 497 296 c 1,13,14
 497 297 497 297 505 260 c 1,15,-1
 502 -3 l 1,16,17
 494 -57 494 -57 502 -153 c 0,18,19
 511 -264 511 -264 536 -333 c 0,20,21
 544 -357 544 -357 579 -385 c 0,22,23
 640 -436 640 -436 702 -435 c 1,24,25
 702 -457 702 -457 689 -500 c 1,26,-1
 550 -500 l 2,27,28
 547 -500 547 -500 509.5 -496.5 c 128,-1,29
 472 -493 472 -493 469 -493 c 256,30,31
 466 -493 466 -493 437 -496.5 c 128,-1,32
 408 -500 408 -500 405 -500 c 0,33,34
 403 -500 403 -500 383 -496.5 c 128,-1,35
 363 -493 363 -493 359 -493 c 0,36,37
 356 -493 356 -493 343 -496.5 c 128,-1,38
 330 -500 330 -500 327 -500 c 2,39,-1
 76 -507 l 2,40,41
 44 -507 44 -507 44 -474 c 0,42,43
 44 -435 44 -435 60 -429 c 0,44,45
 99 -418 99 -418 137 -408 c 0,46,47
 183 -395 183 -395 195 -362 c 0,48,49
 200 -342 200 -342 209 -300 c 1,50,51
 226 -302 226 -302 261 -311 c 1,52,53
 273 -241 273 -241 273 -221 c 0,54,55
 273 -202 273 -202 261 -170 c 1,56,57
 271 -135 271 -135 264 -112 c 0,58,59
 259 -95 259 -95 242 -54 c 0,60,61
 227 -18 227 -18 227 -13 c 1,62,63
 227 -25 227 -25 246 89 c 0,64,65
 249 102 249 102 240 128 c 1,66,67
 260 175 260 175 260 193 c 0,68,69
 260 196 260 196 254 304 c 0,70,71
 254 312 254 312 245.5 336 c 128,-1,72
 237 360 237 360 237 364 c 0,73,74
 237 372 237 372 246 388 c 1,75,76
 245 382 245 382 245 406 c 2,77,-1
 245 613 l 2,78,79
 245 618 245 618 250 643.5 c 128,-1,80
 255 669 255 669 255 674 c 0,81,82
 255 677 255 677 251.5 686.5 c 128,-1,83
 248 696 248 696 248 701 c 0,84,85
 246 726 246 726 251 868 c 0,86,87
 252 885 252 885 249.5 924 c 128,-1,88
 247 963 247 963 247 963 c 1,89,-1
 247 1169 l 2,90,91
 247 1188 247 1188 230 1224 c 1,92,93
 234 1242 234 1242 222 1293 c 1,94,95
 221 1317 221 1317 213 1365 c 1,96,97
 204 1380 204 1380 189 1409 c 0,98,99
 184 1426 184 1426 172 1460 c 0,100,101
 149 1512 149 1512 127 1527 c 1,102,103
 100 1537 100 1537 44 1565 c 1,104,105
 47 1589 47 1589 57 1627 c 1,106,-1
 68 1627 l 2,107,108
 71 1627 71 1627 90 1623 c 128,-1,109
 109 1619 109 1619 113 1619 c 2,110,-1
 575 1619 l 1,111,-1
 710 1626 l 1,0,1
EndSplineSet
EndChar

StartChar: J
Encoding: 74 74 23
Width: 610
GlyphClass: 1
Flags: W
LayerCount: 2
Fore
SplineSet
733 1629 m 1,0,1
 730 1611 730 1611 722 1577 c 1,2,3
 682 1574 682 1574 606 1547 c 1,4,5
 562 1517 562 1517 545 1409 c 0,6,7
 543 1396 543 1396 533.5 1359.5 c 128,-1,8
 524 1323 524 1323 522 1306 c 2,9,-1
 512 369 l 2,10,11
 515 343 515 343 525 293 c 0,12,13
 526 288 526 288 522 272 c 128,-1,14
 518 256 518 256 518 249 c 0,15,16
 516 212 516 212 519 147 c 0,17,18
 523 69 523 69 523 42 c 0,19,20
 523 39 523 39 528.5 30 c 128,-1,21
 534 21 534 21 535 15 c 0,22,23
 540 -12 540 -12 546 -39 c 0,24,25
 552 -72 552 -72 545 -90 c 0,26,27
 535 -115 535 -115 474 -188 c 0,28,29
 323 -367 323 -367 194 -493 c 0,30,31
 91 -593 91 -593 -2 -593 c 0,32,33
 -40 -593 -40 -593 -74 -561.5 c 128,-1,34
 -108 -530 -108 -530 -108 -493 c 0,35,36
 -108 -484 -108 -484 -105 -476 c 1,37,38
 -48 -447 -48 -447 71 -399 c 1,39,40
 96 -405 96 -405 147 -406 c 0,41,42
 166 -404 166 -404 179 -380.5 c 128,-1,43
 192 -357 192 -357 218 -301 c 1,44,45
 239 -246 239 -246 247 -148 c 0,46,47
 252 -63 252 -63 257 21 c 1,48,49
 273 42 273 42 310 51 c 0,50,51
 364 66 364 66 371 69 c 1,52,53
 347 76 347 76 313 75 c 0,54,55
 309 75 309 75 294.5 71 c 128,-1,56
 280 67 280 67 271 67 c 1,57,58
 259 94 259 94 263 200 c 0,59,60
 266 277 266 277 258 358 c 0,61,62
 257 366 257 366 247 418 c 0,63,64
 240 457 240 457 241 483 c 0,65,66
 242 498 242 498 250 554 c 0,67,68
 256 600 256 600 256 630 c 0,69,70
 256 665 256 665 248 695 c 0,71,72
 242 720 242 720 231 733 c 1,73,74
 250 794 250 794 248 837 c 0,75,76
 248 949 248 949 241 1170 c 0,77,78
 241 1207 241 1207 238 1279 c 0,79,80
 234 1285 234 1285 226 1305 c 1,81,82
 220 1343 220 1343 208 1415 c 1,83,84
 198 1428 198 1428 181 1457 c 0,85,86
 162 1500 162 1500 157 1509 c 0,87,88
 140 1537 140 1537 116 1552 c 1,89,90
 88 1562 88 1562 29 1582 c 1,91,92
 29 1594 29 1594 40 1629 c 1,93,-1
 733 1629 l 1,0,1
EndSplineSet
EndChar

StartChar: K
Encoding: 75 75 24
Width: 1253
GlyphClass: 1
Flags: W
LayerCount: 2
Fore
SplineSet
1649 -319 m 1,0,1
 1642 -333 1642 -333 1625 -354 c 0,2,3
 1614 -362 1614 -362 1597.5 -363.5 c 128,-1,4
 1581 -365 1581 -365 1547 -374.5 c 128,-1,5
 1513 -384 1513 -384 1496 -384 c 0,6,7
 1489 -384 1489 -384 1482 -383 c 0,8,9
 1469 -372 1469 -372 1441 -356 c 1,10,11
 1436 -365 1436 -365 1447 -384 c 1,12,13
 1432 -381 1432 -381 1401 -373 c 1,14,15
 1397 -360 1397 -360 1383 -339 c 1,16,17
 1290 -348 1290 -348 1285 -346 c 0,18,19
 1278 -345 1278 -345 1223 -297 c 0,20,21
 1200 -277 1200 -277 1147 -249 c 0,22,23
 1101 -223 1101 -223 1068 -190 c 1,24,25
 997 -141 997 -141 947 -85 c 0,26,27
 896 -24 896 -24 845 37 c 1,28,29
 814 63 814 63 772 116 c 1,30,31
 773 116 773 116 779.5 119.5 c 128,-1,32
 786 123 786 123 790 123 c 1,33,34
 789 123 789 123 817 109 c 0,35,36
 818 108 818 108 848 98 c 1,37,38
 835 133 835 133 789 151 c 0,39,40
 784 153 784 153 772 176 c 128,-1,41
 760 199 760 199 745 197 c 1,42,43
 745 186 745 186 759 181 c 1,44,45
 756 167 756 167 751 150 c 1,46,47
 736 158 736 158 711 179 c 1,48,49
 706 191 706 191 694 209 c 1,50,51
 677 217 677 217 648 240 c 1,52,53
 637 264 637 264 607 318 c 1,54,55
 589 336 589 336 556 375 c 0,56,57
 537 399 537 399 498 438 c 1,58,59
 484 423 484 423 488 333 c 0,60,61
 492 311 492 311 498 242 c 1,62,63
 495 229 495 229 494 166 c 0,64,65
 497 161 497 161 505 110 c 0,66,67
 511 89 511 89 521 42 c 1,68,69
 519 18 519 18 526 -25 c 1,70,71
 551 -81 551 -81 626 -99 c 0,72,73
 653 -103 653 -103 698 -126 c 1,74,75
 700 -165 700 -165 692 -174 c 1,76,77
 670 -175 670 -175 616 -183 c 1,78,-1
 508 -183 l 2,79,80
 505 -183 505 -183 475 -176 c 128,-1,81
 445 -169 445 -169 435 -168 c 0,82,83
 409 -166 409 -166 355 -172 c 0,84,85
 296 -179 296 -179 300 -179 c 1,86,-1
 147 -179 l 1,87,88
 124 -188 124 -188 100 -178 c 0,89,90
 72 -168 72 -168 72 -143 c 0,91,92
 72 -137 72 -137 73 -130 c 0,93,94
 78 -118 78 -118 108 -112 c 0,95,96
 147 -104 147 -104 162 -95 c 0,97,98
 184 -82 184 -82 219 -37 c 1,99,100
 230 -12 230 -12 237 78 c 1,101,102
 244 101 244 101 252 195 c 1,103,104
 248 199 248 199 247 282 c 0,105,106
 248 303 248 303 276 362 c 1,107,108
 276 357 276 357 264 378 c 0,109,110
 250 404 250 404 250 450 c 2,111,-1
 250 555 l 2,112,113
 250 640 250 640 252 630 c 1,114,115
 238 695 238 695 258 799 c 0,116,117
 261 812 261 812 261 823 c 0,118,119
 261 838 261 838 253.5 848 c 128,-1,120
 246 858 246 858 246 861 c 2,121,-1
 246 978 l 2,122,123
 246 983 246 983 245 984.5 c 128,-1,124
 244 986 244 986 244 987 c 0,125,126
 253 1000 253 1000 253 1008 c 2,127,-1
 253 1216 l 2,128,129
 253 1256 253 1256 240 1312 c 0,130,131
 224 1386 224 1386 198 1402 c 0,132,133
 163 1423 163 1423 80 1437 c 1,134,135
 77 1446 77 1446 77 1452 c 0,136,137
 77 1479 77 1479 130 1475 c 2,138,-1
 321 1462 l 1,139,-1
 415 1462 l 2,140,141
 416 1462 416 1462 439.5 1467.5 c 128,-1,142
 463 1473 463 1473 481 1473 c 0,143,144
 625 1473 625 1473 659 1477 c 1,145,146
 667 1461 667 1461 667 1447 c 0,147,148
 667 1445 667 1445 667 1440 c 0,149,150
 666 1435 666 1435 666 1433 c 0,151,152
 632 1424 632 1424 597 1414 c 1,153,154
 551 1394 551 1394 526 1341 c 0,155,156
 525 1338 525 1338 514 1242 c 0,157,158
 506 1182 506 1182 490 1061 c 0,159,160
 489 1052 489 1052 495 1025 c 0,161,162
 501 994 501 994 501 974 c 0,163,164
 501 970 501 970 496 959.5 c 128,-1,165
 491 949 491 949 490 944 c 0,166,167
 488 922 488 922 495 891 c 1,168,169
 490 855 490 855 486 798 c 0,170,171
 486 796 486 796 498 702 c 1,172,173
 492 688 492 688 501 630 c 1,174,175
 535 658 535 658 586 724 c 1,176,177
 648 785 648 785 749 902 c 1,178,179
 761 927 761 927 785 966 c 1,180,181
 880 1081 880 1081 935 1162 c 0,182,183
 951 1183 951 1183 984 1237 c 0,184,185
 1004 1272 1004 1272 1027 1333 c 0,186,187
 1033 1350 1033 1350 1020 1370 c 0,188,189
 996 1406 996 1406 958 1420 c 0,190,191
 926 1429 926 1429 895 1438 c 1,192,193
 890 1445 890 1445 890 1469 c 1,194,195
 923 1481 923 1481 967 1481 c 0,196,197
 999 1481 999 1481 1089 1467 c 1,198,199
 1098 1471 1098 1471 1118 1474 c 1,200,201
 1165 1467 1165 1467 1164 1467 c 1,202,203
 1238 1470 1238 1470 1385 1482 c 1,204,205
 1385 1463 1385 1463 1378 1433 c 1,206,207
 1339 1438 1339 1438 1257 1381 c 1,208,209
 1234 1354 1234 1354 1185 1296 c 0,210,211
 1176 1291 1176 1291 1159 1276 c 1,212,213
 1075 1160 1075 1160 922 952 c 1,214,215
 913 947 913 947 899 937 c 0,216,217
 876 912 876 912 752 745 c 0,218,219
 739 722 739 722 711 675 c 0,220,221
 708 670 708 670 692.5 658.5 c 128,-1,222
 677 647 677 647 677 641 c 0,223,224
 677 638 677 638 679 636 c 0,225,226
 738 563 738 563 796 474 c 0,227,228
 798 464 798 464 805 447 c 1,229,230
 846 389 846 389 929 280 c 1,231,232
 947 266 947 266 984 231 c 0,233,234
 1013 202 1013 202 1080 98 c 0,235,236
 1103 62 1103 62 1129 34 c 0,237,238
 1152 9 1152 9 1167 6 c 0,239,240
 1175 4 1175 4 1199 -35 c 0,241,242
 1217 -65 1217 -65 1244 -73 c 0,243,244
 1275 -81 1275 -81 1293 -102 c 0,245,246
 1299 -111 1299 -111 1346.5 -134 c 128,-1,247
 1394 -157 1394 -157 1415 -184 c 1,248,249
 1393 -205 1393 -205 1387 -217 c 1,250,251
 1390 -235 1390 -235 1405 -235 c 0,252,253
 1430 -235 1430 -235 1430 -210 c 1,254,255
 1482 -244 1482 -244 1535 -278 c 0,256,257
 1604 -319 1604 -319 1649 -319 c 1,0,1
EndSplineSet
EndChar

StartChar: L
Encoding: 76 76 25
Width: 1128
GlyphClass: 1
Flags: W
LayerCount: 2
Fore
SplineSet
1158 -132 m 1,0,1
 1160 -164 1160 -164 1147 -216 c 0,2,3
 1130 -276 1130 -276 1106 -397 c 1,4,5
 1089 -515 1089 -515 1053 -517 c 0,6,7
 1013 -518 1013 -518 968 -516 c 0,8,9
 909 -513 909 -513 863 -513 c 0,10,11
 756 -513 756 -513 692 -510 c 128,-1,12
 628 -507 628 -507 640 -507 c 1,13,14
 592 -507 592 -507 521 -512 c 0,15,16
 515 -511 515 -511 506 -507 c 0,17,18
 487 -502 487 -502 306 -502 c 2,19,-1
 123 -502 l 2,20,21
 120 -502 120 -502 105 -498.5 c 128,-1,22
 90 -495 90 -495 82 -495 c 1,23,24
 86 -477 86 -477 93 -446 c 1,25,26
 115 -442 115 -442 154 -430 c 1,27,28
 194 -411 194 -411 216 -364 c 1,29,30
 228 -352 228 -352 242 -328 c 1,31,32
 243 -313 243 -313 236.5 -281 c 128,-1,33
 230 -249 230 -249 230 -234 c 1,34,35
 240 -236 240 -236 276 -203 c 0,36,37
 274 -200 274 -200 260 -171 c 0,38,39
 259 -169 259 -169 244 -168 c 1,40,41
 224 -150 224 -150 253 -112 c 0,42,43
 270 -90 270 -90 270 -53 c 0,44,45
 270 -31 270 -31 262.5 8.5 c 128,-1,46
 255 48 255 48 255 59 c 0,47,48
 255 64 255 64 260 76 c 128,-1,49
 265 88 265 88 265 92 c 2,50,-1
 265 185 l 2,51,52
 265 188 265 188 271 208 c 128,-1,53
 277 228 277 228 278 239 c 0,54,55
 278 244 278 244 269 278 c 1,56,57
 270 275 270 275 274 318 c 0,58,59
 275 328 275 328 271 344 c 0,60,61
 266 364 266 364 266 372 c 0,62,63
 265 386 265 386 271 426 c 0,64,65
 277 470 277 470 278 483 c 0,66,67
 278 500 278 500 275 536 c 128,-1,68
 272 572 272 572 272 573 c 2,69,-1
 272 669 l 2,70,71
 272 675 272 675 278 685 c 1,72,73
 278 685 278 685 272 792 c 0,74,75
 269 836 269 836 274 860 c 0,76,77
 277 873 277 873 277 887 c 0,78,79
 277 914 277 914 266 953 c 0,80,81
 257 983 257 983 248 1014 c 0,82,83
 247 1016 247 1016 249 1068 c 1,84,85
 249 1067 249 1067 242 1287 c 0,86,87
 239 1303 239 1303 233 1337 c 0,88,89
 233 1338 233 1338 238 1377 c 0,90,91
 239 1384 239 1384 233 1400.5 c 128,-1,92
 227 1417 227 1417 226 1423 c 1,93,94
 227 1417 227 1417 235 1481 c 1,95,96
 219 1512 219 1512 176 1564 c 0,97,98
 164 1573 164 1573 138 1575 c 0,99,100
 105 1578 105 1578 98 1580 c 1,101,102
 93 1587 93 1587 98 1606 c 0,103,104
 103 1624 103 1624 112 1629 c 1,105,106
 154 1632 154 1632 152 1632 c 1,107,108
 236 1626 236 1626 407 1618 c 0,109,110
 450 1616 450 1616 442 1616 c 1,111,112
 601 1633 601 1633 594 1633 c 1,113,-1
 738 1633 l 1,114,115
 740 1613 740 1613 727 1584 c 1,116,117
 692 1577 692 1577 622 1564 c 0,118,119
 556 1553 556 1553 525 1466 c 0,120,121
 517 1441 517 1441 507 1373 c 0,122,123
 495 1275 495 1275 495 1234 c 2,124,-1
 495 231 l 2,125,126
 495 227 495 227 497 209 c 128,-1,127
 499 191 499 191 499 185 c 0,128,129
 502 124 502 124 499 77 c 0,130,131
 495 9 495 9 516 3 c 1,132,133
 515 6 515 6 511 -59 c 0,134,135
 510 -59 510 -59 506 -63 c 1,136,137
 533 -190 533 -190 533 -210 c 1,138,139
 519 -231 519 -231 503 -278 c 0,140,141
 502 -290 502 -290 530 -362 c 1,142,143
 569 -364 569 -364 647 -371 c 0,144,145
 661 -373 661 -373 690 -395 c 1,146,147
 695 -388 695 -388 711 -371 c 1,148,149
 736 -370 736 -370 781 -375 c 0,150,151
 830 -379 830 -379 852 -379 c 0,152,153
 856 -379 856 -379 870 -370.5 c 128,-1,154
 884 -362 884 -362 891 -360 c 0,155,156
 918 -355 918 -355 970 -340 c 0,157,158
 981 -336 981 -336 1007 -298 c 0,159,160
 1045 -244 1045 -244 1045 -244 c 1,161,162
 1103 -173 1103 -173 1102 -117 c 1,163,164
 1122 -121 1122 -121 1158 -132 c 1,0,1
295 1016 m 1,165,166
 294 1041 294 1041 294 1071 c 0,167,168
 294 1100 294 1100 296 1159 c 128,-1,169
 298 1218 298 1218 298 1247 c 0,170,171
 298 1376 298 1376 267 1451 c 1,172,173
 261 1440 261 1440 265 1408 c 0,174,175
 268 1385 268 1385 271 1362 c 0,176,177
 275 1236 275 1236 295 1016 c 1,165,166
EndSplineSet
EndChar

StartChar: M
Encoding: 77 77 26
Width: 1710
GlyphClass: 1
Flags: W
LayerCount: 2
Fore
SplineSet
1826 1569 m 0,0,1
 1806 1563 1806 1563 1763 1547 c 0,2,3
 1687 1512 1687 1512 1657 1460 c 0,4,5
 1638 1426 1638 1426 1650 1327 c 0,6,7
 1651 1323 1651 1323 1656 1312.5 c 128,-1,8
 1661 1302 1661 1302 1661 1297 c 1,9,10
 1661 1302 1661 1302 1641 1242 c 0,11,12
 1632 1211 1632 1211 1632 1178 c 2,13,-1
 1632 1008 l 2,14,15
 1632 1002 1632 1002 1637 995 c 128,-1,16
 1642 988 1642 988 1643 984 c 0,17,18
 1644 979 1644 979 1640 964.5 c 128,-1,19
 1636 950 1636 950 1636 944 c 2,20,-1
 1636 784 l 1,21,22
 1636 794 1636 794 1631 699 c 0,23,24
 1626 615 1626 615 1628 581 c 0,25,26
 1641 427 1641 427 1641 447 c 1,27,-1
 1641 221 l 2,28,29
 1641 166 1641 166 1634 117 c 1,30,31
 1626 92 1626 92 1615 42 c 1,32,33
 1607 -19 1607 -19 1615 -61 c 1,34,35
 1626 -91 1626 -91 1639 -151 c 1,36,37
 1634 -204 1634 -204 1637 -295 c 1,38,39
 1649 -359 1649 -359 1727 -390 c 0,40,41
 1754 -400 1754 -400 1811 -433 c 1,42,43
 1818 -446 1818 -446 1807.5 -474 c 128,-1,44
 1797 -502 1797 -502 1780 -501 c 0,45,46
 1718 -496 1718 -496 1657 -491 c 0,47,48
 1551 -483 1551 -483 1519 -484 c 0,49,50
 1510 -484 1510 -484 1498.5 -493 c 128,-1,51
 1487 -502 1487 -502 1485 -502 c 2,52,-1
 1344 -502 l 2,53,54
 1332 -502 1332 -502 1297.5 -505.5 c 128,-1,55
 1263 -509 1263 -509 1243 -509 c 0,56,57
 1188 -509 1188 -509 1157 -486 c 1,58,59
 1156 -455 1156 -455 1166 -410 c 1,60,61
 1197 -403 1197 -403 1250 -377 c 1,62,63
 1286 -346 1286 -346 1332 -279 c 0,64,65
 1354 -247 1354 -247 1352 -171 c 0,66,67
 1352 -164 1352 -164 1346 -145.5 c 128,-1,68
 1340 -127 1340 -127 1340 -121 c 2,69,-1
 1340 22 l 1,70,71
 1340 3 1340 3 1337 115 c 0,72,73
 1334 206 1334 206 1337 237 c 0,74,75
 1347 337 1347 337 1333 411 c 0,76,77
 1331 417 1331 417 1337 556 c 0,78,79
 1341 610 1341 610 1348 720 c 1,80,81
 1347 718 1347 718 1327 968 c 0,82,83
 1326 989 1326 989 1315 1023 c 1,84,85
 1296 972 1296 972 1281 918 c 0,86,87
 1244 796 1244 796 1179 555 c 1,88,89
 1178 522 1178 522 1167 455 c 1,90,91
 1141 392 1141 392 1099 261 c 1,92,93
 1099 216 1099 216 1092 127 c 1,94,95
 1069 50 1069 50 1024 -107 c 1,96,97
 1017 -177 1017 -177 986 -326 c 1,98,99
 972 -372 972 -372 930 -450 c 1,100,101
 922 -453 922 -453 907 -459 c 0,102,103
 872 -477 872 -477 816 -471 c 1,104,105
 806 -452 806 -452 790 -416 c 1,106,107
 769 -323 769 -323 721 -137 c 1,108,109
 705 -113 705 -113 679 -53 c 1,110,111
 684 -7 684 -7 677 72 c 1,112,113
 652 142 652 142 618 166 c 1,114,115
 620 187 620 187 620 209 c 0,116,117
 620 334 620 334 556 399 c 1,118,119
 549 427 549 427 535 475 c 1,120,121
 519 554 519 554 491 689 c 1,122,123
 473 739 473 739 440 838 c 1,124,125
 431 878 431 878 421 918 c 0,126,127
 408 965 408 965 383 992 c 1,128,129
 380 1035 380 1035 358 1100 c 1,130,131
 343 1096 343 1096 335 973 c 0,132,133
 332 925 332 925 342 827 c 0,134,135
 352 722 352 722 352 730 c 1,136,-1
 352 560 l 2,137,138
 352 506 352 506 349 314 c 0,139,140
 346 151 346 151 348 68 c 1,141,142
 354 43 354 43 364 -52 c 1,143,144
 364 -132 364 -132 380 -290 c 1,145,146
 391 -350 391 -350 460 -387 c 0,147,148
 500 -406 500 -406 544 -439 c 1,149,150
 554 -476 554 -476 534 -501 c 1,151,152
 509 -513 509 -513 460 -513 c 0,153,154
 440 -513 440 -513 309 -499 c 0,155,156
 286 -497 286 -497 249 -503 c 0,157,158
 202 -510 202 -510 189 -511 c 0,159,160
 142 -514 142 -514 43 -501 c 1,161,162
 25 -477 25 -477 25 -449 c 0,163,164
 25 -426 25 -426 42 -415 c 1,165,166
 66 -411 66 -411 109 -392 c 1,167,168
 135 -375 135 -375 173 -334 c 1,169,170
 195 -290 195 -290 203 -232 c 0,171,172
 210 -179 210 -179 217 -126 c 1,173,-1
 217 12 l 2,174,175
 217 107 217 107 214 88 c 1,176,177
 235 210 235 210 235 238 c 2,178,-1
 235 366 l 1,179,-1
 208 585 l 1,180,-1
 208 709 l 2,181,182
 208 715 208 715 211.5 728 c 128,-1,183
 215 741 215 741 215 745 c 0,184,185
 217 766 217 766 213 811 c 0,186,187
 208 860 208 860 208 860 c 1,188,-1
 208 1018 l 1,189,190
 208 1013 208 1013 214 1069 c 0,191,192
 219 1118 219 1118 215 1137 c 0,193,194
 214 1144 214 1144 206 1172 c 0,195,196
 199 1197 199 1197 199 1203 c 2,197,-1
 199 1346 l 2,198,199
 199 1350 199 1350 190.5 1382 c 128,-1,200
 182 1414 182 1414 181 1431 c 0,201,202
 181 1434 181 1434 153 1485 c 0,203,204
 128 1531 128 1531 104 1547 c 0,205,206
 97 1551 97 1551 46 1560 c 0,207,208
 40 1561 40 1561 40 1585 c 0,209,210
 39 1609 39 1609 44 1619 c 0,211,212
 61 1635 61 1635 95 1635 c 0,213,214
 141 1636 141 1636 149 1638 c 2,215,-1
 367 1633 l 1,216,217
 385 1627 385 1627 398 1627 c 0,218,219
 408 1627 408 1627 419 1630.5 c 128,-1,220
 430 1634 430 1634 435 1634 c 0,221,222
 450 1634 450 1634 477 1616 c 0,223,224
 493 1605 493 1605 521 1518 c 1,225,226
 530 1467 530 1467 545 1391 c 1,227,228
 558 1348 558 1348 583 1262 c 0,229,230
 600 1196 600 1196 635 1108 c 0,231,232
 696 950 696 950 781 645 c 0,233,234
 783 636 783 636 767 573 c 0,235,236
 762 566 762 566 752 553 c 1,237,238
 747 488 747 488 748 485 c 0,239,240
 753 472 753 472 811 455 c 1,241,242
 824 405 824 405 850 316 c 1,243,244
 864 285 864 285 891 217 c 1,245,246
 898 178 898 178 916 122 c 1,247,248
 932 151 932 151 950 186 c 1,249,250
 964 223 964 223 989 295 c 1,251,252
 989 308 989 308 992 335 c 0,253,254
 1008 419 1008 419 1060 549 c 1,255,256
 1064 577 1064 577 1076 634 c 1,257,258
 1098 688 1098 688 1131 808 c 1,259,260
 1139 870 1139 870 1147 934.5 c 128,-1,261
 1155 999 1155 999 1174 1047 c 1,262,263
 1189 1073 1189 1073 1210 1126 c 1,264,265
 1234 1265 1234 1265 1303 1525 c 1,266,267
 1305 1557 1305 1557 1325 1611 c 1,268,269
 1345 1633 1345 1633 1370.5 1633 c 128,-1,270
 1396 1633 1396 1633 1445 1634.5 c 128,-1,271
 1494 1636 1494 1636 1523 1636 c 0,272,273
 1527 1636 1527 1636 1538.5 1632 c 128,-1,274
 1550 1628 1550 1628 1554 1628 c 2,275,-1
 1793 1633 l 2,276,277
 1804 1635 1804 1635 1815.5 1615 c 128,-1,278
 1827 1595 1827 1595 1827 1578 c 0,279,280
 1827 1573 1827 1573 1826 1569 c 0,0,1
EndSplineSet
EndChar

StartChar: N
Encoding: 78 78 27
Width: 1575
GlyphClass: 1
Flags: W
LayerCount: 2
Fore
SplineSet
1276 259 m 1,0,-1
 1265 241 l 1,1,-1
 1258 250 l 1,2,-1
 1264 287 l 1,3,4
 1266 284 1266 284 1270 271.5 c 128,-1,5
 1274 259 1274 259 1276 259 c 1,0,-1
1722 1558 m 1,6,7
 1698 1553 1698 1553 1655 1540 c 0,8,9
 1609 1522 1609 1522 1584 1459 c 0,10,11
 1546 1365 1546 1365 1538 1276 c 0,12,13
 1522 1119 1522 1119 1522 1020 c 0,14,15
 1522 1013 1522 1013 1527 873 c 128,-1,16
 1532 733 1532 733 1532 725 c 2,17,-1
 1532 454 l 2,18,19
 1532 449 1532 449 1536 420.5 c 128,-1,20
 1540 392 1540 392 1539 375 c 0,21,22
 1532 171 1532 171 1532 145 c 0,23,24
 1532 132 1532 132 1536.5 90 c 128,-1,25
 1541 48 1541 48 1541 41 c 2,26,-1
 1541 -481 l 2,27,28
 1541 -490 1541 -490 1543 -491 c 128,-1,29
 1545 -492 1545 -492 1545 -494 c 0,30,31
 1461 -515 1461 -515 1469 -515 c 1,32,33
 1419 -515 1419 -515 1407 -500 c 0,34,35
 1324 -390 1324 -390 1162 -118 c 0,36,37
 1133 -64 1133 -64 1076 38 c 1,38,39
 1025 108 1025 108 939 242 c 1,40,41
 917 293 917 293 867 393 c 1,42,43
 759 578 759 578 560 939 c 1,44,45
 535 968 535 968 489 1031 c 1,46,47
 488 1042 488 1042 481 1064 c 0,48,49
 467 1096 467 1096 434 1161 c 1,50,51
 408 1144 408 1144 408 1109 c 1,52,53
 408 1110 408 1110 425 935 c 0,54,55
 426 925 426 925 422.5 904 c 128,-1,56
 419 883 419 883 419 875 c 0,57,58
 419 808 419 808 423 666 c 128,-1,59
 427 524 427 524 427 528 c 1,60,-1
 427 289 l 2,61,62
 427 280 427 280 429.5 116.5 c 128,-1,63
 432 -47 432 -47 432 -55 c 0,64,65
 432 -212 432 -212 458 -292 c 0,66,67
 498 -418 498 -418 610 -430 c 0,68,69
 615 -430 615 -430 626 -444 c 1,70,71
 628 -476 628 -476 621 -495 c 1,72,-1
 203 -495 l 2,73,74
 197 -496 197 -496 158 -505.5 c 128,-1,75
 119 -515 119 -515 113 -515 c 2,76,-1
 94 -515 l 1,77,78
 84 -500 84 -500 84 -496 c 0,79,80
 84 -454 84 -454 109 -433 c 1,81,82
 140 -419 140 -419 201 -383 c 1,83,84
 260 -337 260 -337 272 -235 c 0,85,86
 302 11 302 11 285 65 c 0,87,88
 277 89 277 89 282 106 c 0,89,90
 283 106 283 106 292 122 c 0,91,92
 292 123 292 123 284 138 c 1,93,94
 283 157 283 157 286 200 c 0,95,96
 289 251 289 251 289 270 c 0,97,98
 289 294 289 294 282 352.5 c 128,-1,99
 275 411 275 411 275 435 c 0,100,101
 275 450 275 450 277 485 c 0,102,103
 279 529 279 529 280 540 c 0,104,105
 279 545 279 545 269 573 c 1,106,-1
 275 582 l 2,107,108
 280 593 280 593 281 619 c 0,109,110
 283 625 283 625 281 631 c 0,111,112
 265 823 265 823 265 889 c 2,113,-1
 265 1124 l 1,114,115
 265 1124 265 1124 260.5 1225 c 128,-1,116
 256 1326 256 1326 256 1369 c 0,117,118
 256 1373 256 1373 260 1391 c 128,-1,119
 264 1409 264 1409 263 1420 c 1,120,121
 180 1544 180 1544 56 1544 c 0,122,123
 45 1544 45 1544 34 1543 c 1,124,-1
 28 1551 l 1,125,-1
 28 1607 l 1,126,127
 41 1628 41 1628 93 1628 c 0,128,129
 99 1628 99 1628 189.5 1621.5 c 128,-1,130
 280 1615 280 1615 285 1615 c 0,131,132
 291 1615 291 1615 376 1621.5 c 128,-1,133
 461 1628 461 1628 467 1628 c 0,134,135
 495 1628 495 1628 500 1626 c 0,136,137
 516 1616 516 1616 569 1515 c 0,138,139
 669 1317 669 1317 869 923 c 0,140,141
 910 851 910 851 991 705 c 1,142,143
 991 565 991 565 989 621 c 1,144,145
 992 556 992 556 1021 556 c 0,146,147
 1026 556 1026 556 1040.5 566 c 128,-1,148
 1055 576 1055 576 1061 576 c 0,149,150
 1077 576 1077 576 1104 514 c 0,151,152
 1116 482 1116 482 1128 450 c 1,153,154
 1215 350 1215 350 1237 298 c 1,155,156
 1243 269 1243 269 1254 213 c 1,157,158
 1264 195 1264 195 1269 195 c 0,159,160
 1276 195 1276 195 1282 201.5 c 128,-1,161
 1288 208 1288 208 1289 208 c 0,162,163
 1321 158 1321 158 1377 63 c 1,164,165
 1397 77 1397 77 1397 90 c 0,166,167
 1397 98 1397 98 1392.5 118 c 128,-1,168
 1388 138 1388 138 1388 146 c 2,169,-1
 1388 329 l 2,170,171
 1388 338 1388 338 1386.5 354 c 128,-1,172
 1385 370 1385 370 1384 395 c 1,173,174
 1389 427 1389 427 1391 487 c 1,175,176
 1386 536 1386 536 1375 632 c 0,177,178
 1374 645 1374 645 1378.5 682.5 c 128,-1,179
 1383 720 1383 720 1383 724 c 0,180,181
 1383 731 1383 731 1379.5 752 c 128,-1,182
 1376 773 1376 773 1375 783 c 0,183,184
 1373 813 1373 813 1376 866 c 0,185,186
 1379 932 1379 932 1379 954 c 0,187,188
 1379 963 1379 963 1373 983.5 c 128,-1,189
 1367 1004 1367 1004 1366 1013 c 0,190,191
 1366 1014 1366 1014 1370 1060 c 0,192,193
 1372 1073 1372 1073 1367 1110 c 0,194,195
 1361 1152 1361 1152 1361 1171 c 0,196,197
 1361 1179 1361 1179 1366 1204 c 0,198,199
 1370 1226 1370 1226 1369 1237 c 0,200,201
 1363 1307 1363 1307 1344 1440 c 1,202,203
 1327 1529 1327 1529 1207 1557 c 1,204,205
 1210 1587 1210 1587 1202 1619 c 1,206,207
 1216 1635 1216 1635 1288 1635 c 1,208,-1
 1506 1622 l 2,209,210
 1527 1622 1527 1622 1576 1628 c 128,-1,211
 1625 1634 1625 1634 1651 1634 c 0,212,213
 1693 1634 1693 1634 1722 1621 c 1,214,-1
 1722 1558 l 1,6,7
EndSplineSet
EndChar

StartChar: O
Encoding: 79 79 28
Width: 1766
GlyphClass: 1
Flags: W
LayerCount: 2
Fore
SplineSet
1875 660 m 0,0,1
 1875 586 1875 586 1870 547 c 1,2,3
 1858 517 1858 517 1844 454 c 1,4,5
 1842 392 1842 392 1816 322 c 1,6,7
 1796 295 1796 295 1756 238 c 1,8,9
 1744 198 1744 198 1698 125 c 1,10,11
 1661 87 1661 87 1583 9 c 1,12,13
 1572 5 1572 5 1553 -4 c 1,14,15
 1537 -20 1537 -20 1494 -50 c 1,16,17
 1281 -163 1281 -163 1088 -179 c 1,18,-1
 917 -179 l 1,19,20
 919 -179 919 -179 906 -170 c 1,21,22
 766 -167 766 -167 695 -131 c 1,23,24
 678 -128 678 -128 647 -118 c 0,25,26
 594 -98 594 -98 490 -45 c 1,27,28
 365 35 365 35 256 179 c 0,29,30
 195 260 195 260 148 387 c 0,31,32
 104 505 104 505 99 586 c 0,33,34
 90 724 90 724 109 856 c 1,35,36
 117 873 117 873 130 905 c 1,37,38
 138 943 138 943 158 1017 c 1,39,40
 186 1063 186 1063 233 1150 c 0,41,42
 240 1165 240 1165 240 1184 c 1,43,44
 246 1190 246 1190 266 1180 c 1,45,46
 272 1198 272 1198 265 1232 c 1,47,48
 283 1238 283 1238 314 1254 c 1,49,50
 323 1281 323 1281 363 1320 c 1,51,52
 440 1361 440 1361 598 1442 c 0,53,54
 639 1462 639 1462 701 1477 c 0,55,56
 859 1513 859 1513 917 1513 c 2,57,-1
 1019 1513 l 2,58,59
 1137 1513 1137 1513 1221 1490 c 0,60,61
 1266 1478 1266 1478 1421 1418 c 1,62,63
 1454 1397 1454 1397 1524 1352 c 0,64,65
 1625 1288 1625 1288 1708 1174 c 0,66,67
 1782 1073 1782 1073 1805 988 c 1,68,69
 1815 974 1815 974 1831 944 c 1,70,71
 1859 866 1859 866 1864 714 c 0,72,73
 1864 709 1864 709 1869.5 690 c 128,-1,74
 1875 671 1875 671 1875 660 c 0,0,1
1587 626 m 0,75,76
 1574 790 1574 790 1523 925 c 0,77,78
 1456 1100 1456 1100 1366 1199 c 0,79,80
 1239 1339 1239 1339 1088 1364 c 0,81,82
 945 1388 945 1388 892 1381 c 0,83,84
 788 1367 788 1367 715 1335 c 0,85,86
 706 1331 706 1331 598 1266 c 1,87,88
 590 1253 590 1253 573 1235 c 1,89,90
 563 1232 563 1232 550 1227 c 1,91,92
 524 1193 524 1193 486 1135 c 0,93,94
 480 1119 480 1119 468 1091 c 1,95,96
 448 1060 448 1060 427 1017 c 1,97,98
 414 969 414 969 391 873 c 1,99,100
 392 836 392 836 389 763 c 0,101,102
 389 759 389 759 384 745.5 c 128,-1,103
 379 732 379 732 379 728 c 0,104,105
 398 642 398 642 431 493 c 1,106,107
 429 483 429 483 427 469 c 1,108,109
 436 451 436 451 453 419 c 1,110,111
 454 402 454 402 461 375 c 1,112,113
 516 266 516 266 517 263 c 0,114,115
 557 196 557 196 625 135 c 0,116,117
 626 134 626 134 641 81 c 1,118,119
 647 81 647 81 686 74 c 1,120,121
 749 15 749 15 783 -6 c 0,122,123
 829 -33 829 -33 953 -41 c 0,124,125
 1052 -48 1052 -48 1132 -40 c 0,126,127
 1152 -34 1152 -34 1186 -24 c 0,128,129
 1229 -14 1229 -14 1309 19 c 1,130,131
 1328 36 1328 36 1358 60 c 1,132,133
 1409 91 1409 91 1455 150 c 128,-1,134
 1501 209 1501 209 1512 258 c 1,135,136
 1525 273 1525 273 1543 302 c 1,137,138
 1545 327 1545 327 1551 361 c 1,139,140
 1559 369 1559 369 1567 386 c 1,141,142
 1569 415 1569 415 1580 515 c 0,143,144
 1589 596 1589 596 1587 626 c 0,75,76
EndSplineSet
EndChar

StartChar: P
Encoding: 80 80 29
Width: 1185
GlyphClass: 1
Flags: W
LayerCount: 2
Fore
SplineSet
1212 1194 m 0,0,1
 1223 1123 1223 1123 1199 879 c 0,2,3
 1190 794 1190 794 1128 674 c 0,4,5
 1068 558 1068 558 1005 498 c 0,6,7
 949 445 949 445 847 422 c 1,8,9
 822 405 822 405 773 386 c 1,10,11
 677 376 677 376 532 376 c 0,12,13
 525 376 525 376 513 354 c 1,14,15
 517 290 517 290 524 -57 c 0,16,17
 525 -124 525 -124 542 -233 c 1,18,19
 542 -265 542 -265 554 -324 c 1,20,21
 579 -385 579 -385 634 -411 c 0,22,23
 679 -430 679 -430 724 -448 c 1,24,25
 725 -466 725 -466 722 -492 c 1,26,27
 688 -512 688 -512 652 -512 c 2,28,-1
 528 -512 l 2,29,30
 526 -512 526 -512 496.5 -503.5 c 128,-1,31
 467 -495 467 -495 454 -495 c 0,32,33
 418 -495 418 -495 340.5 -503.5 c 128,-1,34
 263 -512 263 -512 264 -512 c 1,35,-1
 145 -512 l 2,36,37
 127 -512 127 -512 102 -496 c 0,38,39
 101 -492 101 -492 98.5 -477 c 128,-1,40
 96 -462 96 -462 96 -455 c 1,41,42
 158 -431 158 -431 171 -421 c 0,43,44
 215 -392 215 -392 242 -324 c 0,45,46
 254 -294 254 -294 258 -169 c 0,47,48
 259 -149 259 -149 267 -64 c 0,49,50
 274 13 274 13 274 54 c 0,51,52
 274 264 274 264 274 264 c 2,53,54
 275 288 275 288 272 336 c 0,55,56
 270 389 270 389 270 412 c 0,57,58
 270 507 270 507 299 572 c 1,59,60
 289 583 289 583 277 617 c 1,61,62
 268 708 268 708 268 807 c 0,63,64
 268 814 268 814 275 850 c 128,-1,65
 282 886 282 886 282 908 c 0,66,67
 282 924 282 924 279 937 c 0,68,69
 260 1010 260 1010 274 1122 c 0,70,71
 278 1154 278 1154 258 1324 c 1,72,73
 258 1378 258 1378 238 1466 c 1,74,75
 212 1511 212 1511 170 1524 c 0,76,77
 135 1534 135 1534 101 1545 c 1,78,79
 101 1641 101 1641 98 1585 c 1,80,81
 99 1612 99 1612 121 1613 c 0,82,83
 169 1617 169 1617 275 1630 c 0,84,85
 372 1642 372 1642 376 1642 c 2,86,-1
 527 1642 l 2,87,88
 570 1642 570 1642 615 1652.5 c 128,-1,89
 660 1663 660 1663 692 1663 c 0,90,91
 731 1663 731 1663 791 1653 c 1,92,93
 829 1641 829 1641 903 1620 c 1,94,95
 909 1613 909 1613 926 1604 c 1,96,97
 1039 1579 1039 1579 1126 1451 c 0,98,99
 1188 1358 1188 1358 1212 1194 c 0,0,1
958 1003 m 0,100,101
 958 1059 958 1059 953 1077 c 0,102,103
 894 1300 894 1300 853 1363 c 0,104,105
 774 1485 774 1485 646 1485 c 0,106,107
 626 1485 626 1485 578 1482 c 0,108,109
 568 1482 568 1482 545 1464 c 1,110,111
 526 1175 526 1175 522 997 c 1,112,113
 527 983 527 983 533 958 c 1,114,115
 533 904 533 904 526 817 c 128,-1,116
 519 730 519 730 519 680 c 0,117,118
 519 616 519 616 527 544 c 0,119,120
 530 538 530 538 536 529 c 1,121,-1
 652 529 l 1,122,123
 672 522 672 522 694 522 c 0,124,125
 764 522 764 522 829 586 c 0,126,127
 892 647 892 647 907 688 c 0,128,129
 958 827 958 827 958 1003 c 0,100,101
EndSplineSet
EndChar

StartChar: Q
Encoding: 81 81 30
Width: 1892
GlyphClass: 1
Flags: W
LayerCount: 2
Fore
SplineSet
2123 -415 m 1,0,1
 2103 -438 2103 -438 2001 -458 c 0,2,3
 1944 -469 1944 -469 1829 -492 c 0,4,5
 1791 -500 1791 -500 1753 -500 c 0,6,7
 1728 -500 1728 -500 1578 -472 c 1,8,9
 1553 -472 1553 -472 1504 -464 c 1,10,11
 1497 -457 1497 -457 1480 -448 c 1,12,13
 1428 -438 1428 -438 1347 -401 c 0,14,15
 1226 -346 1226 -346 1216 -341 c 1,16,17
 1210 -330 1210 -330 1195 -305 c 1,18,19
 1182 -305 1182 -305 1161 -297 c 1,20,21
 1142 -277 1142 -277 1102 -253 c 0,22,23
 1070 -235 1070 -235 1050 -200 c 0,24,25
 1042 -185 1042 -185 1029 -183 c 0,26,27
 963 -175 963 -175 853 -173 c 0,28,29
 806 -173 806 -173 710 -134 c 0,30,31
 650 -112 650 -112 590 -90 c 0,32,33
 514 -59 514 -59 469 -23 c 0,34,35
 215 184 215 184 153 433 c 1,36,37
 133 484 133 484 112 585 c 1,38,39
 107 750 107 750 122 855 c 1,40,41
 130 873 130 873 143 905 c 1,42,43
 151 943 151 943 171 1018 c 1,44,45
 200 1064 200 1064 246 1150 c 0,46,47
 253 1165 253 1165 253 1184 c 1,48,49
 259 1191 259 1191 279 1181 c 1,50,51
 285 1198 285 1198 279 1233 c 1,52,53
 296 1238 296 1238 327 1255 c 1,54,55
 337 1282 337 1282 377 1321 c 1,56,57
 454 1363 454 1363 612 1444 c 0,58,59
 653 1464 653 1464 715 1478 c 0,60,61
 874 1514 874 1514 932 1514 c 2,62,-1
 1034 1514 l 2,63,64
 1152 1514 1152 1514 1237 1491 c 0,65,66
 1279 1480 1279 1480 1437 1419 c 1,67,68
 1471 1398 1471 1398 1541 1353 c 0,69,70
 1642 1289 1642 1289 1725 1175 c 0,71,72
 1799 1074 1799 1074 1822 988 c 1,73,74
 1833 974 1833 974 1849 944 c 1,75,76
 1877 866 1877 866 1881 713 c 0,77,78
 1881 708 1881 708 1887 689 c 128,-1,79
 1893 670 1893 670 1893 659 c 0,80,81
 1893 585 1893 585 1888 546 c 1,82,83
 1875 516 1875 516 1862 453 c 1,84,85
 1859 390 1859 390 1834 320 c 1,86,87
 1813 294 1813 294 1773 236 c 1,88,89
 1762 197 1762 197 1716 123 c 1,90,91
 1682 80 1682 80 1600 6 c 1,92,93
 1504 -54 1504 -54 1365 -126 c 1,94,95
 1374 -157 1374 -157 1425 -196 c 0,96,97
 1488 -243 1488 -243 1497 -254 c 0,98,99
 1506 -259 1506 -259 1524 -267 c 0,100,101
 1531 -270 1531 -270 1509 -306 c 1,102,103
 1529 -307 1529 -307 1546 -293 c 128,-1,104
 1563 -279 1563 -279 1563 -279 c 1,105,106
 1569 -283 1569 -283 1585 -291 c 0,107,108
 1648 -326 1648 -326 1766 -376 c 1,109,110
 1802 -377 1802 -377 1878 -384 c 0,111,112
 1898 -387 1898 -387 1946 -387 c 0,113,114
 1951 -387 1951 -387 1964 -393.5 c 128,-1,115
 1977 -400 1977 -400 1986 -401 c 0,116,117
 2041 -405 2041 -405 2119 -388 c 1,118,119
 2119 -427 2119 -427 2123 -415 c 1,0,1
1604 625 m 0,120,121
 1591 790 1591 790 1540 925 c 0,122,123
 1473 1100 1473 1100 1383 1200 c 0,124,125
 1255 1340 1255 1340 1104 1365 c 0,126,127
 960 1389 960 1389 907 1382 c 0,128,129
 803 1369 803 1369 730 1336 c 0,130,131
 721 1332 721 1332 612 1267 c 1,132,133
 604 1254 604 1254 587 1236 c 1,134,135
 577 1233 577 1233 564 1228 c 1,136,137
 538 1194 538 1194 500 1136 c 0,138,139
 494 1120 494 1120 482 1091 c 1,140,141
 462 1060 462 1060 440 1017 c 1,142,143
 427 969 427 969 404 873 c 1,144,145
 405 836 405 836 403 762 c 0,146,147
 403 758 403 758 397.5 745 c 128,-1,148
 392 732 392 732 393 727 c 0,149,150
 412 642 412 642 445 492 c 0,151,152
 444 490 444 490 434 490 c 0,153,154
 411 490 411 490 317 499 c 0,155,156
 276 502 276 502 234 505 c 1,157,158
 236 499 236 499 296.5 479.5 c 128,-1,159
 357 460 357 460 393 457 c 1,160,-1
 326 428 l 1,161,-1
 370 415 l 1,162,-1
 432 469 l 1,163,-1
 455 439 l 1,164,165
 466 437 466 437 466 430 c 0,166,167
 467 418 467 418 467 418 c 2,168,169
 468 401 468 401 475 374 c 1,170,171
 530 264 530 264 531 261 c 0,172,173
 571 194 571 194 639 133 c 0,174,175
 640 132 640 132 656 79 c 1,176,177
 661 78 661 78 700 72 c 1,178,179
 764 12 764 12 798 -8 c 0,180,181
 844 -36 844 -36 969 -44 c 0,182,183
 1068 -50 1068 -50 1148 -43 c 1,184,185
 1168 -36 1168 -36 1202 -26 c 0,186,187
 1245 -17 1245 -17 1325 16 c 1,188,189
 1344 33 1344 33 1374 57 c 1,190,191
 1425 89 1425 89 1471.5 148 c 128,-1,192
 1518 207 1518 207 1528 257 c 1,193,194
 1542 272 1542 272 1560 301 c 1,195,196
 1562 325 1562 325 1567 359 c 1,197,198
 1576 367 1576 367 1584 384 c 1,199,200
 1586 414 1586 414 1597 514 c 0,201,202
 1606 595 1606 595 1604 625 c 0,120,121
EndSplineSet
EndChar

StartChar: R
Encoding: 82 82 31
Width: 1424
GlyphClass: 1
Flags: W
LayerCount: 2
Fore
SplineSet
1915 -255 m 1,0,1
 1915 -267 1915 -267 1914 -279 c 0,2,3
 1912 -294 1912 -294 1899.5 -298.5 c 128,-1,4
 1887 -303 1887 -303 1848 -308 c 0,5,6
 1835 -310 1835 -310 1793 -323 c 0,7,8
 1755 -335 1755 -335 1736 -335 c 0,9,10
 1729 -335 1729 -335 1723 -333.5 c 128,-1,11
 1717 -332 1717 -332 1704 -322 c 0,12,13
 1687 -310 1687 -310 1690 -302 c 1,14,15
 1679 -296 1679 -296 1648 -305 c 1,16,17
 1669 -316 1669 -316 1699 -333 c 1,18,19
 1624 -337 1624 -337 1598 -319 c 1,20,21
 1600 -310 1600 -310 1605 -291 c 0,22,23
 1604 -290 1604 -290 1599 -287 c 1,24,25
 1604 -286 1604 -286 1515 -278 c 0,26,27
 1515 -277 1515 -277 1508 -283 c 1,28,29
 1516 -287 1516 -287 1531 -294 c 1,30,31
 1486 -296 1486 -296 1474 -288 c 1,32,33
 1462 -272 1462 -272 1450 -257 c 0,34,35
 1427 -231 1427 -231 1409 -235 c 1,36,37
 1386 -204 1386 -204 1300 -120 c 0,38,39
 1225 -48 1225 -48 1222 -32 c 1,40,41
 1212 -26 1212 -26 1197 -11 c 0,42,43
 1182 8 1182 8 1161 48 c 0,44,45
 1157 58 1157 58 1145 59 c 1,46,47
 1131 103 1131 103 1083 136 c 1,48,49
 1091 148 1091 148 1085 157 c 0,50,51
 1060 186 1060 186 1034 216 c 0,52,53
 1000 256 1000 256 1000 285 c 0,54,55
 1000 290 1000 290 1001 295 c 0,56,57
 1004 298 1004 298 1023 294 c 0,58,59
 1028 290 1028 290 1038 283 c 1,60,61
 1060 287 1060 287 1073 299 c 1,62,63
 1091 283 1091 283 1120 250 c 1,64,65
 1135 253 1135 253 1135 268 c 0,66,67
 1135 294 1135 294 1106 293 c 1,68,69
 1108 295 1108 295 1110.5 300 c 128,-1,70
 1113 305 1113 305 1115 306 c 0,71,72
 1121 301 1121 301 1135 292 c 1,73,74
 1143 292 1143 292 1147 298 c 0,75,76
 1150 310 1150 310 1147 328 c 1,77,78
 1123 348 1123 348 1091 348 c 0,79,80
 1073 348 1073 348 1038 339.5 c 128,-1,81
 1003 331 1003 331 988 331 c 0,82,83
 969 331 969 331 955 339 c 0,84,85
 920 359 920 359 909 409 c 1,86,87
 904 413 904 413 896 420 c 0,88,89
 897 424 897 424 898 428 c 0,90,91
 898 444 898 444 881 456 c 128,-1,92
 864 468 864 468 849 468 c 0,93,94
 792 467 792 467 695 468 c 0,95,96
 581 469 581 469 541 469 c 0,97,98
 532 469 532 469 532 460 c 0,99,100
 530 402 530 402 532 394 c 2,101,-1
 532 265 l 1,102,103
 532 265 532 265 534 209 c 128,-1,104
 536 153 536 153 536 125 c 0,105,106
 536 121 536 121 531.5 109 c 128,-1,107
 527 97 527 97 529 90 c 0,108,109
 538 77 538 77 550 48 c 1,110,111
 561 -25 561 -25 557 -46 c 1,112,113
 543 -56 543 -56 512 -78 c 1,114,115
 512 -84 512 -84 515 -86 c 0,116,117
 571 -87 571 -87 694 -109 c 0,118,119
 704 -112 704 -112 724 -119 c 1,120,121
 726 -127 726 -127 721 -160 c 1,122,123
 705 -172 705 -172 693 -172 c 0,124,125
 663 -172 663 -172 533 -153 c 1,126,-1
 316 -149 l 1,127,128
 295 -155 295 -155 250 -161 c 1,129,130
 179 -164 179 -164 81 -164 c 1,131,132
 81 -147 81 -147 82 -115 c 1,133,134
 114 -102 114 -102 175 -86 c 0,135,136
 207 -78 207 -78 243 -33.5 c 128,-1,137
 279 11 279 11 281 40 c 0,138,139
 294 179 294 179 294 192 c 2,140,-1
 294 910 l 2,141,142
 294 914 294 914 291 934 c 128,-1,143
 288 954 288 954 288 961 c 0,144,145
 287 974 287 974 292 1022 c 128,-1,146
 297 1070 297 1070 297 1098 c 0,147,148
 297 1110 297 1110 293 1144 c 0,149,150
 288 1182 288 1182 288 1199 c 0,151,152
 286 1228 286 1228 277 1284 c 1,153,154
 270 1298 270 1298 258 1327 c 1,155,156
 249 1362 249 1362 179 1381 c 0,157,158
 170 1385 170 1385 148 1394 c 1,159,160
 130 1394 130 1394 97 1396 c 1,161,162
 73 1412 73 1412 90 1444 c 1,163,164
 119 1451 119 1451 176 1460 c 1,165,166
 338 1473 338 1473 363 1473 c 2,167,-1
 506 1473 l 2,168,169
 510 1473 510 1473 562.5 1479 c 128,-1,170
 615 1485 615 1485 620 1485 c 2,171,-1
 700 1485 l 2,172,173
 705 1485 705 1485 732 1482 c 0,174,175
 763 1479 763 1479 775 1478 c 0,176,177
 794 1481 794 1481 830 1483 c 1,178,179
 933 1470 933 1470 1063 1440 c 0,180,181
 1111 1429 1111 1429 1257 1313 c 0,182,183
 1262 1305 1262 1305 1257 1291 c 1,184,185
 1240 1274 1240 1274 1188.5 1247.5 c 128,-1,186
 1137 1221 1137 1221 1119 1202 c 1,187,188
 1121 1190 1121 1190 1142 1187 c 0,189,190
 1160 1185 1160 1185 1175 1190 c 1,191,192
 1177 1196 1177 1196 1187 1203 c 1,193,194
 1215 1208 1215 1208 1227 1208 c 1,195,196
 1232 1191 1232 1191 1250 1173 c 1,197,198
 1266 1178 1266 1178 1266 1194 c 0,199,200
 1265 1209 1265 1209 1251 1222 c 1,201,202
 1265 1226 1265 1226 1280 1222 c 0,203,204
 1301 1216 1301 1216 1317 1216 c 1,205,206
 1327 1164 1327 1164 1338 1112 c 0,207,208
 1352 1042 1352 1042 1352 995 c 0,209,210
 1352 955 1352 955 1343 922 c 0,211,212
 1329 868 1329 868 1285 762 c 1,213,214
 1259 716 1259 716 1187 629 c 0,215,216
 1185 626 1185 626 1093 556 c 1,217,218
 1121 503 1121 503 1172 439 c 0,219,220
 1212 389 1212 389 1234 348 c 0,221,222
 1258 303 1258 303 1271 285 c 0,223,224
 1273 278 1273 278 1278 267 c 0,225,226
 1334 199 1334 199 1439 64 c 0,227,228
 1442 58 1442 58 1439 53 c 1,229,230
 1481 21 1481 21 1544 -38 c 0,231,232
 1572 -66 1572 -66 1621 -123 c 1,233,234
 1589 -126 1589 -126 1589 -153 c 0,235,236
 1589 -178 1589 -178 1614 -188 c 1,237,238
 1619 -152 1619 -152 1645 -152 c 0,239,240
 1649 -152 1649 -152 1653 -153 c 128,-1,241
 1657 -154 1657 -154 1702 -176 c 0,242,243
 1769 -209 1769 -209 1836 -242 c 0,244,245
 1865 -254 1865 -254 1915 -255 c 1,0,1
1051 315 m 1,246,247
 1039 301 1039 301 1028 304 c 1,248,249
 1030 315 1030 315 1042 320 c 0,250,251
 1044 319 1044 319 1051 315 c 1,246,247
1111 934 m 1,252,253
 1084 943 1084 943 1084 961 c 2,254,-1
 1084 1067 l 2,255,256
 1084 1072 1084 1072 1081 1079.5 c 128,-1,257
 1078 1087 1078 1087 1077 1090 c 0,258,259
 1071 1154 1071 1154 1013 1235 c 0,260,261
 949 1324 949 1324 880 1338 c 0,262,263
 870 1344 870 1344 853 1351 c 0,264,265
 752 1372 752 1372 739 1372 c 2,266,-1
 651 1372 l 2,267,268
 601 1372 601 1372 560 1359 c 0,269,270
 556 1357 556 1357 537 1335 c 1,271,272
 544 1276 544 1276 543 1269 c 0,273,274
 543 1268 543 1268 539.5 1263 c 128,-1,275
 536 1258 536 1258 536 1253 c 2,276,-1
 536 1114 l 2,277,278
 536 1109 536 1109 530 1096.5 c 128,-1,279
 524 1084 524 1084 525 1078 c 0,280,281
 531 1054 531 1054 538 1031 c 0,282,283
 545 1005 545 1005 538 985 c 0,284,285
 522 938 522 938 534 860 c 1,286,287
 532 876 532 876 532 813 c 2,288,-1
 532 670 l 2,289,290
 532 657 532 657 529 638 c 0,291,292
 527 624 527 624 528 615 c 0,293,294
 531 602 531 602 541 580 c 1,295,296
 565 573 565 573 611 563 c 1,297,-1
 806 559 l 1,298,299
 837 572 837 572 900 596 c 0,300,301
 924 603 924 603 963 622 c 1,302,303
 1022 676 1022 676 1047 723 c 0,304,305
 1068 761 1068 761 1079 825 c 0,306,307
 1080 844 1080 844 1086 883 c 0,308,309
 1088 898 1088 898 1093 922 c 0,310,311
 1098 937 1098 937 1111 934 c 1,252,253
EndSplineSet
EndChar

StartChar: S
Encoding: 83 83 32
Width: 1196
GlyphClass: 1
Flags: W
LayerCount: 2
Fore
SplineSet
1139 8 m 0,0,1
 1137 -46 1137 -46 1068 -234 c 0,2,3
 1063 -248 1063 -248 1026 -298 c 0,4,5
 931 -426 931 -426 859 -453 c 1,6,7
 842 -464 842 -464 806 -482 c 0,8,9
 697 -524 697 -524 528 -524 c 0,10,11
 480 -524 480 -524 440 -519 c 1,12,13
 437 -497 437 -497 448 -465 c 1,14,15
 404 -422 404 -422 371 -422 c 0,16,17
 345 -422 345 -422 324 -448 c 1,18,19
 344 -463 344 -463 363 -463 c 1,20,21
 365 -484 365 -484 348 -492 c 0,22,23
 333 -499 333 -499 312 -492 c 0,24,25
 303 -489 303 -489 157 -432 c 0,26,27
 135 -426 135 -426 114 -419 c 0,28,29
 84 -408 84 -408 68 -387 c 1,30,31
 68 -387 68 -387 56 -307 c 0,32,33
 46 -255 46 -255 32 -134 c 1,34,35
 32 -57 32 -57 32 93 c 0,36,37
 31 193 31 193 73 193 c 0,38,39
 80 193 80 193 88 189 c 1,40,41
 92 97 92 97 121 -85 c 1,42,43
 131 -103 131 -103 149 -137 c 0,44,45
 184 -221 184 -221 262 -268 c 0,46,47
 302 -293 302 -293 398 -324 c 0,48,49
 418 -330 418 -330 491 -350 c 0,50,51
 541 -364 541 -364 627 -371 c 1,52,53
 652 -332 652 -332 705 -320 c 0,54,55
 775 -305 775 -305 800 -287 c 0,56,57
 817 -276 817 -276 835 -230 c 0,58,59
 850 -192 850 -192 864 -153 c 0,60,61
 873 -120 873 -120 893 -48 c 1,62,63
 891 -36 891 -36 889 -12 c 0,64,65
 890 45 890 45 862 114 c 0,66,67
 832 189 832 189 788 218 c 1,68,69
 779 238 779 238 756 267 c 1,70,71
 698 306 698 306 587 370 c 1,72,73
 564 391 564 391 516 425 c 1,74,75
 359 501 359 501 240 618 c 0,76,77
 194 664 194 664 152 749 c 0,78,79
 151 759 151 759 145 780 c 0,80,81
 139 791 139 791 126 802 c 0,82,83
 125 804 125 804 121 812 c 0,84,85
 120 841 120 841 120 870 c 0,86,87
 116 908 116 908 99 928 c 1,88,89
 100 968 100 968 103 1049 c 1,90,91
 98 1054 98 1054 90 1064 c 1,92,93
 88 1073 88 1073 90 1098 c 1,94,95
 96 1106 96 1106 105 1119 c 0,96,97
 105 1120 105 1120 131 1232 c 0,98,99
 146 1301 146 1301 206 1352 c 1,100,101
 211 1344 211 1344 224 1326 c 1,102,103
 228 1352 228 1352 250 1398 c 1,104,105
 344 1503 344 1503 445 1560 c 1,106,107
 476 1561 476 1561 530 1565 c 0,108,109
 588 1570 588 1570 695 1586 c 1,110,111
 699 1582 699 1582 709 1574 c 1,112,113
 766 1564 766 1564 877 1553 c 1,114,115
 957 1550 957 1550 974 1553 c 0,116,117
 1051 1565 1051 1565 1041 1565 c 1,118,119
 1062 1565 1062 1565 1074 1555 c 0,120,121
 1074 1554 1074 1554 1047 985 c 1,122,123
 1032 976 1032 976 995 979 c 1,124,125
 982 1036 982 1036 982 1065 c 0,126,127
 983 1157 983 1157 940 1243 c 0,128,129
 894 1339 894 1339 818 1371 c 0,130,131
 755 1398 755 1398 667 1398 c 0,132,133
 571 1398 571 1398 518 1369 c 1,134,135
 508 1370 508 1370 491 1366 c 1,136,137
 439 1335 439 1335 397 1269 c 0,138,139
 353 1200 353 1200 352 1144 c 0,140,141
 351 1134 351 1134 358.5 1103 c 128,-1,142
 366 1072 366 1072 367 1055 c 0,143,144
 367 951 367 951 461 854 c 0,145,146
 503 811 503 811 602 743 c 1,147,148
 648 723 648 723 735 677 c 1,149,150
 972 534 972 534 1063 389 c 1,151,152
 1071 367 1071 367 1093 315 c 0,153,154
 1109 278 1109 278 1124 193 c 0,155,156
 1142 93 1142 93 1139 8 c 0,0,1
EndSplineSet
EndChar

StartChar: T
Encoding: 84 84 33
Width: 1458
GlyphClass: 1
Flags: W
LayerCount: 2
Fore
SplineSet
1683 1274 m 1,0,1
 1683 1274 1683 1274 1677 1262 c 1,2,3
 1665 1253 1665 1253 1627 1256 c 1,4,-1
 1617 1266 l 1,5,6
 1632 1292 1632 1292 1630 1298 c 0,7,8
 1604 1371 1604 1371 1566 1422 c 0,9,10
 1520 1485 1520 1485 1437 1497 c 1,11,12
 1426 1503 1426 1503 1407 1511 c 0,13,14
 1388 1516 1388 1516 1346 1510 c 0,15,16
 1301 1503 1301 1503 1283 1507 c 0,17,18
 1276 1508 1276 1508 1257 1501 c 0,19,20
 1234 1493 1234 1493 1226 1493 c 0,21,22
 1199 1487 1199 1487 1143 1480 c 0,23,24
 1112 1480 1112 1480 1052 1478 c 0,25,26
 1040 1477 1040 1477 1022 1458.5 c 128,-1,27
 1004 1440 1004 1440 1001 1427 c 1,28,29
 1003 1404 1003 1404 1003 1361 c 1,30,31
 991 1325 991 1325 976 1257 c 1,32,33
 969 1199 969 1199 986 1130 c 1,34,35
 989 1090 989 1090 996 1009 c 1,36,-1
 992 799 l 1,37,38
 1004 762 1004 762 1004 750 c 0,39,40
 1004 732 1004 732 991 711 c 0,41,42
 976 687 976 687 975 683 c 0,43,44
 980 674 980 674 1002 667 c 1,45,46
 1009 656 1009 656 1007 645 c 0,47,48
 1006 639 1006 639 980 612 c 1,49,50
 989 596 989 596 999 562 c 1,51,52
 1003 512 1003 512 990 483 c 0,53,54
 975 448 975 448 975 413 c 0,55,56
 975 391 975 391 983.5 351.5 c 128,-1,57
 992 312 992 312 992 291 c 0,58,59
 992 262 992 262 980 234 c 0,60,61
 975 221 975 221 976 215 c 0,62,63
 986 205 986 205 998 202 c 1,64,65
 1007 192 1007 192 1004 177 c 0,66,67
 994 136 994 136 980 53 c 0,68,69
 980 51 980 51 994 -146 c 1,70,71
 992 -181 992 -181 993 -249 c 1,72,73
 999 -302 999 -302 1030 -360 c 1,74,75
 1041 -367 1041 -367 1056 -380 c 1,76,77
 1070 -407 1070 -407 1107 -454 c 1,78,79
 1128 -472 1128 -472 1156 -478 c 0,80,81
 1189 -481 1189 -481 1254 -489 c 1,82,83
 1264 -500 1264 -500 1256 -516 c 1,84,-1
 978 -516 l 2,85,86
 973 -516 973 -516 930 -510 c 128,-1,87
 887 -504 887 -504 882 -504 c 2,88,-1
 701 -504 l 2,89,90
 699 -504 699 -504 659.5 -512 c 128,-1,91
 620 -520 620 -520 601 -520 c 0,92,93
 461 -520 461 -520 438 -516 c 1,94,95
 435 -511 435 -511 435 -506 c 0,96,97
 435 -480 435 -480 497 -472 c 0,98,99
 525 -470 525 -470 579 -449 c 1,100,101
 650 -394 650 -394 676 -327 c 0,102,103
 690 -291 690 -291 692 -240 c 0,104,105
 695 -164 695 -164 695 -162 c 0,106,107
 701 -143 701 -143 713 -108 c 1,108,109
 707 -93 707 -93 707 -66 c 1,110,111
 727 -26 727 -26 727 27 c 0,112,113
 727 77 727 77 712 110 c 0,114,115
 707 120 707 120 709 161 c 0,116,117
 712 224 712 224 724 360 c 0,118,119
 724 364 724 364 730 392 c 0,120,121
 735 414 735 414 734 433 c 0,122,123
 730 439 730 439 724 450 c 0,124,125
 723 454 723 454 728.5 464.5 c 128,-1,126
 734 475 734 475 734 479 c 0,127,128
 734 636 734 636 732 625 c 1,129,130
 739 674 739 674 738 678 c 0,131,132
 733 684 733 684 728 699 c 1,133,134
 730 726 730 726 729 782 c 0,135,136
 726 834 726 834 734 877 c 0,137,138
 739 907 739 907 751 915.5 c 128,-1,139
 763 924 763 924 781 924 c 0,140,141
 794 924 794 924 823 915 c 128,-1,142
 852 906 852 906 867 906 c 0,143,144
 890 906 890 906 909 923 c 1,145,146
 903 940 903 940 869 948 c 0,147,148
 842 953 842 953 815 959 c 1,149,150
 810 966 810 966 794 977 c 1,151,152
 773 977 773 977 732 1000 c 1,153,154
 734 1019 734 1019 734 1113 c 0,155,156
 734 1119 734 1119 731.5 1144.5 c 128,-1,157
 729 1170 729 1170 729 1183 c 0,158,159
 729 1197 729 1197 731 1239 c 0,160,161
 732 1274 732 1274 731 1295 c 0,162,163
 731 1306 731 1306 721 1309 c 0,164,165
 707 1315 707 1315 702 1319 c 0,166,167
 701 1321 701 1321 701 1324 c 0,168,169
 701 1331 701 1331 712.5 1342 c 128,-1,170
 724 1353 724 1353 725 1358 c 0,171,172
 733 1383 733 1383 730 1460 c 1,173,174
 714 1475 714 1475 691 1475 c 0,175,176
 685 1475 685 1475 673.5 1474 c 128,-1,177
 662 1473 662 1473 656 1473 c 0,178,179
 623 1473 623 1473 604 1507 c 1,180,181
 582 1488 582 1488 531 1464 c 0,182,183
 520 1462 520 1462 508 1462 c 0,184,185
 487 1462 487 1462 449 1469.5 c 128,-1,186
 411 1477 411 1477 393 1477 c 0,187,188
 364 1477 364 1477 341 1464 c 0,189,190
 336 1461 336 1461 262 1445 c 0,191,192
 253 1443 253 1443 224 1415 c 1,193,194
 182 1365 182 1365 90 1256 c 0,195,196
 86 1251 86 1251 70 1201 c 0,197,198
 57 1161 57 1161 36 1161 c 0,199,200
 25 1161 25 1161 11 1170 c 1,201,202
 10 1182 10 1182 20 1211 c 0,203,204
 33 1245 33 1245 34 1250 c 0,205,206
 44 1310 44 1310 67 1432 c 0,207,208
 68 1434 68 1434 74 1531 c 0,209,210
 78 1594 78 1594 103 1622 c 1,211,212
 179 1635 179 1635 216 1632 c 1,213,214
 230 1625 230 1625 257 1616 c 0,215,216
 263 1615 263 1615 278 1620.5 c 128,-1,217
 293 1626 293 1626 298 1627 c 0,218,219
 313 1625 313 1625 344 1625 c 1,220,221
 358 1631 358 1631 389 1639 c 0,222,223
 410 1643 410 1643 448 1637 c 0,224,225
 494 1629 494 1629 510 1629 c 0,226,227
 515 1629 515 1629 532.5 1633 c 128,-1,228
 550 1637 550 1637 556 1637 c 2,229,-1
 712 1637 l 2,230,231
 715 1637 715 1637 731.5 1641 c 128,-1,232
 748 1645 748 1645 754 1643 c 0,233,234
 770 1637 770 1637 795 1629 c 1,235,236
 981 1619 981 1619 1035 1627 c 1,237,238
 1031 1626 1031 1626 1077 1621 c 0,239,240
 1085 1620 1085 1620 1159 1627 c 0,241,242
 1172 1625 1172 1625 1196 1625 c 0,243,244
 1200 1626 1200 1626 1210.5 1632.5 c 128,-1,245
 1221 1639 1221 1639 1226 1639 c 0,246,247
 1310 1639 1310 1639 1404 1643 c 0,248,249
 1424 1644 1424 1644 1491 1639 c 0,250,251
 1497 1639 1497 1639 1514 1631.5 c 128,-1,252
 1531 1624 1531 1624 1540 1624 c 0,253,254
 1557 1625 1557 1625 1657 1643 c 1,255,256
 1679 1627 1679 1627 1678 1591 c 0,257,258
 1675 1561 1675 1561 1672 1531 c 0,259,260
 1672 1515 1672 1515 1673 1478 c 0,261,262
 1675 1438 1675 1438 1675 1436 c 2,263,-1
 1675 1348 l 2,264,265
 1675 1347 1675 1347 1679 1321 c 128,-1,266
 1683 1295 1683 1295 1683 1274 c 1,0,1
EndSplineSet
EndChar

StartChar: U
Encoding: 85 85 34
Width: 1525
GlyphClass: 1
Flags: W
LayerCount: 2
Fore
SplineSet
1648 1635 m 1,0,1
 1648 1571 1648 1571 1633 1568 c 0,2,3
 1610 1564 1610 1564 1565 1548 c 1,4,5
 1546 1549 1546 1549 1512 1530 c 1,6,7
 1472 1476 1472 1476 1465 1377 c 0,8,9
 1461 1369 1461 1369 1457 1351 c 0,10,11
 1450 1256 1450 1256 1453 1231 c 0,12,13
 1470 1076 1470 1076 1470 1075 c 2,14,-1
 1470 944 l 2,15,16
 1470 938 1470 938 1465.5 918.5 c 128,-1,17
 1461 899 1461 899 1460 892 c 0,18,19
 1459 879 1459 879 1461 845 c 0,20,21
 1472 710 1472 710 1472 490 c 0,22,23
 1472 488 1472 488 1468 479.5 c 128,-1,24
 1464 471 1464 471 1464 464 c 0,25,26
 1464 454 1464 454 1466 400 c 0,27,28
 1468 357 1468 357 1466 334 c 0,29,30
 1461 244 1461 244 1444 67 c 0,31,32
 1436 14 1436 14 1402 -92 c 0,33,34
 1368 -201 1368 -201 1343 -247 c 0,35,36
 1315 -299 1315 -299 1238 -378 c 0,37,38
 1176 -441 1176 -441 1115 -503 c 1,39,40
 1104 -492 1104 -492 1086 -492 c 0,41,42
 1075 -492 1075 -492 1011 -516 c 1,43,44
 994 -530 994 -530 958 -554 c 0,45,46
 953 -557 953 -557 939.5 -548.5 c 128,-1,47
 926 -540 926 -540 925 -540 c 2,48,-1
 836 -540 l 1,49,50
 853 -540 853 -540 775 -516 c 1,51,52
 747 -514 747 -514 696 -502 c 1,53,54
 664 -479 664 -479 600 -443 c 1,55,56
 581 -441 581 -441 543 -434 c 0,57,58
 529 -430 529 -430 496 -403 c 0,59,60
 279 -225 279 -225 270 203 c 2,61,-1
 259 741 l 1,62,63
 250 963 250 963 225 1403 c 0,64,65
 218 1500 218 1500 174 1540 c 0,66,67
 149 1563 149 1563 116 1573 c 0,68,69
 88 1581 88 1581 59 1589 c 1,70,71
 56 1599 56 1599 56 1607 c 0,72,73
 56 1639 56 1639 97 1631 c 0,74,75
 191 1614 191 1614 311 1614 c 2,76,-1
 392 1614 l 2,77,78
 395 1614 395 1614 425.5 1620.5 c 128,-1,79
 456 1627 456 1627 471 1628 c 0,80,81
 529 1623 529 1623 643 1635 c 1,82,83
 654 1617 654 1617 654 1603 c 0,84,85
 654 1580 654 1580 623 1570 c 0,86,87
 601 1565 601 1565 579 1560 c 1,88,89
 573 1552 573 1552 558 1538 c 0,90,91
 549 1532 549 1532 533 1519 c 0,92,93
 513 1495 513 1495 510 1476 c 0,94,95
 498 1356 498 1356 470 1142 c 1,96,97
 471 1146 471 1146 483 1086 c 0,98,99
 483 1085 483 1085 472 996 c 1,100,101
 478 967 478 967 467 860 c 0,102,103
 465 844 465 844 471 802 c 0,104,105
 478 747 478 747 479 736 c 0,106,107
 481 713 481 713 474 585 c 0,108,109
 475 577 475 577 479 564 c 0,110,111
 479 555 479 555 471 438 c 0,112,113
 468 399 468 399 481 277 c 1,114,115
 488 263 488 263 497 236 c 0,116,117
 498 230 498 230 504 120 c 0,118,119
 502 99 502 99 503 58 c 1,120,121
 508 39 508 39 518 6 c 0,122,123
 522 -7 522 -7 517 -36 c 1,124,125
 531 -64 531 -64 557 -118 c 0,126,127
 572 -155 572 -155 615 -221 c 1,128,129
 723 -332 723 -332 786 -346 c 0,130,131
 818 -352 818 -352 861 -352 c 2,132,-1
 1021 -352 l 2,133,134
 1088 -352 1088 -352 1166 -243 c 0,135,136
 1242 -139 1242 -139 1261 -31 c 1,137,138
 1271 63 1271 63 1285 199 c 0,139,140
 1295 286 1295 286 1284 438 c 1,141,-1
 1288 1241 l 1,142,143
 1282 1325 1282 1325 1262 1475 c 1,144,145
 1250 1529 1250 1529 1171 1560 c 0,146,147
 1157 1564 1157 1564 1121 1574 c 1,148,149
 1113 1591 1113 1591 1113 1619 c 1,150,151
 1107 1619 1107 1619 1150 1626 c 0,152,153
 1240 1640 1240 1640 1322 1616 c 1,154,155
 1336 1621 1336 1621 1361 1623 c 1,156,157
 1397 1613 1397 1613 1421 1613 c 0,158,159
 1438 1613 1438 1613 1459 1619 c 0,160,161
 1486 1626 1486 1626 1497 1628 c 0,162,163
 1501 1629 1501 1629 1514 1625 c 128,-1,164
 1527 1621 1527 1621 1533 1621 c 0,165,166
 1545 1621 1545 1621 1648 1635 c 1,0,1
EndSplineSet
EndChar

StartChar: V
Encoding: 86 86 35
Width: 1478
GlyphClass: 1
Flags: W
LayerCount: 2
Fore
SplineSet
1658 1590 m 1,0,1
 1639 1578 1639 1578 1591 1571 c 128,-1,2
 1543 1564 1543 1564 1517 1548 c 0,3,4
 1476 1521 1476 1521 1446 1455 c 1,5,6
 1443 1432 1443 1432 1429 1381 c 0,7,8
 1396 1261 1396 1261 1339 1057 c 1,9,10
 1320 1029 1320 1029 1284 975 c 1,11,12
 1284 965 1284 965 1281 948 c 1,13,14
 1265 916 1265 916 1257 857 c 0,15,16
 1249 790 1249 790 1243 772 c 0,17,18
 1210 676 1210 676 1176 536 c 0,19,20
 1153 436 1153 436 1114 340 c 0,21,22
 1099 310 1099 310 1074 245 c 1,23,24
 1070 214 1070 214 1057 157 c 1,25,26
 1003 -8 1003 -8 907 -343 c 1,27,28
 903 -377 903 -377 895 -437 c 0,29,30
 888 -477 888 -477 858 -511 c 0,31,32
 846 -524 846 -524 804 -527 c 0,33,34
 740 -532 740 -532 727 -512 c 1,35,36
 728 -490 728 -490 724 -451 c 1,37,38
 717 -435 717 -435 689 -400 c 0,39,40
 665 -371 665 -371 664 -348 c 1,41,42
 664 -352 664 -352 667 -234 c 0,43,44
 670 -151 670 -151 657 -127 c 1,45,46
 644 -117 644 -117 626 -93 c 1,47,48
 612 -53 612 -53 590 90 c 1,49,50
 584 100 584 100 574 117 c 0,51,52
 562 152 562 152 564 194 c 1,53,54
 576 204 576 204 668 235 c 0,55,56
 729 255 729 255 754 333 c 1,57,58
 725 354 725 354 689 354 c 0,59,60
 664 354 664 354 617 340.5 c 128,-1,61
 570 327 570 327 550 327 c 0,62,63
 519 327 519 327 497 347 c 1,64,65
 501 358 501 358 501 371 c 0,66,67
 501 403 501 403 470 468 c 0,68,69
 432 545 432 545 426 570 c 1,70,71
 430 597 430 597 432 651 c 1,72,73
 420 660 420 660 402 685 c 1,74,75
 399 717 399 717 389 773 c 1,76,77
 364 826 364 826 316 955 c 1,78,79
 310 996 310 996 289 1083 c 1,80,81
 279 1107 279 1107 259 1158 c 0,82,83
 256 1164 256 1164 216 1313 c 1,84,85
 219 1330 219 1330 218 1368 c 1,86,87
 213 1387 213 1387 176 1440 c 0,88,89
 146 1482 146 1482 151 1516 c 1,90,91
 84 1548 84 1548 -24 1618 c 1,92,93
 -14 1643 -14 1643 84 1667 c 1,94,95
 92 1660 92 1660 103 1647 c 1,96,97
 110 1599 110 1599 148 1599 c 1,98,99
 142 1599 142 1599 212 1613 c 1,100,101
 256 1605 256 1605 340 1617 c 1,102,103
 376 1634 376 1634 408 1639 c 0,104,105
 436 1643 436 1643 465 1647 c 0,106,107
 474 1649 474 1649 547 1631 c 0,108,109
 604 1616 604 1616 689 1660 c 1,110,111
 698 1653 698 1653 709 1633 c 0,112,113
 711 1623 711 1623 711 1615 c 0,114,115
 711 1582 711 1582 667 1577 c 0,116,117
 596 1570 596 1570 585 1565 c 0,118,119
 541 1545 541 1545 541 1476 c 0,120,121
 541 1435 541 1435 580 1268 c 1,122,123
 578 1225 578 1225 583 1140 c 0,124,125
 586 1127 586 1127 609 1100 c 0,126,127
 635 1070 635 1070 637 1067 c 0,128,129
 655 1032 655 1032 662 974 c 0,130,131
 671 893 671 893 674 883 c 0,132,133
 693 813 693 813 728 674 c 1,134,135
 731 632 731 632 740 552 c 1,136,137
 757 534 757 534 780 498 c 1,138,139
 789 476 789 476 794 425 c 0,140,141
 801 359 801 359 802 349 c 0,142,143
 814 317 814 317 828 254 c 1,144,145
 828 220 828 220 836 153 c 1,146,147
 845 113 845 113 884 130 c 0,148,149
 908 140 908 140 921 185 c 0,150,151
 928 220 928 220 936 255 c 1,152,153
 953 290 953 290 986 363 c 0,154,155
 990 372 990 372 1014 471 c 1,156,157
 1011 492 1011 492 1013 532 c 1,158,159
 1026 565 1026 565 1043 633 c 1,160,161
 1046 671 1046 671 1061 735 c 1,162,163
 1081 750 1081 750 1110 795 c 1,164,165
 1107 823 1107 823 1108 876 c 1,166,167
 1113 911 1113 911 1135 958 c 0,168,169
 1151 992 1151 992 1167 1026 c 0,170,171
 1168 1028 1168 1028 1184 1126 c 1,172,173
 1200 1149 1200 1149 1220 1194 c 1,174,175
 1214 1215 1214 1215 1213 1255 c 1,176,177
 1233 1304 1233 1304 1272 1431 c 0,178,179
 1278 1455 1278 1455 1272 1468 c 0,180,181
 1255 1517 1255 1517 1213 1586 c 1,182,183
 1196 1600 1196 1600 1164 1606 c 0,184,185
 1123 1613 1123 1613 1112 1617 c 1,186,187
 1114 1653 1114 1653 1133 1653 c 0,188,189
 1543 1653 1543 1653 1543 1653 c 2,190,191
 1547 1653 1547 1653 1572 1647 c 0,192,193
 1594 1642 1594 1642 1605 1644 c 0,194,195
 1617 1650 1617 1650 1644 1660 c 1,196,197
 1667 1646 1667 1646 1658 1590 c 1,0,1
EndSplineSet
EndChar

StartChar: W
Encoding: 87 87 36
Width: 1855
GlyphClass: 1
Flags: W
LayerCount: 2
Fore
SplineSet
2024 1444 m 1,0,1
 2027 1423 2027 1423 1976 1403 c 0,2,3
 1907 1377 1907 1377 1904 1375 c 0,4,5
 1851 1337 1851 1337 1828 1246 c 1,6,7
 1801 1191 1801 1191 1766 1074 c 1,8,9
 1761 1035 1761 1035 1733 973 c 0,10,11
 1692 883 1692 883 1691 879 c 0,12,13
 1690 863 1690 863 1689 835 c 0,14,15
 1688 826 1688 826 1686 819 c 0,16,17
 1593 539 1593 539 1414 -26 c 0,18,19
 1398 -86 1398 -86 1381 -145 c 1,20,21
 1355 -216 1355 -216 1312 -216 c 0,22,23
 1297 -216 1297 -216 1278 -207 c 1,24,25
 1278 -202 1278 -202 1285 -179 c 0,26,27
 1291 -159 1291 -159 1290 -146 c 0,28,29
 1288 -141 1288 -141 1269 -125 c 0,30,31
 1255 -113 1255 -113 1255 -92 c 0,32,33
 1255 -77 1255 -77 1252 -48 c 1,34,35
 1234 -8 1234 -8 1205 79 c 1,36,37
 1202 109 1202 109 1200 139 c 0,38,39
 1194 185 1194 185 1168 212 c 1,40,41
 1166 221 1166 221 1162 237 c 1,42,43
 1169 256 1169 256 1169 275 c 0,44,45
 1169 309 1169 309 1144 345 c 0,46,47
 1121 373 1121 373 1098 401 c 1,48,49
 1110 417 1110 417 1128 446 c 1,50,51
 1111 464 1111 464 1092 498 c 1,52,53
 1092 519 1092 519 1088 565 c 1,54,55
 1074 589 1074 589 1048 639 c 0,56,57
 1042 650 1042 650 1047 677 c 0,58,59
 1054 715 1054 715 1054 729 c 1,60,61
 1042 736 1042 736 1031 736 c 0,62,63
 1007 736 1007 736 995 707 c 0,64,65
 976 638 976 638 938 505 c 0,66,67
 935 497 935 497 881 362 c 0,68,69
 840 259 840 259 833 199 c 1,70,71
 818 163 818 163 793 86 c 1,72,73
 773 -5 773 -5 760 -52 c 0,74,75
 736 -137 736 -137 705 -191 c 1,76,77
 674 -207 674 -207 637 -190 c 1,78,79
 616 -145 616 -145 603 -72 c 0,80,81
 588 15 588 15 579 41 c 0,82,83
 563 92 563 92 532 123 c 1,84,85
 545 202 545 202 527 243 c 1,86,87
 507 260 507 260 472 302 c 1,88,89
 471 318 471 318 469 344 c 0,90,91
 469 351 469 351 467 355 c 0,92,93
 448 392 448 392 419 468 c 1,94,95
 422 483 422 483 417 514 c 1,96,-1
 436 532 l 1,97,98
 465 507 465 507 523 479 c 1,99,100
 528 508 528 508 501 539 c 0,101,102
 471 575 471 575 468 593 c 1,103,104
 329 663 329 663 329 745 c 0,105,106
 329 764 329 764 337 783 c 1,107,108
 318 810 318 810 292 864 c 1,109,110
 283 910 283 910 258 998 c 1,111,112
 241 1017 241 1017 217 1058 c 1,113,114
 220 1085 220 1085 220 1141 c 1,115,116
 205 1165 205 1165 173 1222 c 0,117,118
 157 1257 157 1257 140 1291 c 0,119,120
 118 1333 118 1333 90 1353 c 0,121,122
 68 1369 68 1369 -23 1385 c 1,123,124
 -20 1385 -20 1385 -39 1404 c 1,125,126
 -34 1413 -34 1413 -22 1427 c 1,127,128
 30 1433 30 1433 160 1417 c 0,129,130
 180 1414 180 1414 223 1422 c 0,131,132
 270 1430 270 1430 272 1430 c 2,133,-1
 502 1430 l 2,134,135
 509 1430 509 1430 526 1441 c 128,-1,136
 543 1452 543 1452 550 1452 c 1,137,138
 555 1441 555 1441 555 1433 c 0,139,140
 555 1411 555 1411 499 1383 c 128,-1,141
 443 1355 443 1355 442 1314 c 0,142,143
 439 1251 439 1251 481 1173 c 0,144,145
 489 1160 489 1160 489 1125 c 0,146,147
 490 1084 490 1084 494 1068 c 0,148,149
 505 1023 505 1023 586 829 c 1,150,151
 588 803 588 803 591 754 c 1,152,153
 598 743 598 743 609 724 c 1,154,155
 607 688 607 688 632 637 c 0,156,157
 665 573 665 573 669 559 c 0,158,159
 683 498 683 498 698 438 c 0,160,161
 719 362 719 362 745 315 c 1,162,163
 772 315 772 315 781 343 c 0,164,165
 831 497 831 497 861 634 c 1,166,167
 871 644 871 644 886 671 c 1,168,169
 894 717 894 717 921 807 c 1,170,171
 960 895 960 895 960 934 c 0,172,173
 960 956 960 956 953 976 c 0,174,175
 910 1099 910 1099 826 1342 c 1,176,177
 808 1360 808 1360 752 1387 c 0,178,179
 703 1411 703 1411 694 1427 c 1,180,181
 723 1432 723 1432 782 1444 c 1,182,183
 782 1421 782 1421 789 1416 c 0,184,185
 814 1411 814 1411 845 1411 c 0,186,187
 881 1411 881 1411 943 1420 c 0,188,189
 1028 1432 1028 1432 1049 1434 c 0,190,191
 1065 1436 1065 1436 1151 1431 c 0,192,193
 1213 1427 1213 1427 1253 1444 c 1,194,195
 1259 1429 1259 1429 1259 1419 c 0,196,197
 1259 1400 1259 1400 1219 1391 c 0,198,199
 1167 1380 1167 1380 1144 1356 c 0,200,201
 1130 1342 1130 1342 1130 1306 c 0,202,203
 1130 1283 1130 1283 1143 1236 c 0,204,205
 1159 1175 1159 1175 1162 1157 c 1,206,207
 1157 1127 1157 1127 1160 1068 c 1,208,209
 1183 1042 1183 1042 1215 993 c 1,210,211
 1221 950 1221 950 1234 873 c 0,212,213
 1235 872 1235 872 1267 763 c 0,214,215
 1288 692 1288 692 1288 654 c 0,216,217
 1288 643 1288 643 1287 634 c 1,218,219
 1306 618 1306 618 1327 589 c 1,220,221
 1329 571 1329 571 1347 465 c 0,222,223
 1361 379 1361 379 1361 335 c 1,224,225
 1368 326 1368 326 1379 315 c 1,226,227
 1395 322 1395 322 1417 343 c 1,228,229
 1442 397 1442 397 1492 515 c 1,230,231
 1505 598 1505 598 1534 746 c 0,232,233
 1536 757 1536 757 1582 807 c 1,234,235
 1584 907 1584 907 1634 1009 c 1,236,237
 1635 1032 1635 1032 1646 1076 c 1,238,239
 1657 1087 1657 1087 1671 1113 c 1,240,241
 1679 1161 1679 1161 1709 1263 c 1,242,243
 1734 1326 1734 1326 1695 1363 c 0,244,245
 1680 1377 1680 1377 1638 1387 c 0,246,247
 1588 1401 1588 1401 1569 1410 c 1,248,249
 1591 1444 1591 1444 1678 1434 c 0,250,251
 1680 1434 1680 1434 1693 1429 c 128,-1,252
 1706 1424 1706 1424 1715 1424 c 0,253,254
 1723 1424 1723 1424 1747.5 1432 c 128,-1,255
 1772 1440 1772 1440 1797 1442 c 0,256,257
 1811 1443 1811 1443 1842 1437.5 c 128,-1,258
 1873 1432 1873 1432 1887 1432 c 0,259,260
 1950 1432 1950 1432 2024 1444 c 1,0,1
419 600 m 1,261,-1
 392 582 l 1,262,-1
 386 592 l 1,263,-1
 412 610 l 1,264,-1
 419 600 l 1,261,-1
EndSplineSet
EndChar

StartChar: X
Encoding: 88 88 37
Width: 1172
GlyphClass: 1
Flags: W
LayerCount: 2
Fore
SplineSet
1311 -507 m 1,0,1
 1266 -507 1266 -507 1254.5 -511.5 c 128,-1,2
 1243 -516 1243 -516 1227 -516 c 0,3,4
 1208 -516 1208 -516 1163.5 -507.5 c 128,-1,5
 1119 -499 1119 -499 1101 -499 c 2,6,-1
 981 -499 l 2,7,8
 978 -499 978 -499 958 -503 c 128,-1,9
 938 -507 938 -507 936 -507 c 2,10,-1
 870 -507 l 2,11,12
 859 -507 859 -507 832.5 -511 c 128,-1,13
 806 -515 806 -515 792 -514 c 0,14,15
 771 -511 771 -511 756 -498 c 1,16,17
 752 -479 752 -479 759 -473 c 0,18,19
 786 -461 786 -461 839 -429 c 0,20,21
 846 -423 846 -423 890 -365 c 1,22,23
 897 -307 897 -307 875 -260 c 0,24,25
 812 -125 812 -125 718 57 c 0,26,27
 698 103 698 103 647 181 c 0,28,29
 644 183 644 183 641 183 c 0,30,31
 631 183 631 183 615 140 c 0,32,33
 603 107 603 107 591 74 c 1,34,35
 562 24 562 24 506 -77 c 1,36,37
 502 -104 502 -104 490 -146 c 1,38,39
 475 -172 475 -172 449 -229 c 0,40,41
 445 -229 445 -229 439 -231 c 1,42,43
 434 -248 434 -248 423 -281 c 0,44,45
 409 -313 409 -313 381 -380 c 0,46,47
 380 -388 380 -388 381 -396 c 0,48,49
 383 -415 383 -415 397.5 -432 c 128,-1,50
 412 -449 412 -449 424 -449 c 1,51,52
 429 -472 429 -472 437 -493 c 1,53,54
 423 -516 423 -516 416 -516 c 2,55,-1
 327 -516 l 2,56,57
 325 -516 325 -516 309.5 -511 c 128,-1,58
 294 -506 294 -506 285 -505 c 0,59,60
 258 -501 258 -501 239 -507 c 1,61,-1
 58 -516 l 2,62,63
 55 -515 55 -515 42.5 -518 c 128,-1,64
 30 -521 30 -521 24 -521 c 0,65,66
 -2 -521 -2 -521 1 -478 c 1,67,68
 12 -458 12 -458 39 -453 c 0,69,70
 76 -447 76 -447 78 -446 c 0,71,72
 101 -434 101 -434 144 -403 c 1,73,74
 185 -365 185 -365 235 -299 c 0,75,76
 267 -257 267 -257 339 -134 c 0,77,78
 394 -39 394 -39 488 151 c 0,79,80
 488 160 488 160 492 177 c 0,81,82
 525 247 525 247 555 319 c 1,83,84
 540 356 540 356 315 820 c 0,85,86
 298 862 298 862 261 946 c 1,87,88
 242 977 242 977 206 1041 c 0,89,90
 205 1044 205 1044 205 1057 c 0,91,92
 205 1080 205 1080 176 1121 c 0,93,94
 149 1159 149 1159 126.5 1174 c 128,-1,95
 104 1189 104 1189 83 1195 c 1,96,97
 70 1194 70 1194 44 1198 c 1,98,99
 16 1207 16 1207 16 1243 c 0,100,101
 16 1255 16 1255 26 1262 c 1,102,-1
 499 1262 l 2,103,104
 502 1262 502 1262 513 1243 c 1,105,106
 507 1216 507 1216 495 1213 c 128,-1,107
 483 1210 483 1210 471 1208 c 0,108,109
 467 1204 467 1204 465 1186 c 1,110,111
 455 1174 455 1174 440 1141 c 0,112,113
 433 1117 433 1117 442 1087 c 1,114,115
 454 1061 454 1061 487 966 c 1,116,117
 489 948 489 948 496 914 c 0,118,119
 499 905 499 905 516 892.5 c 128,-1,120
 533 880 533 880 544 841 c 0,121,122
 551 815 551 815 558 788 c 1,123,124
 565 782 565 782 575 769 c 1,125,126
 606 697 606 697 672 559 c 1,127,128
 680 563 680 563 693 577 c 1,129,130
 772 738 772 738 895 1014 c 0,131,132
 909 1047 909 1047 917 1078 c 0,133,134
 920 1094 920 1094 917 1122 c 0,135,136
 912 1161 912 1161 912 1167 c 1,137,138
 895 1177 895 1177 864 1202 c 1,139,140
 860 1216 860 1216 851 1243 c 1,141,142
 905 1265 905 1265 921 1262 c 0,143,144
 943 1258 943 1258 1170 1254 c 0,145,146
 1191 1254 1191 1254 1212 1253 c 0,147,148
 1226 1255 1226 1255 1239 1257 c 0,149,150
 1253 1255 1253 1255 1255 1228 c 1,151,152
 1218 1214 1218 1214 1146 1182 c 0,153,154
 1131 1175 1131 1175 1104 1143 c 1,155,156
 1098 1129 1098 1129 1087 1103 c 1,157,158
 1073 1101 1073 1101 1070 1096 c 0,159,160
 1056 1070 1056 1070 1029 1019 c 0,161,162
 1028 1013 1028 1013 1027 998 c 1,163,164
 1020 993 1020 993 1012 977 c 1,165,166
 1009 960 1009 960 996 933 c 1,167,168
 986 928 986 928 967 898 c 1,169,170
 935 820 935 820 869 664 c 0,171,172
 830 581 830 581 762 410 c 1,173,174
 885 137 885 137 916 73 c 0,175,176
 1030 -168 1030 -168 1134 -342 c 0,177,178
 1163 -391 1163 -391 1195 -411 c 1,179,180
 1233 -429 1233 -429 1308 -466 c 1,181,182
 1311 -474 1311 -474 1311 -507 c 1,0,1
EndSplineSet
EndChar

StartChar: Y
Encoding: 89 89 38
Width: 1294
GlyphClass: 1
Flags: W
LayerCount: 2
Fore
SplineSet
1467 1646 m 1,0,1
 1467 1635 1467 1635 1465 1612 c 1,2,3
 1427 1600 1427 1600 1358 1556 c 1,4,5
 1318 1515 1318 1515 1255 1399 c 0,6,7
 1228 1349 1228 1349 1195 1263 c 0,8,9
 1142 1127 1142 1127 1138 1119 c 0,10,11
 1130 1108 1130 1108 1114 1084 c 0,12,13
 1098 1055 1098 1055 1052 918 c 0,14,15
 1039 878 1039 878 1007 793 c 1,16,17
 980 749 980 749 932 662 c 0,18,19
 918 632 918 632 905 526 c 0,20,21
 898 467 898 467 902 342 c 1,22,23
 900 275 900 275 902 123 c 0,24,25
 903 58 903 58 904 -72 c 0,26,27
 905 -229 905 -229 928 -316 c 0,28,29
 932 -333 932 -333 956 -374 c 0,30,31
 982 -419 982 -419 998 -432 c 1,32,33
 1027 -441 1027 -441 1070 -476 c 1,34,35
 1070 -514 1070 -514 1043 -514 c 0,36,37
 1037 -514 1037 -514 1025.5 -512 c 128,-1,38
 1014 -510 1014 -510 1010 -510 c 2,39,-1
 879 -505 l 2,40,41
 798 -505 798 -505 792 -500 c 1,42,43
 759 -506 759 -506 662 -505 c 2,44,-1
 469 -510 l 1,45,46
 464 -500 464 -500 454 -484 c 1,47,48
 455 -462 455 -462 491 -448 c 0,49,50
 519 -439 519 -439 547 -431 c 0,51,52
 590 -417 590 -417 630 -336 c 0,53,54
 663 -271 663 -271 673 -216 c 0,55,56
 674 -213 674 -213 683 -184 c 0,57,58
 690 -163 690 -163 689 -145 c 1,59,60
 676 -131 676 -131 660 -92 c 1,61,62
 664 -33 664 -33 666 87 c 1,63,64
 659 98 659 98 651 122 c 1,65,66
 646 173 646 173 646 336 c 0,67,68
 646 439 646 439 634 520 c 1,69,70
 622 547 622 547 596 602 c 0,71,72
 580 630 580 630 547 691 c 0,73,74
 478 838 478 838 344 1119 c 1,75,76
 284 1216 284 1216 174 1416 c 0,77,78
 156 1456 156 1456 114 1527 c 1,79,80
 95 1550 95 1550 56 1569 c 0,81,82
 24 1585 24 1585 -9 1601 c 1,83,84
 -11 1625 -11 1625 6 1627 c 0,85,86
 32 1629 32 1629 425 1645 c 1,87,88
 464 1642 464 1642 544 1641 c 1,89,90
 550 1633 550 1633 550 1626 c 0,91,92
 550 1618 550 1618 518 1580 c 128,-1,93
 486 1542 486 1542 486 1499 c 0,94,95
 486 1429 486 1429 525 1366 c 1,96,97
 532 1332 532 1332 555 1265 c 1,98,99
 663 1031 663 1031 750 879 c 0,100,101
 789 811 789 811 811 813 c 0,102,103
 814 812 814 812 818 812 c 0,104,105
 838 812 838 812 861 853 c 0,106,107
 880 890 880 890 898 927 c 1,108,109
 906 961 906 961 928 1027 c 1,110,111
 940 1045 940 1045 957 1081 c 1,112,113
 979 1146 979 1146 998 1188 c 1,114,115
 1003 1213 1003 1213 1014 1259 c 1,116,117
 1029 1285 1029 1285 1048 1336 c 1,118,119
 1069 1457 1069 1457 1069 1476 c 0,120,121
 1069 1552 1069 1552 1023 1592 c 0,122,123
 1010 1599 1010 1599 981 1626 c 1,124,125
 984 1631 984 1631 992 1639 c 1,126,127
 1066 1645 1066 1645 1293 1619 c 0,128,129
 1320 1616 1320 1616 1381 1631.5 c 128,-1,130
 1442 1647 1442 1647 1467 1646 c 1,0,1
EndSplineSet
EndChar

StartChar: Z
Encoding: 90 90 39
Width: 1247
GlyphClass: 1
Flags: W
LayerCount: 2
Fore
SplineSet
1236 -118 m 1,0,1
 1236 -117 1236 -117 1235 -151 c 0,2,3
 1233 -180 1233 -180 1234 -195 c 0,4,5
 1238 -242 1238 -242 1225 -323 c 0,6,7
 1224 -325 1224 -325 1215 -351 c 0,8,9
 1209 -370 1209 -370 1213 -381 c 0,10,11
 1234 -442 1234 -442 1234 -462 c 0,12,13
 1234 -496 1234 -496 1194 -496 c 2,14,-1
 93 -496 l 1,15,16
 48 -484 48 -484 58 -435 c 1,17,18
 68 -427 68 -427 84 -410 c 1,19,20
 102 -366 102 -366 128 -288 c 1,21,22
 140 -237 140 -237 206 -99 c 0,23,24
 266 26 266 26 268 69 c 1,25,26
 285 97 285 97 315 153 c 2,27,-1
 432 403 l 1,28,29
 445 461 445 461 496 579 c 0,30,31
 497 589 497 589 504 607 c 1,32,33
 530 614 530 614 713 614 c 1,34,35
 714 622 714 622 699 633 c 0,36,37
 651 666 651 666 626 672 c 1,38,39
 608 672 608 672 573 675 c 0,40,41
 555 677 555 677 546 696 c 1,42,43
 568 726 568 726 598 784 c 1,44,45
 613 837 613 837 650 936 c 1,46,47
 670 957 670 957 696 999 c 1,48,49
 697 1027 697 1027 709 1078 c 1,50,51
 736 1118 736 1118 784 1205 c 1,52,53
 790 1246 790 1246 812 1332 c 0,54,55
 819 1354 819 1354 857 1401 c 0,56,57
 891 1442 891 1442 891 1459 c 0,58,59
 891 1481 891 1481 852 1491 c 1,60,-1
 730 1491 l 1,61,62
 735 1491 735 1491 675 1485 c 0,63,64
 619 1480 619 1480 592 1482 c 0,65,66
 575 1483 575 1483 552 1497 c 0,67,68
 550 1499 550 1499 522 1534 c 0,69,70
 501 1562 501 1562 482 1558 c 1,71,72
 482 1551 482 1551 484 1524 c 0,73,74
 486 1501 486 1501 485 1487 c 1,75,76
 467 1471 467 1471 449 1468 c 0,77,78
 410 1462 410 1462 354.5 1440.5 c 128,-1,79
 299 1419 299 1419 268 1365 c 0,80,81
 198 1240 198 1240 198 1203 c 0,82,83
 198 1195 198 1195 201.5 1177 c 128,-1,84
 205 1159 205 1159 205 1150 c 0,85,86
 205 1130 205 1130 191.5 1114.5 c 128,-1,87
 178 1099 178 1099 154 1099 c 0,88,89
 127 1099 127 1099 117 1125 c 0,90,91
 116 1127 116 1127 123 1185 c 0,92,93
 136 1284 136 1284 128 1346 c 0,94,95
 127 1354 127 1354 118.5 1375.5 c 128,-1,96
 110 1397 110 1397 110 1408 c 256,97,98
 110 1419 110 1419 121 1442 c 128,-1,99
 132 1465 132 1465 133 1479 c 0,100,101
 128 1518 128 1518 136 1597 c 1,102,103
 142 1612 142 1612 181 1621 c 0,104,105
 222 1631 222 1631 289 1618 c 1,106,-1
 1150 1623 l 1,107,108
 1169 1628 1169 1628 1189 1619.5 c 128,-1,109
 1209 1611 1209 1611 1212 1591 c 0,110,111
 1218 1539 1218 1539 1205 1497 c 0,112,113
 1187 1443 1187 1443 1161 1404 c 1,114,115
 1142 1385 1142 1385 1115 1345 c 0,116,117
 1113 1339 1113 1339 1107 1282 c 1,118,119
 1098 1269 1098 1269 1081 1238 c 1,120,121
 1064 1182 1064 1182 1029 1081 c 1,122,123
 1000 1043 1000 1043 953 964 c 1,124,125
 949 936 949 936 935 882 c 128,-1,126
 921 828 921 828 874 743 c 0,127,128
 823 649 823 649 816 631 c 0,129,130
 763 531 763 531 707 415 c 1,131,132
 708 399 708 399 706 372 c 1,133,134
 690 350 690 350 665 308 c 1,135,136
 662 288 662 288 652 249 c 1,137,138
 641 232 641 232 626 200 c 1,139,140
 619 168 619 168 598 102 c 1,141,142
 576 68 576 68 537 -10 c 1,143,144
 513 -82 513 -82 444 -231 c 1,145,146
 432 -267 432 -267 394 -342 c 1,147,148
 414 -361 414 -361 444 -364 c 0,149,150
 448 -364 448 -364 525 -364 c 2,151,-1
 656 -364 l 2,152,153
 662 -364 662 -364 674.5 -360.5 c 128,-1,154
 687 -357 687 -357 690 -356 c 0,155,156
 721 -356 721 -356 788 -353 c 1,157,158
 810 -345 810 -345 856 -332 c 1,159,160
 877 -331 877 -331 925 -324 c 0,161,162
 981 -312 981 -312 1049 -228 c 1,163,164
 1057 -210 1057 -210 1076 -174 c 1,165,166
 1103 -138 1103 -138 1141 -58 c 1,167,168
 1140 -11 1140 -11 1154 80 c 1,169,170
 1162 99 1162 99 1185 99 c 0,171,172
 1228 99 1228 99 1236 64 c 1,173,-1
 1236 -118 l 1,0,1
EndSplineSet
EndChar

StartChar: a
Encoding: 97 97 40
Width: 1208
GlyphClass: 1
Flags: W
LayerCount: 2
Fore
SplineSet
1217 -7 m 1,0,1
 1199 -15 1199 -15 1164 -12 c 0,2,3
 1106 -7 1106 -7 1110 -7 c 1,4,-1
 1030 -7 l 2,5,6
 885 -7 885 -7 804 -22 c 0,7,8
 759 -30 759 -30 744 -13 c 1,9,10
 742 17 742 17 747 38 c 1,11,12
 767 40 767 40 803 52 c 0,13,14
 818 61 818 61 826 82 c 128,-1,15
 834 103 834 103 829 115 c 0,16,17
 816 173 816 173 789 289 c 0,18,19
 787 296 787 296 767 346 c 0,20,21
 751 386 751 386 751 407 c 0,22,23
 750 413 750 413 738 413 c 0,24,25
 721 413 721 413 574 405 c 1,26,-1
 363 402 l 2,27,28
 340 403 340 403 320 360 c 0,29,30
 310 338 310 338 292 295 c 0,31,32
 269 225 269 225 270 212 c 1,33,34
 270 219 270 219 260 152 c 0,35,36
 253 105 253 105 260 88 c 0,37,38
 264 78 264 78 290.5 56 c 128,-1,39
 317 34 317 34 336 27 c 0,40,41
 341 25 341 25 352 22 c 1,42,43
 360 8 360 8 365 0 c 1,44,45
 344 -6 344 -6 307 -13 c 1,46,47
 249 -8 249 -8 140 -5 c 1,48,49
 117 -12 117 -12 69 -19 c 0,50,51
 67 -19 67 -19 -4 -10 c 1,52,53
 -6 -5 -6 -5 -6 -1 c 0,54,55
 -6 11 -6 11 24 33 c 1,56,57
 35 48 35 48 61 72 c 1,58,59
 84 87 84 87 101 123.5 c 128,-1,60
 118 160 118 160 153 237 c 1,61,62
 168 285 168 285 198 382 c 1,63,64
 218 428 218 428 249 522 c 0,65,66
 272 591 272 591 316 727 c 0,67,68
 320 731 320 731 326 739 c 1,69,70
 329 723 329 723 334 723 c 0,71,72
 341 723 341 723 352 766 c 0,73,74
 362 805 362 805 362 822 c 0,75,76
 362 825 362 825 361 825 c 0,77,78
 359 822 359 822 354 807 c 1,79,80
 354 817 354 817 356 835 c 1,81,82
 372 877 372 877 401 959 c 1,83,84
 408 998 408 998 444 1075 c 0,85,86
 449 1092 449 1092 459 1127 c 0,87,88
 468 1157 468 1157 494 1217 c 0,89,90
 497 1230 497 1230 509 1254 c 0,91,92
 515 1261 515 1261 556 1258 c 0,93,94
 595 1257 595 1257 674 1251 c 1,95,96
 700 1176 700 1176 767 1012 c 1,97,98
 769 993 769 993 778 956 c 0,99,100
 794 909 794 909 820 869 c 1,101,102
 815 862 815 862 828 817 c 1,103,104
 844 781 844 781 875 711 c 1,105,106
 896 642 896 642 940 519 c 1,107,108
 943 491 943 491 959 439 c 0,109,110
 959 431 959 431 964 414 c 0,111,112
 976 388 976 388 1007 314 c 0,113,114
 1018 298 1018 298 1037 265 c 1,115,116
 1036 257 1036 257 1039 243 c 0,117,118
 1053 202 1053 202 1082 128 c 0,119,120
 1092 111 1092 111 1116 66 c 0,121,122
 1122 54 1122 54 1173 35 c 0,123,124
 1188 30 1188 30 1217 20 c 1,125,-1
 1217 -7 l 1,0,1
703 517 m 1,126,127
 702 518 702 518 630 716 c 0,128,129
 618 756 618 756 593 835 c 1,130,131
 581 859 581 859 561 904 c 0,132,133
 555 925 555 925 540 964 c 1,134,135
 504 882 504 882 460 798 c 0,136,137
 454 792 454 792 446 779 c 1,138,139
 443 764 443 764 435 733 c 0,140,141
 428 719 428 719 418 693 c 1,142,143
 417 676 417 676 413 649 c 1,144,145
 406 639 406 639 397 621 c 1,146,147
 392 598 392 598 382 556 c 0,148,149
 377 548 377 548 369 534 c 1,150,151
 371 545 371 545 371 517 c 1,152,-1
 703 517 l 1,126,127
EndSplineSet
EndChar

StartChar: b
Encoding: 98 98 41
Width: 1120
GlyphClass: 1
Flags: W
LayerCount: 2
Fore
SplineSet
1043 464 m 0,0,1
 1050 425 1050 425 1028 269 c 0,2,3
 1021 220 1021 220 956 140 c 0,4,5
 893 64 893 64 849 44 c 0,6,7
 779 11 779 11 712 -2 c 0,8,9
 687 -7 687 -7 563 -7 c 2,10,-1
 137 -7 l 2,11,12
 122 -7 122 -7 102 2 c 0,13,14
 102 5 102 5 99.5 13.5 c 128,-1,15
 97 22 97 22 97 26 c 0,16,17
 148 40 148 40 159 46 c 0,18,19
 195 63 195 63 217 102 c 0,20,21
 227 120 227 120 231 193 c 0,22,23
 231 204 231 204 238 254 c 0,24,25
 244 299 244 299 244 322 c 0,26,27
 244 455 244 455 246 466 c 128,-1,28
 248 477 248 477 264 501 c 1,29,30
 257 508 257 508 246 527 c 1,31,32
 241 545 241 545 241 578 c 2,33,-1
 241 676 l 2,34,35
 241 679 241 679 238 707 c 1,36,37
 240 696 240 696 248 836 c 0,38,39
 246 838 246 838 242 843 c 0,40,41
 232 882 232 882 244 943 c 0,42,43
 247 962 247 962 231 1061 c 0,44,45
 230 1092 230 1092 214 1144 c 1,46,47
 193 1169 193 1169 158 1177 c 0,48,49
 129 1183 129 1183 101 1189 c 1,50,51
 101 1245 101 1245 98 1213 c 1,52,53
 100 1228 100 1228 117 1229 c 0,54,55
 157 1231 157 1231 245 1239 c 0,56,57
 325 1246 325 1246 327 1246 c 2,58,-1
 445 1246 l 2,59,60
 468 1246 468 1246 531 1254 c 0,61,62
 575 1260 575 1260 643 1252 c 0,63,64
 649 1251 649 1251 758 1225 c 0,65,66
 815 1211 815 1211 866 1150.5 c 128,-1,67
 917 1090 917 1090 925 1035 c 0,68,69
 930 1003 930 1003 930 973 c 0,70,71
 930 823 930 823 797 707 c 1,72,73
 799 706 799 706 804 702 c 1,74,75
 878 706 878 706 964 621 c 0,76,77
 1026 560 1026 560 1043 464 c 0,0,1
873 979 m 1,78,79
 828 975 828 975 751 991 c 1,80,81
 730 1004 730 1004 716 1039 c 0,82,83
 704 1068 704 1068 693 1096 c 0,84,85
 683 1115 683 1115 650 1138 c 128,-1,86
 617 1161 617 1161 594 1164 c 0,87,88
 488 1179 488 1179 467 1159 c 1,89,90
 463 1086 463 1086 452 939 c 0,91,92
 451 935 451 935 456 928 c 128,-1,93
 461 921 461 921 461 920 c 0,94,95
 461 918 461 918 452 844 c 0,96,97
 446 798 446 798 455 725 c 1,98,99
 489 713 489 713 491 714 c 0,100,101
 615 719 615 719 655 733 c 0,102,103
 750 765 750 765 750 922 c 0,104,105
 750 941 750 941 749 958 c 1,106,107
 753 963 753 963 758 966 c 0,108,109
 804 968 804 968 873 979 c 1,78,79
834 376 m 0,110,111
 833 389 833 389 783 502 c 0,112,113
 773 523 773 523 753 556 c 1,114,115
 702 610 702 610 643 625 c 0,116,117
 600 637 600 637 513 633 c 0,118,119
 476 631 476 631 451 620 c 1,120,121
 445 570 445 570 439 498 c 0,122,123
 438 449 438 449 441 393 c 0,124,125
 444 318 444 318 444 315 c 0,126,127
 446 229 446 229 471 109 c 0,128,129
 473 98 473 98 502 74 c 1,130,131
 560 74 560 74 619 73 c 0,132,133
 685 74 685 74 728 110 c 0,134,135
 758 133 758 133 796 173 c 1,136,137
 840 271 840 271 834 376 c 0,110,111
EndSplineSet
EndChar

StartChar: c
Encoding: 99 99 42
Width: 1344
GlyphClass: 1
Flags: W
LayerCount: 2
Fore
SplineSet
1201 1226 m 1,0,1
 1199 1196 1199 1196 1188 1115 c 0,2,3
 1179 1051 1179 1051 1179 1015 c 0,4,5
 1179 982 1179 982 1185 953 c 1,6,7
 1172 942 1172 942 1172 926 c 0,8,9
 1172 919 1172 919 1176 902.5 c 128,-1,10
 1180 886 1180 886 1178 877 c 0,11,12
 1169 864 1169 864 1149 860 c 0,13,14
 1128 855 1128 855 1116 866 c 1,15,16
 1124 897 1124 897 1124 927 c 0,17,18
 1124 928 1124 928 1117 949 c 1,19,20
 1117 963 1117 963 1111 987 c 1,21,22
 1080 1035 1080 1035 1079 1037 c 0,23,24
 1057 1067 1057 1067 1034 1083 c 0,25,26
 970 1126 970 1126 898 1141 c 0,27,28
 852 1152 852 1152 861 1152 c 1,29,-1
 699 1152 l 1,30,31
 661 1144 661 1144 586 1124 c 0,32,33
 500 1097 500 1097 425 1020 c 0,34,35
 414 1009 414 1009 378 938 c 0,36,37
 327 835 327 835 327 771 c 0,38,39
 327 761 327 761 329 754 c 1,40,41
 327 762 327 762 324 731 c 0,42,43
 318 657 318 657 320 637 c 0,44,45
 321 636 321 636 323.5 629 c 128,-1,46
 326 622 326 622 326 618 c 0,47,48
 324 594 324 594 337 501 c 0,49,50
 337 479 337 479 343 433 c 1,51,52
 351 422 351 422 363 400 c 1,53,54
 366 386 366 386 373 362 c 1,55,56
 391 341 391 341 420 298 c 1,57,58
 450 234 450 234 481 209 c 1,59,60
 513 189 513 189 572 147 c 1,61,62
 577 134 577 134 590 111 c 1,63,64
 598 110 598 110 615.5 114 c 128,-1,65
 633 118 633 118 642 118 c 256,66,67
 651 118 651 118 691.5 109.5 c 128,-1,68
 732 101 732 101 752 100 c 0,69,70
 822 96 822 96 910 112 c 0,71,72
 932 116 932 116 978 122 c 0,73,74
 1063 136 1063 136 1126 260 c 0,75,76
 1127 262 1127 262 1132 301 c 0,77,78
 1136 313 1136 313 1141 335 c 1,79,80
 1142 360 1142 360 1146 411 c 1,81,82
 1154 414 1154 414 1159 414 c 0,83,84
 1188 414 1188 414 1190 346 c 0,85,86
 1193 241 1193 241 1181 142 c 0,87,88
 1180 111 1180 111 1163 58 c 1,89,90
 1155 47 1155 47 1103 33 c 0,91,92
 1025 13 1025 13 987.5 8 c 128,-1,93
 950 3 950 3 876 -6 c 0,94,95
 702 -26 702 -26 585 11 c 0,96,97
 575 11 575 11 558 13 c 1,98,99
 545 20 545 20 521 30 c 0,100,101
 412 59 412 59 302 155 c 0,102,103
 187 257 187 257 152 364 c 0,104,105
 144 382 144 382 128 417 c 0,106,107
 128 425 128 425 126 440 c 1,108,109
 117 455 117 455 105 485 c 1,110,111
 100 510 100 510 94 557 c 0,112,113
 93 585 93 585 98 690 c 0,114,115
 99 714 99 714 139 890 c 1,116,117
 154 915 154 915 182 962 c 0,118,119
 205 1001 205 1001 217 1017 c 0,120,121
 241 1052 241 1052 257 1057 c 1,122,123
 279 1055 279 1055 286 1062 c 0,124,125
 330 1107 330 1107 418 1192 c 1,126,127
 425 1190 425 1190 438 1190 c 1,128,129
 449 1201 449 1201 472 1214 c 1,130,131
 483 1211 483 1211 506 1209 c 1,132,133
 561 1225 561 1225 668 1248 c 0,134,135
 709 1254 709 1254 767 1254 c 2,136,-1
 895 1254 l 1,137,138
 895 1254 895 1254 1054 1240 c 1,139,140
 1110 1241 1110 1241 1201 1226 c 1,0,1
EndSplineSet
EndChar

StartChar: d
Encoding: 100 100 43
Width: 1503
GlyphClass: 1
Flags: W
LayerCount: 2
Fore
SplineSet
1330 720 m 0,0,1
 1336 669 1336 669 1320 540 c 1,2,3
 1310 500 1310 500 1291 423 c 0,4,5
 1250 253 1250 253 1142 152 c 0,6,7
 1100 113 1100 113 1034 74 c 0,8,9
 956 27 956 27 908 23 c 0,10,11
 902 19 902 19 888 14 c 0,12,13
 740 -8 740 -8 745 -8 c 1,14,-1
 94 -8 l 1,15,16
 86 27 86 27 99 36 c 1,17,18
 141 51 141 51 157 51 c 1,19,20
 163 59 163 59 174 73 c 0,21,22
 221 122 221 122 221 181 c 0,23,24
 221 182 221 182 215 206 c 1,25,26
 219 216 219 216 221 235 c 1,27,28
 217 243 217 243 211 260 c 0,29,30
 210 266 210 266 215 282.5 c 128,-1,31
 220 299 220 299 221 307 c 0,32,33
 223 345 223 345 223 427 c 2,34,-1
 223 540 l 2,35,36
 222 655 222 655 225 874 c 0,37,38
 225 877 225 877 220 887.5 c 128,-1,39
 215 898 215 898 215 903 c 0,40,41
 215 919 215 919 220 952.5 c 128,-1,42
 225 986 225 986 225 1003 c 0,43,44
 225 1007 225 1007 219 1018 c 128,-1,45
 213 1029 213 1029 211 1036 c 0,46,47
 212 1055 212 1055 208 1094 c 1,48,49
 191 1161 191 1161 157 1179 c 0,50,51
 129 1193 129 1193 61 1203 c 1,52,53
 60 1209 60 1209 60 1229 c 1,54,55
 103 1250 103 1250 146 1241 c 1,56,57
 146 1241 146 1241 153 1235.5 c 128,-1,58
 160 1230 160 1230 165 1231 c 0,59,60
 172 1235 172 1235 182 1241 c 1,61,62
 215 1242 215 1242 248 1243 c 0,63,64
 284 1242 284 1242 304 1213 c 0,65,66
 307 1213 307 1213 311 1214 c 0,67,68
 320 1229 320 1229 341 1253 c 1,69,70
 365 1249 365 1249 408 1243 c 0,71,72
 410 1242 410 1242 416.5 1249 c 128,-1,73
 423 1256 423 1256 428 1258 c 0,74,75
 459 1268 459 1268 521 1268 c 2,76,-1
 775 1268 l 1,77,78
 940 1231 940 1231 1008 1201 c 0,79,80
 1137 1145 1137 1145 1220 1029 c 0,81,82
 1237 1007 1237 1007 1267 958 c 1,83,84
 1311 871 1311 871 1330 720 c 0,0,1
1285 721 m 1,85,86
 1163 729 1163 729 1113 727 c 1,87,88
 1105 731 1105 731 1107 761 c 1,89,90
 1089 805 1089 805 1050 887 c 0,91,92
 997 995 997 995 933 1058.5 c 128,-1,93
 869 1122 869 1122 725 1148 c 0,94,95
 660 1159 660 1159 666 1159 c 1,96,-1
 563 1159 l 2,97,98
 559 1159 559 1159 508 1149.5 c 128,-1,99
 457 1140 457 1140 440 1138 c 1,100,101
 426 1068 426 1068 429 986 c 0,102,103
 431 947 431 947 431 827 c 2,104,-1
 431 432 l 1,105,106
 431 433 431 433 428 398 c 0,107,108
 426 367 426 367 428 352 c 0,109,110
 433 294 433 294 433 302 c 1,111,112
 430 262 430 262 432 235 c 0,113,114
 432 229 432 229 438 208 c 0,115,116
 443 191 443 191 442 182 c 0,117,118
 441 181 441 181 409 169 c 0,119,120
 386 159 386 159 381 143 c 1,121,122
 398 128 398 128 426 125 c 0,123,124
 446 124 446 124 466 124 c 0,125,126
 667 101 667 101 699 101 c 0,127,128
 794 101 794 101 867 130 c 0,129,130
 931 156 931 156 972 198 c 0,131,132
 1060 287 1060 287 1089 419 c 0,133,134
 1103 483 1103 483 1109 632 c 0,135,136
 1109 644 1109 644 1091 666 c 1,137,138
 1089 680 1089 680 1097 682 c 0,139,140
 1112 687 1112 687 1159 693 c 0,141,142
 1200 697 1200 697 1276 706 c 1,143,144
 1285 713 1285 713 1285 721 c 1,85,86
EndSplineSet
EndChar

StartChar: e
Encoding: 101 101 44
Width: 1059
GlyphClass: 1
Flags: W
LayerCount: 2
Fore
SplineSet
1081 319 m 1,0,1
 1078 267 1078 267 1068 172 c 1,2,3
 1056 146 1056 146 1038 99 c 0,4,5
 1034 79 1034 79 1023 43 c 0,6,7
 1019 32 1019 32 997 6 c 0,8,9
 971 -26 971 -26 955 -26 c 2,10,-1
 700 -26 l 2,11,12
 693 -26 693 -26 610 -23 c 128,-1,13
 527 -20 527 -20 520 -20 c 2,14,-1
 366 -20 l 2,15,16
 360 -20 360 -20 304.5 -14.5 c 128,-1,17
 249 -9 249 -9 242 -9 c 2,18,-1
 91 -9 l 1,19,-1
 78 5 l 1,20,21
 89 19 89 19 165 65 c 0,22,23
 217 98 217 98 217 145 c 2,24,-1
 217 461 l 2,25,26
 217 538 217 538 241 668 c 1,27,28
 228 708 228 708 236 768 c 1,29,30
 218 783 218 783 218 810 c 0,31,32
 218 812 218 812 238 892 c 0,33,34
 239 899 239 899 228 920 c 0,35,36
 214 945 214 945 213 946 c 0,37,38
 206 967 206 967 207 1012 c 0,39,40
 207 1074 207 1074 207 1080 c 0,41,42
 204 1114 204 1114 193 1135 c 0,43,44
 178 1164 178 1164 144 1181 c 0,45,46
 114 1194 114 1194 84 1208 c 1,47,48
 98 1241 98 1241 114 1243 c 1,49,50
 145 1239 145 1239 203 1241 c 1,51,52
 267 1256 267 1256 265 1256 c 1,53,-1
 442 1256 l 2,54,55
 446 1256 446 1256 502.5 1249 c 128,-1,56
 559 1242 559 1242 588 1241 c 0,57,58
 600 1241 600 1241 788 1254 c 0,59,60
 831 1257 831 1257 1013 1248 c 1,61,62
 1029 1237 1029 1237 1029 1221 c 0,63,64
 1029 1212 1029 1212 1022.5 1195 c 128,-1,65
 1016 1178 1016 1178 1016 1170 c 0,66,67
 1015 1137 1015 1137 995 952 c 0,68,69
 992 946 992 946 966 933 c 1,70,71
 960 943 960 943 929 1040 c 0,72,73
 909 1103 909 1103 855 1109 c 0,74,75
 833 1114 833 1114 810 1119 c 0,76,77
 779 1126 779 1126 762 1121 c 0,78,79
 718 1108 718 1108 571 1118 c 0,80,81
 490 1124 490 1124 449 1115 c 0,82,83
 437 1112 437 1112 433 1092 c 1,84,85
 469 975 469 975 436 885 c 1,86,87
 438 891 438 891 438 835 c 0,88,89
 438 821 438 821 433 777 c 0,90,91
 428 741 428 741 431 719 c 0,92,93
 432 709 432 709 450 693 c 1,94,-1
 827 693 l 1,95,96
 845 699 845 699 862 705 c 0,97,98
 890 715 890 715 901 736 c 0,99,100
 911 762 911 762 938 808 c 1,101,102
 970 808 970 808 979 786 c 1,103,104
 975 729 975 729 971 640 c 0,105,106
 970 581 970 581 957 467 c 0,107,108
 953 450 953 450 917 456 c 1,109,110
 904 480 904 480 871 519 c 1,111,112
 810 565 810 565 760 565 c 2,113,-1
 622 565 l 2,114,115
 609 565 609 565 571 570 c 128,-1,116
 533 575 533 575 514 575 c 0,117,118
 461 575 461 575 447 544 c 0,119,120
 431 509 431 509 431 490 c 0,121,122
 431 472 431 472 438 422 c 128,-1,123
 445 372 445 372 444 345 c 0,124,125
 443 331 443 331 434.5 292.5 c 128,-1,126
 426 254 426 254 426 232 c 0,127,128
 426 215 426 215 430 201 c 0,129,130
 437 177 437 177 484.5 143 c 128,-1,131
 532 109 532 109 566 104 c 0,132,133
 571 102 571 102 576 100 c 0,134,135
 586 97 586 97 594 97 c 2,136,-1
 760 97 l 2,137,138
 816 97 816 97 854 115 c 0,139,140
 907 139 907 139 957 195 c 0,141,142
 1012 257 1012 257 1016 313 c 1,143,144
 1042 330 1042 330 1081 319 c 1,0,1
EndSplineSet
EndChar

StartChar: f
Encoding: 102 102 45
Width: 1039
GlyphClass: 1
Flags: W
LayerCount: 2
Fore
SplineSet
1002 1242 m 1,0,1
 1011 1195 1011 1195 996 977 c 0,2,3
 995 960 995 960 970 937 c 0,4,5
 966 936 966 936 937 936 c 1,6,7
 931 1007 931 1007 922 1036 c 0,8,9
 903 1095 903 1095 856.5 1108.5 c 128,-1,10
 810 1122 810 1122 654 1122 c 2,11,-1
 480 1122 l 2,12,13
 431 1122 431 1122 431 1027 c 1,14,15
 431 1039 431 1039 441 922 c 0,16,17
 443 897 443 897 434 840 c 0,18,19
 424 777 424 777 424 748 c 0,20,21
 424 703 424 703 440 673 c 1,22,-1
 572 673 l 2,23,24
 576 673 576 673 604.5 667.5 c 128,-1,25
 633 662 633 662 640 662 c 2,26,-1
 768 662 l 2,27,28
 840 662 840 662 893 737 c 1,29,30
 897 752 897 752 907 779 c 1,31,32
 918 788 918 788 951 787 c 1,33,34
 956 756 956 756 960 697 c 1,35,36
 957 625 957 625 936 412 c 0,37,38
 933 384 933 384 885 388 c 1,39,40
 876 429 876 429 867 470 c 0,41,42
 851 521 851 521 809 534 c 0,43,44
 784 541 784 541 685 541 c 2,45,-1
 537 541 l 1,46,47
 527 535 527 535 489 537 c 0,48,49
 455 539 455 539 442 521 c 1,50,51
 443 497 443 497 439 450 c 0,52,53
 438 441 438 441 424 390 c 0,54,55
 413 353 413 353 415 330 c 1,56,57
 422 317 422 317 429 292 c 1,58,59
 429 274 429 274 425.5 237 c 128,-1,60
 422 200 422 200 422 182 c 0,61,62
 422 104 422 104 476 60 c 0,63,64
 477 59 477 59 624 2 c 1,65,66
 605 -21 605 -21 574 -22 c 1,67,68
 634 -21 634 -21 516 -18 c 0,69,70
 424 -16 424 -16 287 -8 c 0,71,72
 214 -5 214 -5 192 -9 c 1,73,74
 179 -17 179 -17 156 -27 c 1,75,76
 157 -27 157 -27 81 -11 c 1,77,78
 87 7 87 7 128 36 c 128,-1,79
 169 65 169 65 177 79 c 0,80,81
 214 149 214 149 214 210 c 2,82,-1
 214 450 l 1,83,84
 214 449 214 449 211.5 519.5 c 128,-1,85
 209 590 209 590 209 626 c 1,86,87
 209 621 209 621 211 661 c 0,88,89
 213 689 213 689 210 709 c 0,90,91
 207 738 207 738 195 758 c 1,92,93
 230 808 230 808 230 876 c 256,94,95
 230 944 230 944 195 1031 c 1,96,97
 195 1049 195 1049 193 1079 c 0,98,99
 192 1096 192 1096 187 1107 c 0,100,101
 167 1149 167 1149 128 1186 c 0,102,103
 117 1197 117 1197 77 1201 c 1,104,105
 69 1212 69 1212 71 1242 c 1,106,107
 66 1242 66 1242 208 1245 c 0,108,109
 429 1248 429 1248 882 1252 c 0,110,111
 927 1252 927 1252 1002 1242 c 1,0,1
EndSplineSet
EndChar

StartChar: g
Encoding: 103 103 46
Width: 1186
GlyphClass: 1
Flags: W
LayerCount: 2
Fore
SplineSet
1208 1240 m 1,0,1
 1210 1232 1210 1232 1210 1222 c 0,2,3
 1210 1200 1210 1200 1200.5 1145 c 128,-1,4
 1191 1090 1191 1090 1191 1063 c 0,5,6
 1191 1049 1191 1049 1192 1037 c 1,7,8
 1187 1019 1187 1019 1183 987 c 1,9,10
 1191 947 1191 947 1192 956 c 1,11,12
 1189 950 1189 950 1183 941 c 1,13,14
 1183 931 1183 931 1189 884 c 1,15,16
 1164 860 1164 860 1144 860 c 0,17,18
 1136 860 1136 860 1126 872 c 1,19,20
 1135 931 1135 931 1132 945 c 0,21,22
 1129 961 1129 961 1120 990 c 0,23,24
 1100 1034 1100 1034 1046 1087 c 0,25,26
 1025 1107 1025 1107 948 1140 c 0,27,28
 939 1144 939 1144 883 1154 c 0,29,30
 847 1160 847 1160 777 1160 c 0,31,32
 579 1160 579 1160 466 1055 c 1,33,34
 452 1048 452 1048 426 1024 c 1,35,36
 339 904 339 904 327 789 c 0,37,38
 322 741 322 741 322 631 c 2,39,-1
 322 565 l 1,40,41
 322 571 322 571 336 512 c 1,42,43
 337 481 337 481 346 428 c 1,44,45
 352 423 352 423 366 398 c 1,46,47
 367 385 367 385 373 364 c 1,48,49
 387 345 387 345 416 307 c 1,50,51
 420 295 420 295 430 273 c 0,52,53
 475 191 475 191 569 137 c 0,54,55
 611 113 611 113 652 103 c 0,56,57
 849 57 849 57 905 57 c 0,58,59
 931 57 931 57 956 63 c 0,60,61
 968 65 968 65 991 75 c 1,62,63
 996 114 996 114 996 114 c 2,64,65
 996 128 996 128 983 133 c 0,66,67
 965 139 965 139 959 149 c 0,68,69
 949 165 949 165 958 211 c 1,70,71
 958 211 958 211 958 370 c 1,72,73
 952 428 952 428 941 461 c 1,74,75
 935 466 935 466 925 480 c 1,76,77
 908 533 908 533 852 548 c 0,78,79
 829 554 829 554 754 556 c 0,80,81
 751 558 751 558 745 563 c 1,82,-1
 745 589 l 1,83,84
 770 597 770 597 827 597 c 0,85,86
 831 597 831 597 897 591.5 c 128,-1,87
 963 586 963 586 967 586 c 0,88,89
 972 586 972 586 984 590.5 c 128,-1,90
 996 595 996 595 1002 596 c 0,91,92
 1063 601 1063 601 1070 601 c 0,93,94
 1211 601 1211 601 1190 600 c 1,95,-1
 1190 557 l 2,96,97
 1190 554 1190 554 1181 536 c 0,98,99
 1170 515 1170 515 1168 507 c 0,100,101
 1151 438 1151 438 1148 367 c 0,102,103
 1144 277 1144 277 1144 243 c 0,104,105
 1144 174 1144 174 1159 53 c 1,106,107
 1113 29 1113 29 918 -11 c 1,108,109
 902 -10 902 -10 869 -13 c 1,110,111
 824 -23 824 -23 806 -23 c 0,112,113
 801 -23 801 -23 791 -20 c 128,-1,114
 781 -17 781 -17 777 -17 c 0,115,116
 674 -12 674 -12 606 0 c 1,117,118
 580 10 580 10 529 25 c 1,119,120
 428 45 428 45 306 153 c 0,121,122
 179 266 179 266 150 370 c 0,123,124
 141 393 141 393 127 439 c 0,125,126
 119 454 119 454 106 484 c 1,127,128
 94 533 94 533 94 567 c 1,129,130
 94 564 94 564 99 604 c 0,131,132
 104 638 104 638 100 652 c 0,133,134
 96 668 96 668 96 686 c 0,135,136
 96 720 96 720 113 783 c 0,137,138
 133 861 133 861 137 888 c 1,139,140
 235 1065 235 1065 256 1065 c 0,141,142
 260 1065 260 1065 262 1061.5 c 128,-1,143
 264 1058 264 1058 269 1058 c 0,144,145
 286 1058 286 1058 296 1066 c 1,146,147
 300 1078 300 1078 312 1099 c 1,148,149
 405 1202 405 1202 425 1202 c 0,150,151
 430 1202 430 1202 432 1200 c 128,-1,152
 434 1198 434 1198 438 1198 c 256,153,154
 442 1198 442 1198 459.5 1211.5 c 128,-1,155
 477 1225 477 1225 482 1225 c 0,156,157
 486 1225 486 1225 493.5 1221 c 128,-1,158
 501 1217 501 1217 505 1217 c 0,159,160
 510 1217 510 1217 594 1238 c 128,-1,161
 678 1259 678 1259 683 1259 c 2,162,-1
 940 1259 l 2,163,164
 945 1259 945 1259 1032 1249.5 c 128,-1,165
 1119 1240 1119 1240 1124 1240 c 0,166,167
 1126 1240 1126 1240 1159.5 1240 c 128,-1,168
 1193 1240 1193 1240 1208 1240 c 1,0,1
EndSplineSet
EndChar

StartChar: h
Encoding: 104 104 47
Width: 1496
GlyphClass: 1
Flags: W
LayerCount: 2
Fore
SplineSet
1424 1236 m 1,0,1
 1424 1225 1424 1225 1412 1216 c 1,2,3
 1370 1205 1370 1205 1340 1186 c 0,4,5
 1323 1175 1323 1175 1299.5 1140 c 128,-1,6
 1276 1105 1276 1105 1276 1087 c 0,7,8
 1276 997 1276 997 1278 1016 c 1,9,10
 1270 992 1270 992 1260 946 c 0,11,12
 1260 934 1260 934 1273 843 c 0,13,14
 1277 812 1277 812 1277 762 c 0,15,16
 1277 703 1277 703 1270.5 618.5 c 128,-1,17
 1264 534 1264 534 1264 540 c 1,18,-1
 1264 392 l 2,19,20
 1264 166 1264 166 1317 79 c 0,21,22
 1327 62 1327 62 1361 44 c 128,-1,23
 1395 26 1395 26 1419 24 c 1,24,25
 1413 14 1413 14 1397 -6 c 1,26,-1
 930 -6 l 1,27,28
 930 0 930 0 927 12.5 c 128,-1,29
 924 25 924 25 924 30 c 1,30,31
 946 40 946 40 987 60 c 0,32,33
 1018 75 1018 75 1045 152 c 0,34,35
 1068 219 1068 219 1068 257 c 2,36,-1
 1068 403 l 2,37,38
 1068 418 1068 418 1061 485 c 0,39,40
 1056 536 1056 536 1061 567 c 0,41,42
 1065 590 1065 590 1044 645 c 1,43,44
 995 609 995 609 896 591 c 0,45,46
 844 581 844 581 806 587 c 0,47,48
 754 596 754 596 751 596 c 2,49,-1
 499 596 l 1,50,51
 476 583 476 583 440 548 c 1,52,53
 425 524 425 524 430 480 c 1,54,55
 438 463 438 463 448 431 c 1,56,57
 445 445 445 445 441 376 c 0,58,59
 440 371 440 371 448 219 c 0,60,61
 456 55 456 55 561 35 c 0,62,63
 565 34 565 34 604 19 c 1,64,65
 570 -18 570 -18 527 -18 c 0,66,67
 515 -18 515 -18 498 -15 c 0,68,69
 478 -12 478 -12 473 -12 c 2,70,-1
 79 -6 l 1,71,72
 80 12 80 12 125 30 c 0,73,74
 178 52 178 52 206 95 c 0,75,76
 227 128 227 128 234 219 c 0,77,78
 242 314 242 314 236 381 c 0,79,80
 232 389 232 389 224 403 c 1,81,82
 223 480 223 480 233 632 c 0,83,84
 234 637 234 637 244 664 c 0,85,86
 253 687 253 687 252 702 c 1,87,88
 241 719 241 719 224 761 c 1,89,90
 227 749 227 749 231 827 c 0,91,92
 232 843 232 843 227.5 874 c 128,-1,93
 223 905 223 905 223 909 c 2,94,-1
 223 1070 l 2,95,96
 223 1102 223 1102 178 1147 c 128,-1,97
 133 1192 133 1192 89 1206 c 1,98,99
 90 1208 90 1208 111 1240 c 1,100,101
 147 1241 147 1241 223 1247 c 0,102,103
 295 1253 295 1253 298 1253 c 2,104,-1
 488 1253 l 2,105,106
 501 1253 501 1253 515 1256 c 128,-1,107
 529 1259 529 1259 534 1259 c 0,108,109
 554 1259 554 1259 604 1220 c 1,110,111
 569 1203 569 1203 534 1185 c 0,112,113
 491 1162 491 1162 471 1134 c 0,114,115
 439 1090 439 1090 439 969 c 2,116,-1
 439 755 l 2,117,118
 439 749 439 749 442 742 c 128,-1,119
 445 735 445 735 445 731 c 0,120,121
 492 710 492 710 525 710 c 2,122,-1
 922 710 l 2,123,124
 943 707 943 707 984 697 c 0,125,126
 985 697 985 697 1011 685 c 0,127,128
 1031 676 1031 676 1042 676 c 0,129,130
 1049 676 1049 676 1054 678 c 0,131,132
 1086 716 1086 716 1086 770 c 0,133,134
 1086 797 1086 797 1075 848 c 128,-1,135
 1064 899 1064 899 1065 919 c 0,136,137
 1065 935 1065 935 1059 982 c 0,138,139
 1052 1037 1052 1037 1051 1060 c 0,140,141
 1046 1157 1046 1157 903 1233 c 1,142,143
 922 1253 922 1253 932 1253 c 2,144,-1
 1081 1253 l 1,145,146
 1068 1253 1068 1253 1164 1255 c 0,147,148
 1248 1258 1248 1258 1293 1256 c 1,149,150
 1338 1249 1338 1249 1424 1236 c 1,0,1
EndSplineSet
EndChar

StartChar: i
Encoding: 105 105 48
Width: 630
GlyphClass: 1
Flags: W
LayerCount: 2
Fore
SplineSet
592 1142 m 1,0,1
 588 1127 588 1127 579 1100 c 1,2,3
 579 1100 579 1100 519 1087 c 0,4,5
 481 1078 481 1078 471 1053 c 0,6,7
 463 1041 463 1041 451 1019 c 0,8,9
 449 1012 449 1012 425 903 c 1,10,-1
 421 483 l 1,11,12
 414 457 414 457 414 455 c 2,13,14
 414 455 414 455 421 434 c 1,15,-1
 419 279 l 1,16,17
 412 247 412 247 419 191 c 0,18,19
 426 126 426 126 447 85 c 0,20,21
 454 71 454 71 482 54 c 0,22,23
 534 24 534 24 586 25 c 1,24,25
 585 12 585 12 575 -13 c 1,26,-1
 459 -13 l 2,27,28
 456 -13 456 -13 424.5 -11 c 128,-1,29
 393 -9 393 -9 391 -9 c 0,30,31
 388 -9 388 -9 364 -11 c 128,-1,32
 340 -13 340 -13 338 -13 c 256,33,34
 336 -13 336 -13 319.5 -11 c 128,-1,35
 303 -9 303 -9 300 -9 c 256,36,37
 297 -9 297 -9 286.5 -11 c 128,-1,38
 276 -13 276 -13 273 -13 c 2,39,-1
 64 -18 l 2,40,41
 37 -18 37 -18 37 2 c 0,42,43
 37 25 37 25 51 29 c 0,44,45
 83 35 83 35 115 40 c 0,46,47
 152 48 152 48 163 67 c 0,48,49
 167 79 167 79 175 104 c 1,50,51
 189 103 189 103 218 98 c 1,52,53
 228 139 228 139 228 151 c 0,54,55
 228 162 228 162 218 181 c 1,56,57
 226 201 226 201 221 215 c 0,58,59
 217 225 217 225 202 249 c 0,60,61
 189 270 189 270 189 273 c 1,62,63
 189 266 189 266 206 333 c 0,64,65
 208 341 208 341 200 356 c 1,66,67
 217 384 217 384 217 394 c 0,68,69
 217 396 217 396 212 459 c 0,70,71
 212 464 212 464 205 478 c 128,-1,72
 198 492 198 492 198 495 c 0,73,74
 198 499 198 499 206 509 c 1,75,76
 204 505 204 505 204 520 c 2,77,-1
 204 641 l 2,78,79
 204 644 204 644 208.5 659 c 128,-1,80
 213 674 213 674 213 677 c 0,81,82
 213 679 213 679 210 684.5 c 128,-1,83
 207 690 207 690 207 693 c 1,84,85
 207 689 207 689 210 738 c 0,86,87
 210 748 210 748 208 771 c 128,-1,88
 206 794 206 794 206 794 c 1,89,-1
 206 873 l 2,90,91
 206 884 206 884 192 905 c 1,92,93
 196 916 196 916 186 946 c 0,94,95
 185 960 185 960 178 988 c 1,96,97
 170 997 170 997 158 1014 c 0,98,99
 154 1024 154 1024 144 1044 c 0,100,101
 124 1075 124 1075 106 1084 c 1,102,103
 83 1090 83 1090 37 1106 c 1,104,105
 40 1120 40 1120 48 1142 c 1,106,-1
 57 1142 l 2,107,108
 60 1142 60 1142 75.5 1140 c 128,-1,109
 91 1138 91 1138 94 1138 c 2,110,-1
 592 1142 l 1,0,1
EndSplineSet
EndChar

StartChar: j
Encoding: 106 106 49
Width: 645
GlyphClass: 1
Flags: W
LayerCount: 2
Fore
SplineSet
610 1253 m 1,0,1
 608 1239 608 1239 602 1213 c 1,2,3
 568 1211 568 1211 505 1190 c 1,4,5
 468 1167 468 1167 454 1084 c 0,6,7
 453 1074 453 1074 445 1046 c 128,-1,8
 437 1018 437 1018 435 1004 c 2,9,-1
 426 284 l 2,10,11
 429 264 429 264 437 226 c 1,12,13
 434 236 434 236 432 191 c 0,14,15
 430 163 430 163 433 113 c 0,16,17
 436 53 436 53 436 32 c 0,18,19
 436 30 436 30 440.5 23 c 128,-1,20
 445 16 445 16 446 11 c 0,21,22
 450 -9 450 -9 455 -30 c 0,23,24
 460 -55 460 -55 454 -69 c 0,25,26
 446 -88 446 -88 395 -144 c 0,27,28
 269 -283 269 -283 162 -379 c 0,29,30
 75 -456 75 -456 -2 -456 c 0,31,32
 -32 -456 -32 -456 -61 -432.5 c 128,-1,33
 -90 -409 -90 -409 -90 -379 c 0,34,35
 -90 -372 -90 -372 -88 -366 c 1,36,37
 -40 -344 -40 -344 59 -307 c 1,38,39
 80 -311 80 -311 122 -313 c 0,40,41
 139 -311 139 -311 149.5 -292.5 c 128,-1,42
 160 -274 160 -274 182 -231 c 0,43,44
 198 -192 198 -192 214 16 c 1,45,46
 228 32 228 32 258 39 c 0,47,48
 303 50 303 50 309 53 c 1,49,50
 289 58 289 58 261 58 c 0,51,52
 258 58 258 58 245.5 54.5 c 128,-1,53
 233 51 233 51 226 51 c 1,54,55
 216 72 216 72 219 154 c 0,56,57
 222 213 222 213 215 275 c 0,58,59
 215 282 215 282 206 322 c 0,60,61
 200 352 200 352 201 372 c 0,62,63
 206 411 206 411 211 450 c 0,64,65
 217 500 217 500 207 535 c 0,66,67
 201 554 201 554 193 564 c 1,68,69
 208 611 208 611 207 644 c 0,70,71
 207 730 207 730 201 900 c 0,72,73
 201 928 201 928 198 983 c 0,74,75
 195 989 195 989 189 1004 c 0,76,77
 184 1033 184 1033 173 1088 c 1,78,79
 165 1099 165 1099 151 1121 c 0,80,81
 135 1154 135 1154 131 1161 c 0,82,83
 117 1182 117 1182 96 1194 c 1,84,85
 73 1201 73 1201 24 1217 c 1,86,87
 24 1226 24 1226 33 1253 c 1,88,-1
 610 1253 l 1,0,1
EndSplineSet
EndChar

StartChar: k
Encoding: 107 107 50
Width: 1305
GlyphClass: 1
Flags: W
LayerCount: 2
Fore
SplineSet
1335 -7 m 1,0,-1
 1181 -4 l 1,1,-1
 1087 -4 l 1,2,-1
 931 -7 l 1,3,4
 919 14 919 14 929 29 c 1,5,6
 973 33 973 33 973 48 c 0,7,8
 973 53 973 53 971 59 c 0,9,10
 956 71 956 71 929 99 c 1,11,12
 928 107 928 107 906 128 c 0,13,14
 854 177 854 177 761 256 c 0,15,16
 742 277 742 277 704 314 c 1,17,18
 679 330 679 330 643 361 c 1,19,20
 659 365 659 365 658 365 c 1,21,22
 658 365 658 365 681 357 c 0,23,24
 682 356 682 356 706 350 c 1,25,26
 696 370 696 370 658 381 c 0,27,28
 653 383 653 383 643 396.5 c 128,-1,29
 633 410 633 410 621 409 c 1,30,31
 621 402 621 402 632 399 c 1,32,33
 630 391 630 391 625 381 c 1,34,35
 613 386 613 386 592 398 c 1,36,37
 588 405 588 405 578 416 c 1,38,39
 564 420 564 420 540 434 c 1,40,41
 531 448 531 448 506 480 c 1,42,43
 491 490 491 490 463 513 c 0,44,45
 447 528 447 528 415 550 c 1,46,47
 403 542 403 542 407 489 c 0,48,49
 410 460 410 460 415 401 c 1,50,51
 413 367 413 367 411 300 c 0,52,53
 414 270 414 270 421 210 c 0,54,55
 426 190 426 190 434 153 c 1,56,57
 433 137 433 137 438 109 c 1,58,59
 468 58 468 58 522 48 c 0,60,61
 545 45 545 45 582 30 c 1,62,63
 583 4 583 4 577 -1 c 1,64,65
 558 -2 558 -2 513 -8 c 1,66,-1
 423 -8 l 2,67,68
 421 -8 421 -8 396 -3 c 128,-1,69
 371 2 371 2 363 2 c 0,70,71
 341 4 341 4 296 0 c 0,72,73
 247 -5 247 -5 250 -5 c 1,74,-1
 122 -5 l 1,75,76
 105 -10 105 -10 84 -5 c 0,77,78
 60 1 60 1 60 19 c 0,79,80
 60 23 60 23 61 27 c 0,81,82
 65 35 65 35 90 39 c 0,83,84
 123 44 123 44 135 50 c 0,85,86
 162 64 162 64 183 101 c 0,87,88
 191 116 191 116 198 183 c 0,89,90
 203 228 203 228 210 319 c 1,91,92
 207 366 207 366 206 459 c 0,93,94
 207 471 207 471 230 506 c 1,95,96
 230 503 230 503 219 516.5 c 128,-1,97
 208 530 208 530 208 549 c 2,98,-1
 208 647 l 2,99,100
 208 711 208 711 210 705 c 1,101,102
 198 747 198 747 215 815 c 0,103,104
 221 835 221 835 213 845.5 c 128,-1,105
 205 856 205 856 205 856 c 1,106,-1
 205 932 l 2,107,108
 205 946 205 946 203 938 c 1,109,110
 211 947 211 947 211 952 c 2,111,-1
 211 1088 l 2,112,113
 211 1112 211 1112 200 1146 c 0,114,115
 186 1189 186 1189 165 1199 c 0,116,117
 136 1213 136 1213 66 1222 c 1,118,119
 64 1228 64 1228 64 1232 c 0,120,121
 64 1259 64 1259 108 1257 c 2,122,-1
 267 1248 l 1,123,-1
 346 1248 l 2,124,125
 347 1248 347 1248 366.5 1251.5 c 128,-1,126
 386 1255 386 1255 401 1255 c 0,127,128
 521 1255 521 1255 549 1258 c 1,129,130
 556 1248 556 1248 556 1238 c 0,131,132
 556 1237 556 1237 555 1229 c 0,133,134
 555 1221 555 1221 555 1219 c 0,135,136
 526 1213 526 1213 497 1207 c 0,137,138
 459 1194 459 1194 438 1159 c 0,139,140
 436 1155 436 1155 429 1104 c 0,141,142
 422 1065 422 1065 409 987 c 0,143,144
 408 981 408 981 412 963 c 0,145,146
 418 942 418 942 418 929 c 0,147,148
 418 927 418 927 413.5 920 c 128,-1,149
 409 913 409 913 409 910 c 0,150,151
 407 895 407 895 412 875 c 1,152,153
 408 852 408 852 405 814 c 0,154,155
 405 813 405 813 415 752 c 1,156,157
 410 723 410 723 418 665 c 1,158,159
 421 667 421 667 444 685 c 0,160,161
 459 701 459 701 488 733 c 0,162,163
 588 834 588 834 624 876 c 0,164,165
 634 882 634 882 655 898 c 0,166,167
 733 973 733 973 779 1026 c 0,168,169
 792 1040 792 1040 820 1075 c 0,170,171
 836 1098 836 1098 856 1138 c 0,172,173
 870 1166 870 1166 850 1188.5 c 128,-1,174
 830 1211 830 1211 798 1216 c 0,175,176
 772 1219 772 1219 746 1223 c 0,177,178
 742 1227 742 1227 742 1253 c 1,179,180
 788 1266 788 1266 907 1251 c 0,181,182
 915 1254 915 1254 932 1256 c 0,183,184
 971 1252 971 1252 970 1251 c 1,185,186
 1042 1254 1042 1254 1174 1261 c 1,187,188
 1174 1239 1174 1239 1169 1219 c 1,189,190
 1104 1226 1104 1226 1047 1195 c 1,191,192
 1029 1178 1029 1178 987 1140 c 0,193,194
 980 1136 980 1136 966 1127 c 1,195,196
 896 1051 896 1051 769 915 c 0,197,198
 761 912 761 912 749 905 c 0,199,200
 730 889 730 889 626 780 c 0,201,202
 616 765 616 765 593 734 c 1,203,204
 575 717 575 717 542 681 c 1,205,206
 551 677 551 677 566 667 c 0,207,208
 615 624 615 624 664 572 c 0,209,210
 665 566 665 566 671 556 c 0,211,212
 705 522 705 522 774 458 c 0,213,214
 789 449 789 449 820 429 c 0,215,216
 844 412 844 412 900 350 c 0,217,218
 919 329 919 329 941 313 c 0,219,220
 954 306 954 306 979 292 c 1,221,222
 989 278 989 278 1007 254 c 0,223,224
 1014 247 1014 247 1102 174 c 1,225,226
 1136 136 1136 136 1203 81 c 0,227,228
 1207 76 1207 76 1217 67 c 1,229,230
 1239 57 1239 57 1288 36 c 1,231,232
 1301 35 1301 35 1324 34 c 1,233,234
 1335 19 1335 19 1335 -7 c 1,0,-1
EndSplineSet
EndChar

StartChar: l
Encoding: 108 108 51
Width: 1128
GlyphClass: 1
Flags: W
LayerCount: 2
Fore
SplineSet
1170 284 m 1,0,1
 1149 210 1149 210 1128 137 c 0,2,3
 1102 50 1102 50 1054 -28 c 1,4,-1
 166 -20 l 2,5,6
 153 -16 153 -16 120 -10.5 c 128,-1,7
 87 -5 87 -5 75 -1 c 1,8,9
 75 25 75 25 95 38 c 1,10,11
 136 37 136 37 178 57 c 0,12,13
 233 83 233 83 246 134 c 0,14,15
 252 155 252 155 248 208 c 0,16,17
 244 269 244 269 246 291 c 0,18,19
 247 303 247 303 257 373 c 0,20,21
 264 427 264 427 264 458 c 0,22,23
 264 818 264 818 252 941 c 0,24,25
 255 945 255 945 264 958 c 1,26,27
 256 1059 256 1059 238 1123 c 0,28,29
 229 1153 229 1153 177.5 1179.5 c 128,-1,30
 126 1206 126 1206 102 1199 c 1,31,32
 102 1240 102 1240 155 1240 c 0,33,34
 170 1240 170 1240 196 1236.5 c 128,-1,35
 222 1233 222 1233 229 1233 c 2,36,-1
 730 1233 l 1,37,38
 732 1209 732 1209 680 1196 c 0,39,40
 643 1187 643 1187 607 1178 c 1,41,42
 562 1157 562 1157 559 1155 c 0,43,44
 530 1137 530 1137 523 1114 c 0,45,46
 502 1044 502 1044 494 928 c 0,47,48
 481 752 481 752 480 739 c 1,49,50
 500 682 500 682 500 636 c 0,51,52
 500 613 500 613 493 573.5 c 128,-1,53
 486 534 486 534 486 511 c 2,54,-1
 486 239 l 1,55,56
 502 191 502 191 532 100 c 0,57,58
 538 83 538 83 570 78 c 0,59,60
 610 73 610 73 684 61 c 0,61,62
 697 58 697 58 709 61 c 0,63,64
 781 71 781 71 853 82 c 0,65,66
 941 97 941 97 988 130 c 0,67,68
 1005 143 1005 143 1030 200 c 0,69,70
 1056 262 1056 262 1075 282 c 0,71,72
 1090 298 1090 298 1115 298 c 0,73,74
 1128 298 1128 298 1170 284 c 1,0,1
EndSplineSet
EndChar

StartChar: m
Encoding: 109 109 52
Width: 1634
GlyphClass: 1
Flags: W
LayerCount: 2
Fore
SplineSet
1656 35 m 0,0,1
 1660 28 1660 28 1660 21 c 0,2,3
 1660 -13 1660 -13 1619 -13 c 0,4,5
 1611 -13 1611 -13 1603 -10 c 0,6,7
 1579 1 1579 1 1548 3 c 0,8,9
 1526 5 1526 5 1491 3 c 0,10,11
 1448 2 1448 2 1435 2 c 0,12,13
 1294 5 1294 5 1270.5 0.5 c 128,-1,14
 1247 -4 1247 -4 1196 -9 c 0,15,16
 1151 -13 1151 -13 1140 9 c 0,17,18
 1137 16 1137 16 1143 28.5 c 128,-1,19
 1149 41 1149 41 1159 43 c 0,20,21
 1162 44 1162 44 1236 51 c 0,22,23
 1293 57 1293 57 1306 147 c 1,24,25
 1308 207 1308 207 1312 328 c 0,26,27
 1312 335 1312 335 1308.5 351 c 128,-1,28
 1305 367 1305 367 1305 374 c 0,29,30
 1307 456 1307 456 1292 607 c 1,31,-1
 1292 686 l 2,32,33
 1292 688 1292 688 1283.5 722.5 c 128,-1,34
 1275 757 1275 757 1274 772 c 0,35,36
 1269 839 1269 839 1271 864 c 0,37,38
 1271 865 1271 865 1276.5 884 c 128,-1,39
 1282 903 1282 903 1282 916 c 0,40,41
 1282 937 1282 937 1269 948 c 1,42,43
 1245 931 1245 931 1233 885 c 1,44,45
 1224 871 1224 871 1211 845 c 1,46,47
 1207 826 1207 826 1196 790 c 0,48,49
 1191 783 1191 783 1180 765 c 1,50,51
 1178 754 1178 754 1172 735 c 0,52,53
 1154 698 1154 698 1119 627 c 1,54,55
 1117 613 1117 613 1111 585 c 1,56,57
 1102 573 1102 573 1091 554 c 1,58,59
 1089 539 1089 539 1080 514 c 1,60,61
 1062 483 1062 483 1030 419 c 1,62,63
 1027 399 1027 399 1016 361 c 0,64,65
 1011 355 1011 355 1002 343 c 0,66,67
 1001 340 1001 340 988 300 c 0,68,69
 980 287 980 287 969 263 c 0,70,71
 966 249 966 249 957 220 c 1,72,73
 949 210 949 210 938 187 c 0,74,75
 938 186 938 186 877 45 c 1,76,77
 876 26 876 26 856 -7 c 0,78,79
 855 -7 855 -7 811 -12 c 0,80,81
 784 -15 784 -15 769 0.5 c 128,-1,82
 754 16 754 16 722 88 c 0,83,84
 706 119 706 119 678 180 c 1,85,86
 668 212 668 212 648 266 c 0,87,88
 645 273 645 273 540 477 c 0,89,90
 537 490 537 490 529 514 c 0,91,92
 480 608 480 608 387 811 c 1,93,94
 378 851 378 851 351 928 c 1,95,96
 325 981 325 981 296 981 c 1,97,98
 288 974 288 974 288 928 c 1,99,100
 292 916 292 916 296 892 c 0,101,102
 297 879 297 879 295 855 c 0,103,104
 294 826 294 826 294 828 c 1,105,-1
 294 732 l 1,106,-1
 269 355 l 1,107,-1
 269 272 l 1,108,109
 269 281 269 281 267.5 251 c 128,-1,110
 266 221 266 221 266 153 c 0,111,112
 267 135 267 135 276 105 c 1,113,114
 301 64 301 64 324 50 c 1,115,116
 344 46 344 46 385 30 c 0,117,118
 400 22 400 22 394 2 c 1,119,120
 374 -21 374 -21 280 -9 c 1,121,-1
 189 -9 l 2,122,123
 162 -9 162 -9 148 -11 c 0,124,125
 82 -18 82 -18 13 -17 c 1,126,127
 4 -11 4 -11 1 4 c 0,128,129
 -2 21 -2 21 10 27 c 0,130,131
 15 30 15 30 56 35 c 0,132,133
 65 40 65 40 80 49 c 0,134,135
 128 72 128 72 145 138 c 0,136,137
 149 154 149 154 157 242 c 0,138,139
 162 255 162 255 170 279 c 0,140,141
 177 315 177 315 177 328 c 2,142,-1
 177 404 l 2,143,144
 177 408 177 408 179.5 416 c 128,-1,145
 182 424 182 424 182 426 c 0,146,147
 181 487 181 487 198 604 c 0,148,149
 200 612 200 612 203 671 c 0,150,151
 207 773 207 773 205 809 c 0,152,153
 205 813 205 813 208 826.5 c 128,-1,154
 211 840 211 840 211 843 c 2,155,-1
 211 983 l 2,156,157
 211 987 211 987 221.5 1012.5 c 128,-1,158
 232 1038 232 1038 235 1048 c 0,159,160
 239 1066 239 1066 235 1091 c 1,161,162
 227 1106 227 1106 212 1136 c 1,163,164
 211 1157 211 1157 187 1189 c 1,165,166
 174 1191 174 1191 149 1195 c 128,-1,167
 124 1199 124 1199 82.5 1207 c 128,-1,168
 41 1215 41 1215 38 1216 c 0,169,170
 10 1224 10 1224 9 1242 c 1,171,172
 33 1263 33 1263 90 1256 c 0,173,174
 132 1250 132 1250 204 1240 c 0,175,176
 213 1239 213 1239 233 1242 c 0,177,178
 258 1247 258 1247 268 1247 c 0,179,180
 273 1248 273 1248 382 1241 c 0,181,182
 412 1240 412 1240 430 1180 c 0,183,184
 438 1167 438 1167 456 1131 c 1,185,186
 461 1112 461 1112 473 1076 c 1,187,188
 490 1061 490 1061 514 1027 c 1,189,190
 515 1008 515 1008 519 972 c 1,191,192
 527 961 527 961 538 941 c 0,193,194
 618 760 618 760 689 586 c 0,195,196
 706 544 706 544 724.5 487.5 c 128,-1,197
 743 431 743 431 779 362 c 1,198,199
 794 346 794 346 817 313 c 0,200,201
 820 309 820 309 826 272 c 0,202,203
 831 249 831 249 848 246 c 1,204,205
 860 248 860 248 867 261 c 0,206,207
 898 320 898 320 938 437 c 128,-1,208
 978 554 978 554 1016 626 c 0,209,210
 1020 641 1020 641 1030 672 c 0,211,212
 1038 690 1038 690 1055 727 c 0,213,214
 1056 731 1056 731 1065.5 741.5 c 128,-1,215
 1075 752 1075 752 1077 757 c 0,216,217
 1080 778 1080 778 1091 816 c 1,218,219
 1091 816 1091 816 1119 880 c 1,220,221
 1134 901 1134 901 1169 951 c 0,222,223
 1172 954 1172 954 1180 999 c 0,224,225
 1181 1004 1181 1004 1240 1147 c 1,226,227
 1241 1165 1241 1165 1251 1202 c 1,228,229
 1278 1263 1278 1263 1371 1247 c 1,230,231
 1382 1241 1382 1241 1405 1234 c 1,232,233
 1478 1227 1478 1227 1511 1235 c 1,234,235
 1531 1235 1531 1235 1567 1239 c 1,236,237
 1575 1244 1575 1244 1594 1252.5 c 128,-1,238
 1613 1261 1613 1261 1635 1254 c 0,239,240
 1646 1250 1646 1250 1647 1238 c 0,241,242
 1650 1207 1650 1207 1616 1200 c 0,243,244
 1587 1196 1587 1196 1558 1192 c 1,245,246
 1550 1186 1550 1186 1530.5 1173 c 128,-1,247
 1511 1160 1511 1160 1477 1127 c 0,248,249
 1476 1125 1476 1125 1460 1054 c 0,250,251
 1447 996 1447 996 1463 880 c 0,252,253
 1470 826 1470 826 1472 781 c 0,254,255
 1472 733 1472 733 1475 634 c 1,256,257
 1475 637 1475 637 1471 524 c 0,258,259
 1469 461 1469 461 1480 399 c 0,260,261
 1491 359 1491 359 1503 279 c 1,262,263
 1509 173 1509 173 1513 155 c 0,264,265
 1524 100 1524 100 1568 63 c 0,266,267
 1581 52 1581 52 1602 53 c 0,268,269
 1628 55 1628 55 1635 53 c 0,270,271
 1647 49 1647 49 1656 35 c 0,0,1
EndSplineSet
EndChar

StartChar: n
Encoding: 110 110 53
Width: 1351
GlyphClass: 1
Flags: W
LayerCount: 2
Fore
SplineSet
1063 446 m 1,0,-1
 1054 435 l 1,1,-1
 1048 441 l 1,2,-1
 1053 462 l 1,3,4
 1070 446 1070 446 1063 446 c 1,0,-1
1434 1210 m 1,5,6
 1415 1207 1415 1207 1379 1200 c 0,7,8
 1341 1189 1341 1189 1319 1152 c 0,9,10
 1288 1097 1288 1097 1281 1044 c 0,11,12
 1268 952 1268 952 1268 894 c 0,13,14
 1268 890 1268 890 1272 807.5 c 128,-1,15
 1276 725 1276 725 1276 720 c 2,16,-1
 1276 561 l 2,17,18
 1276 558 1276 558 1279.5 541 c 128,-1,19
 1283 524 1283 524 1282 515 c 0,20,21
 1276 394 1276 394 1276 379 c 0,22,23
 1276 371 1276 371 1280 346.5 c 128,-1,24
 1284 322 1284 322 1284 318 c 2,25,-1
 1284 11 l 2,26,27
 1284 5 1284 5 1285.5 4.5 c 128,-1,28
 1287 4 1287 4 1287 3 c 0,29,30
 1217 -9 1217 -9 1224 -9 c 1,31,32
 1182 -9 1182 -9 1172 0 c 0,33,34
 1103 64 1103 64 968 224 c 0,35,36
 944 256 944 256 896 316 c 1,37,38
 854 357 854 357 782 436 c 1,39,40
 764 466 764 466 722 525 c 1,41,42
 632 634 632 634 467 846 c 1,43,44
 445 863 445 863 407 900 c 1,45,46
 406 907 406 907 401 920 c 0,47,48
 389 939 389 939 361 977 c 1,49,50
 340 967 340 967 340 946 c 1,51,52
 340 947 340 947 354 844 c 0,53,54
 355 838 355 838 352 825.5 c 128,-1,55
 349 813 349 813 349 809 c 0,56,57
 349 769 349 769 352.5 685.5 c 128,-1,58
 356 602 356 602 356 604 c 1,59,-1
 356 464 l 2,60,61
 356 458 356 458 357.5 362 c 128,-1,62
 359 266 359 266 359 261 c 0,63,64
 359 52 359 52 508 41 c 0,65,66
 511 41 511 41 515.5 32.5 c 128,-1,67
 520 24 520 24 522 22 c 0,68,69
 523 4 523 4 517 -8 c 1,70,-1
 168 -8 l 2,71,72
 164 -8 164 -8 131.5 -13.5 c 128,-1,73
 99 -19 99 -19 94 -19 c 2,74,-1
 78 -19 l 1,75,76
 69 -10 69 -10 69 -8 c 0,77,78
 69 27 69 27 91 39 c 1,79,80
 117 47 117 47 167 69 c 1,81,82
 216 96 216 96 226 155 c 0,83,84
 252 300 252 300 237 332 c 0,85,86
 230 346 230 346 235 356 c 2,87,88
 235 356 235 356 243 366 c 1,89,90
 243 366 243 366 237 375 c 1,91,92
 236 386 236 386 238 413.5 c 128,-1,93
 240 441 240 441 240 453 c 0,94,95
 240 467 240 467 234.5 501 c 128,-1,96
 229 535 229 535 229 549 c 1,97,98
 229 534 229 534 233 611 c 0,99,100
 232 614 232 614 224 631 c 1,101,-1
 229 636 l 2,102,103
 233 642 233 642 234 658 c 0,104,105
 236 661 236 661 234 665 c 0,106,107
 220 778 220 778 220 817 c 2,108,-1
 220 955 l 1,109,110
 220 955 220 955 216.5 1014 c 128,-1,111
 213 1073 213 1073 213 1099 c 0,112,113
 213 1102 213 1102 216.5 1112 c 128,-1,114
 220 1122 220 1122 219 1129 c 1,115,116
 143 1209 143 1209 28 1201 c 1,117,-1
 23 1206 l 1,118,-1
 23 1239 l 1,119,120
 34 1252 34 1252 77 1252 c 0,121,122
 82 1252 82 1252 157.5 1248 c 128,-1,123
 233 1244 233 1244 238 1244 c 0,124,125
 242 1244 242 1244 312.5 1248 c 128,-1,126
 383 1252 383 1252 388 1252 c 0,127,128
 412 1252 412 1252 416 1250 c 0,129,130
 430 1245 430 1245 474 1185 c 0,131,132
 557 1068 557 1068 724 837 c 0,133,134
 758 794 758 794 826 709 c 1,135,136
 814 621 814 621 851 621 c 0,137,138
 855 621 855 621 867 627 c 128,-1,139
 879 633 879 633 884 633 c 0,140,141
 897 633 897 633 919 596 c 0,142,143
 930 577 930 577 940 559 c 1,144,145
 1013 500 1013 500 1031 469 c 1,146,147
 1035 452 1035 452 1045 419 c 1,148,149
 1053 408 1053 408 1058 408 c 256,150,151
 1063 408 1063 408 1068 412 c 128,-1,152
 1073 416 1073 416 1074 416 c 0,153,154
 1101 387 1101 387 1147 331 c 1,155,156
 1164 339 1164 339 1164 346 c 0,157,158
 1164 351 1164 351 1160 363 c 128,-1,159
 1156 375 1156 375 1156 380 c 2,160,-1
 1156 487 l 2,161,162
 1156 492 1156 492 1154.5 501.5 c 128,-1,163
 1153 511 1153 511 1153 526 c 0,164,165
 1157 545 1157 545 1159 580 c 1,166,167
 1154 609 1154 609 1146 665 c 0,168,169
 1144 673 1144 673 1148 695 c 128,-1,170
 1152 717 1152 717 1152 720 c 0,171,172
 1152 724 1152 724 1149 736.5 c 128,-1,173
 1146 749 1146 749 1146 754 c 0,174,175
 1144 772 1144 772 1146 803 c 0,176,177
 1148 842 1148 842 1148 855 c 0,178,179
 1148 860 1148 860 1143.5 872 c 128,-1,180
 1139 884 1139 884 1138 890 c 2,181,182
 1138 890 1138 890 1142 917 c 0,183,184
 1143 925 1143 925 1138.5 948 c 128,-1,185
 1134 971 1134 971 1134 983 c 0,186,187
 1134 987 1134 987 1138 1001 c 128,-1,188
 1142 1015 1142 1015 1141 1021 c 0,189,190
 1135 1062 1135 1062 1120 1141 c 1,191,192
 1106 1193 1106 1193 1006 1210 c 1,193,194
 1008 1227 1008 1227 1002 1246 c 1,195,196
 1013 1255 1013 1255 1073 1255 c 2,197,-1
 1255 1248 l 1,198,199
 1249 1248 1249 1248 1345 1254 c 0,200,201
 1402 1258 1402 1258 1434 1247 c 1,202,-1
 1434 1210 l 1,5,6
EndSplineSet
EndChar

StartChar: o
Encoding: 111 111 54
Width: 1542
GlyphClass: 1
Flags: W
LayerCount: 2
Fore
SplineSet
1442 623 m 0,0,1
 1442 566 1442 566 1439 536 c 1,2,3
 1429 513 1429 513 1418 465 c 1,4,5
 1416 417 1416 417 1397 363 c 1,6,7
 1381 343 1381 343 1350 298 c 1,8,9
 1342 268 1342 268 1306 212 c 1,10,11
 1277 183 1277 183 1218 122 c 1,12,13
 1209 119 1209 119 1195 112 c 1,14,15
 1182 100 1182 100 1149 77 c 1,16,17
 985 -10 985 -10 837 -22 c 1,18,-1
 705 -22 l 1,19,20
 707 -22 707 -22 697 -16 c 1,21,22
 589 -13 589 -13 535 14 c 0,23,24
 521 17 521 17 497 24 c 0,25,26
 457 40 457 40 377 81 c 1,27,28
 281 142 281 142 197 253 c 0,29,30
 150 315 150 315 114 413 c 0,31,32
 80 504 80 504 76 566 c 0,33,34
 69 672 69 672 84 774 c 1,35,36
 90 787 90 787 100 811 c 1,37,38
 106 841 106 841 121 898 c 1,39,40
 143 933 143 933 179 1000 c 0,41,42
 184 1011 184 1011 184 1026 c 1,43,44
 189 1031 189 1031 204 1023 c 1,45,46
 209 1037 209 1037 204 1063 c 1,47,48
 217 1067 217 1067 241 1080 c 1,49,50
 249 1101 249 1101 279 1131 c 1,51,52
 339 1163 339 1163 460 1225 c 0,53,54
 491 1240 491 1240 539 1251 c 0,55,56
 661 1279 661 1279 705 1279 c 2,57,-1
 783 1279 l 2,58,59
 874 1279 874 1279 939 1262 c 0,60,61
 974 1252 974 1252 1093 1206 c 1,62,63
 1118 1190 1118 1190 1172 1156 c 0,64,65
 1250 1106 1250 1106 1314 1019 c 0,66,67
 1371 941 1371 941 1388 875 c 1,68,69
 1396 864 1396 864 1408 842 c 0,70,71
 1430 782 1430 782 1433 664 c 0,72,73
 1433 660 1433 660 1437.5 645.5 c 128,-1,74
 1442 631 1442 631 1442 623 c 0,0,1
1220 597 m 0,75,76
 1211 723 1211 723 1171 827 c 0,77,78
 1120 961 1120 961 1051 1038 c 0,79,80
 953 1146 953 1146 837 1165 c 0,81,82
 727 1183 727 1183 686 1177 c 0,83,84
 606 1167 606 1167 550 1142 c 0,85,86
 543 1139 543 1139 459 1089 c 1,87,88
 454 1079 454 1079 441 1065 c 1,89,90
 433 1063 433 1063 423 1059 c 1,91,92
 403 1033 403 1033 373 989 c 0,93,94
 369 977 369 977 360 955 c 1,95,96
 345 931 345 931 328 898 c 1,97,98
 319 861 319 861 300 787 c 1,99,100
 301 759 301 759 299 702 c 0,101,102
 299 699 299 699 295 689 c 128,-1,103
 291 679 291 679 292 675 c 0,104,105
 306 610 306 610 332 495 c 1,106,107
 329 487 329 487 328 476 c 1,108,109
 335 462 335 462 348 438 c 1,110,111
 349 425 349 425 354 404 c 1,112,113
 396 320 396 320 398 318 c 0,114,115
 428 266 428 266 480 219 c 0,116,117
 481 218 481 218 493 178 c 0,118,119
 497 177 497 177 527 172 c 1,120,121
 576 127 576 127 602 111 c 0,122,123
 676 67 676 67 870 84 c 0,124,125
 886 89 886 89 912 97 c 0,126,127
 945 104 945 104 1007 130 c 1,128,129
 1021 143 1021 143 1044 161 c 0,130,131
 1144 223 1144 223 1163 314 c 1,132,133
 1173 326 1173 326 1187 348 c 1,134,135
 1189 367 1189 367 1193 393 c 1,136,137
 1199 399 1199 399 1205 412 c 1,138,139
 1207 435 1207 435 1215 512 c 0,140,141
 1222 574 1222 574 1220 597 c 0,75,76
EndSplineSet
EndChar

StartChar: p
Encoding: 112 112 55
Width: 1099
GlyphClass: 1
Flags: W
LayerCount: 2
Fore
SplineSet
1010 991 m 0,0,1
 1019 949 1019 949 999 805 c 0,2,3
 992 755 992 755 941 685.5 c 128,-1,4
 890 616 890 616 838 582 c 0,5,6
 791 550 791 550 706 536 c 1,7,8
 685 527 685 527 644 516 c 1,9,10
 565 509 565 509 444 509 c 0,11,12
 437 509 437 509 427 497 c 1,13,14
 431 459 431 459 436 255 c 0,15,16
 438 215 438 215 452 151 c 0,17,18
 452 133 452 133 462 98 c 1,19,20
 482 62 482 62 529 47 c 0,21,22
 566 36 566 36 603 25 c 1,23,24
 604 14 604 14 602 -1 c 1,25,26
 573 -13 573 -13 543 -13 c 2,27,-1
 440 -13 l 2,28,29
 438 -13 438 -13 413.5 -8 c 128,-1,30
 389 -3 389 -3 378 -3 c 0,31,32
 348 -3 348 -3 283.5 -8 c 128,-1,33
 219 -13 219 -13 220 -13 c 1,34,-1
 121 -13 l 2,35,36
 106 -13 106 -13 85 -3 c 0,37,38
 85 -1 85 -1 82.5 8 c 128,-1,39
 80 17 80 17 80 21 c 0,40,41
 132 35 132 35 143 41 c 0,42,43
 179 58 179 58 202 98 c 0,44,45
 212 116 212 116 215 189 c 0,46,47
 216 201 216 201 222 251 c 0,48,49
 228 296 228 296 228 320 c 0,50,51
 228 444 228 444 228 444 c 2,52,53
 227 490 227 490 225 536 c 0,54,55
 226 588 226 588 249 625 c 1,56,57
 241 632 241 632 231 651 c 1,58,59
 223 705 223 705 223 763 c 0,60,61
 223 764 223 764 231 797 c 0,62,63
 238 824 238 824 232 840 c 0,64,65
 216 883 216 883 228 948 c 0,66,67
 232 967 232 967 215 1067 c 1,68,69
 215 1099 215 1099 198 1151 c 1,70,71
 177 1177 177 1177 142 1185 c 0,72,73
 113 1191 113 1191 84 1197 c 1,74,75
 84 1254 84 1254 81 1221 c 1,76,77
 83 1237 83 1237 101 1238 c 0,78,79
 141 1240 141 1240 229 1247 c 0,80,81
 310 1254 310 1254 313 1254 c 2,82,-1
 439 1254 l 2,83,84
 475 1254 475 1254 512.5 1260.5 c 128,-1,85
 550 1267 550 1267 576 1267 c 0,86,87
 609 1267 609 1267 660 1261 c 0,88,89
 691 1254 691 1254 752 1241 c 0,90,91
 758 1237 758 1237 771 1232 c 0,92,93
 866 1218 866 1218 938 1142 c 0,94,95
 990 1088 990 1088 1010 991 c 0,0,1
798 879 m 0,96,97
 798 911 798 911 795 922 c 0,98,99
 745 1053 745 1053 711 1091 c 0,100,101
 664 1142 664 1142 606 1155 c 0,102,103
 568 1164 568 1164 482 1160 c 0,104,105
 473 1160 473 1160 455 1149 c 1,106,107
 439 980 439 980 435 875 c 1,108,109
 440 867 440 867 444 852 c 0,110,111
 444 838 444 838 435 738 c 0,112,113
 430 674 430 674 439 608 c 0,114,115
 442 605 442 605 447 600 c 1,116,-1
 544 600 l 1,117,118
 560 595 560 595 579 595 c 0,119,120
 637 595 637 595 690 632 c 128,-1,121
 743 669 743 669 756 693 c 0,122,123
 798 775 798 775 798 879 c 0,96,97
EndSplineSet
EndChar

StartChar: q
Encoding: 113 113 56
Width: 1530
GlyphClass: 1
Flags: W
LayerCount: 2
Fore
SplineSet
1633 -214 m 1,0,1
 1617 -231 1617 -231 1539 -247 c 0,2,3
 1369 -279 1369 -279 1349 -279 c 256,4,5
 1329 -279 1329 -279 1214 -258 c 0,6,7
 1195 -258 1195 -258 1157 -252 c 1,8,9
 1151 -246 1151 -246 1138 -239 c 1,10,11
 1098 -232 1098 -232 1036 -203 c 0,12,13
 943 -160 943 -160 935 -157 c 1,14,15
 931 -148 931 -148 919 -129 c 1,16,17
 909 -129 909 -129 893 -123 c 1,18,19
 879 -108 879 -108 848 -89 c 0,20,21
 823 -75 823 -75 808 -48 c 0,22,23
 801 -37 801 -37 792 -35 c 0,24,25
 741 -29 741 -29 656 -28 c 0,26,27
 619 -27 619 -27 546 2 c 0,28,29
 500 19 500 19 454 37 c 0,30,31
 396 60 396 60 361 88 c 0,32,33
 165 247 165 247 118 439 c 1,34,35
 102 478 102 478 86 556 c 1,36,37
 82 682 82 682 94 764 c 1,38,39
 100 777 100 777 110 802 c 1,40,41
 116 831 116 831 131 888 c 1,42,43
 153 924 153 924 189 990 c 0,44,45
 195 1002 195 1002 195 1017 c 1,46,47
 199 1021 199 1021 214 1014 c 1,48,49
 219 1027 219 1027 214 1054 c 1,50,51
 228 1058 228 1058 252 1071 c 1,52,53
 259 1091 259 1091 290 1122 c 1,54,55
 349 1154 349 1154 471 1216 c 0,56,57
 502 1232 502 1232 550 1243 c 0,58,59
 672 1270 672 1270 717 1270 c 2,60,-1
 795 1270 l 2,61,62
 886 1270 886 1270 952 1253 c 0,63,64
 984 1244 984 1244 1106 1197 c 1,65,66
 1131 1181 1131 1181 1185 1147 c 0,67,68
 1263 1097 1263 1097 1327 1009 c 0,69,70
 1384 931 1384 931 1402 866 c 1,71,72
 1410 855 1410 855 1422 832 c 0,73,74
 1444 772 1444 772 1447 654 c 0,75,76
 1447 650 1447 650 1451.5 635.5 c 128,-1,77
 1456 621 1456 621 1456 612 c 0,78,79
 1456 556 1456 556 1452 526 c 1,80,81
 1443 503 1443 503 1432 454 c 1,82,83
 1430 406 1430 406 1411 352 c 1,84,85
 1395 331 1395 331 1364 287 c 1,86,87
 1355 257 1355 257 1320 200 c 1,88,89
 1294 167 1294 167 1230 110 c 1,90,91
 1157 64 1157 64 1050 9 c 1,92,93
 1057 -15 1057 -15 1096 -45 c 0,94,95
 1144 -81 1144 -81 1151 -90 c 0,96,97
 1158 -94 1158 -94 1172 -100 c 0,98,99
 1177 -102 1177 -102 1161 -130 c 1,100,101
 1176 -131 1176 -131 1189 -120 c 128,-1,102
 1202 -109 1202 -109 1202 -109 c 1,103,104
 1207 -112 1207 -112 1219 -119 c 0,105,106
 1268 -145 1268 -145 1358 -184 c 1,107,108
 1386 -185 1386 -185 1444 -190 c 0,109,110
 1460 -192 1460 -192 1497 -192 c 0,111,112
 1500 -192 1500 -192 1510 -197 c 128,-1,113
 1520 -202 1520 -202 1527 -203 c 0,114,115
 1570 -206 1570 -206 1630 -193 c 1,116,117
 1630 -223 1630 -223 1633 -214 c 1,0,1
1233 586 m 0,118,119
 1224 713 1224 713 1184 817 c 0,120,121
 1133 952 1133 952 1063 1028 c 0,122,123
 966 1137 966 1137 849 1156 c 0,124,125
 739 1174 739 1174 697 1169 c 0,126,127
 618 1158 618 1158 561 1133 c 0,128,129
 554 1130 554 1130 471 1080 c 1,130,131
 465 1070 465 1070 452 1056 c 1,132,133
 444 1054 444 1054 434 1050 c 1,134,135
 414 1024 414 1024 384 979 c 0,136,137
 380 967 380 967 370 945 c 0,138,139
 355 921 355 921 339 888 c 1,140,141
 329 851 329 851 311 777 c 1,142,143
 312 749 312 749 310 692 c 0,144,145
 310 689 310 689 306 678.5 c 128,-1,146
 302 668 302 668 302 665 c 0,147,148
 317 599 317 599 342 484 c 1,149,150
 296 479 296 479 250 470 c 1,151,152
 263 467 263 467 302 457 c 1,153,-1
 279 447 l 1,154,-1
 350 443 l 2,155,156
 358 442 358 442 359 436 c 0,157,158
 359 432 359 432 359 427 c 0,159,160
 360 414 360 414 365 393 c 1,161,162
 407 309 407 309 409 307 c 0,163,164
 439 255 439 255 491 208 c 0,165,166
 492 207 492 207 504 166 c 1,167,168
 509 166 509 166 539 161 c 1,169,170
 587 115 587 115 614 99 c 0,171,172
 688 55 688 55 883 72 c 1,173,174
 899 78 899 78 924 85 c 0,175,176
 957 93 957 93 1019 118 c 1,177,178
 1034 131 1034 131 1057 150 c 1,179,180
 1157 212 1157 212 1175 303 c 1,181,182
 1186 314 1186 314 1199 337 c 1,183,184
 1202 356 1202 356 1206 382 c 1,185,186
 1212 388 1212 388 1218 401 c 1,187,188
 1220 424 1220 424 1228 501 c 0,189,190
 1235 563 1235 563 1233 586 c 0,118,119
EndSplineSet
EndChar

